<svg width="1392" height="1511" viewBox="0 0 1392 1511" fill="none" xmlns="http://www.w3.org/2000/svg">
<g clip-path="url(#clip0_22_196)">
<rect width="1392" height="1511" rx="16" fill="url(#paint0_linear_22_196)" fill-opacity="0.46"/>
<g opacity="0.2">
<g style="mix-blend-mode:soft-light" opacity="0.4">
<path d="M-189.201 -118.798H-231.354V-76.6454M-189.201 -118.798V-76.6454M-189.201 -118.798H-147.049M-189.201 -76.6454H-231.354M-189.201 -76.6454V-34.4929M-189.201 -76.6454H-147.049M-231.354 -76.6454V-34.4929M-189.201 -34.4929H-231.354M-189.201 -34.4929V7.65951M-189.201 -34.4929H-147.049M-231.354 -34.4929V7.65951M-189.201 7.65951H-231.354M-189.201 7.65951V49.812M-189.201 7.65951H-147.049M-231.354 7.65951V49.812M-189.201 49.812H-231.354M-189.201 49.812V91.9644M-189.201 49.812H-147.049M-231.354 49.812V91.9644M-189.201 91.9644H-231.354M-189.201 91.9644V134.117M-189.201 91.9644H-147.049M-231.354 91.9644V134.117M-189.201 134.117H-231.354M-189.201 134.117V176.269M-189.201 134.117H-147.049M-231.354 134.117V176.269M-189.201 176.269H-231.354M-189.201 176.269V218.422M-189.201 176.269H-147.049M-231.354 176.269V218.422M-189.201 218.422H-231.354M-189.201 218.422V260.574M-189.201 218.422H-147.049M-231.354 218.422V260.574M-189.201 260.574H-231.354M-189.201 260.574V302.727M-189.201 260.574H-147.049M-231.354 260.574V302.727M-189.201 302.727H-231.354M-189.201 302.727V344.879M-189.201 302.727H-147.049M-231.354 302.727V344.879M-189.201 344.879H-231.354M-189.201 344.879V387.032M-189.201 344.879H-147.049M-231.354 344.879V387.032M-189.201 387.032H-231.354M-189.201 387.032V429.184M-189.201 387.032H-147.049M-231.354 387.032V429.184M-189.201 429.184H-231.354M-189.201 429.184V471.336M-189.201 429.184H-147.049M-231.354 429.184V471.336M-189.201 471.336H-231.354M-189.201 471.336V513.489M-189.201 471.336H-147.049M-231.354 471.336V513.489M-189.201 513.489H-231.354M-189.201 513.489V555.641M-189.201 513.489H-147.049M-231.354 513.489V555.641M-189.201 555.641H-231.354M-189.201 555.641V597.794M-189.201 555.641H-147.049M-231.354 555.641V597.794M-189.201 597.794H-231.354M-189.201 597.794V639.946M-189.201 597.794H-147.049M-231.354 597.794V639.946M-189.201 639.946H-231.354M-189.201 639.946V682.099M-189.201 639.946H-147.049M-231.354 639.946V682.099M-189.201 682.099H-231.354M-189.201 682.099V724.251M-189.201 682.099H-147.049M-231.354 682.099V724.251H-189.201M-189.201 724.251H-147.049M-147.049 -118.798V-76.6454M-147.049 -118.798H-104.897M-147.049 -76.6454V-34.4929M-147.049 -76.6454H-104.897M-147.049 -34.4929V7.65951M-147.049 -34.4929H-104.897M-147.049 7.65951V49.812M-147.049 7.65951H-104.897M-147.049 49.812V91.9644M-147.049 49.812H-104.897M-147.049 91.9644V134.117M-147.049 91.9644H-104.897M-147.049 134.117V176.269M-147.049 134.117H-104.897M-147.049 176.269V218.422M-147.049 176.269H-104.897M-147.049 218.422V260.574M-147.049 218.422H-104.897M-147.049 260.574V302.727M-147.049 260.574H-104.897M-147.049 302.727V344.879M-147.049 302.727H-104.897M-147.049 344.879V387.032M-147.049 344.879H-104.897M-147.049 387.032V429.184M-147.049 387.032H-104.897M-147.049 429.184V471.336M-147.049 429.184H-104.897M-147.049 471.336V513.489M-147.049 471.336H-104.897M-147.049 513.489V555.641M-147.049 513.489H-104.897M-147.049 555.641V597.794M-147.049 555.641H-104.897M-147.049 597.794V639.946M-147.049 597.794H-104.897M-147.049 639.946V682.099M-147.049 639.946H-104.897M-147.049 682.099V724.251M-147.049 682.099H-104.897M-147.049 724.251H-104.897M-104.897 -118.798V-76.6454M-104.897 -118.798H-62.7441M-104.897 -76.6454V-34.4929M-104.897 -76.6454H-62.7441M-104.897 -34.4929V7.65951M-104.897 -34.4929H-62.7441M-104.897 7.65951V49.812M-104.897 7.65951H-62.7441M-104.897 49.812V91.9644M-104.897 49.812H-62.7441M-104.897 91.9644V134.117M-104.897 91.9644H-62.7441M-104.897 134.117V176.269M-104.897 134.117H-62.7441M-104.897 176.269V218.422M-104.897 176.269H-62.7441M-104.897 218.422V260.574M-104.897 218.422H-62.7441M-104.897 260.574V302.727M-104.897 260.574H-62.7441M-104.897 302.727V344.879M-104.897 302.727H-62.7441M-104.897 344.879V387.032M-104.897 344.879H-62.7441M-104.897 387.032V429.184M-104.897 387.032H-62.7441M-104.897 429.184V471.336M-104.897 429.184H-62.7441M-104.897 471.336V513.489M-104.897 471.336H-62.7441M-104.897 513.489V555.641M-104.897 513.489H-62.7441M-104.897 555.641V597.794M-104.897 555.641H-62.7441M-104.897 597.794V639.946M-104.897 597.794H-62.7441M-104.897 639.946V682.099M-104.897 639.946H-62.7441M-104.897 682.099V724.251M-104.897 682.099H-62.7441M-104.897 724.251H-62.7441M-62.7441 -118.798V-76.6454M-62.7441 -118.798H-20.5916M-62.7441 -76.6454V-34.4929M-62.7441 -76.6454H-20.5916M-62.7441 -34.4929V7.65951M-62.7441 -34.4929H-20.5916M-62.7441 7.65951V49.812M-62.7441 7.65951H-20.5916M-62.7441 49.812V91.9644M-62.7441 49.812H-20.5916M-62.7441 91.9644V134.117M-62.7441 91.9644H-20.5916M-62.7441 134.117V176.269M-62.7441 134.117H-20.5916M-62.7441 176.269V218.422M-62.7441 176.269H-20.5916M-62.7441 218.422V260.574M-62.7441 218.422H-20.5916M-62.7441 260.574V302.727M-62.7441 260.574H-20.5916M-62.7441 302.727V344.879M-62.7441 302.727H-20.5916M-62.7441 344.879V387.032M-62.7441 344.879H-20.5916M-62.7441 387.032V429.184M-62.7441 387.032H-20.5916M-62.7441 429.184V471.336M-62.7441 429.184H-20.5916M-62.7441 471.336V513.489M-62.7441 471.336H-20.5916M-62.7441 513.489V555.641M-62.7441 513.489H-20.5916M-62.7441 555.641V597.794M-62.7441 555.641H-20.5916M-62.7441 597.794V639.946M-62.7441 597.794H-20.5916M-62.7441 639.946V682.099M-62.7441 639.946H-20.5916M-62.7441 682.099V724.251M-62.7441 682.099H-20.5916M-62.7441 724.251H-20.5916M-20.5916 -118.798V-76.6454M-20.5916 -118.798H21.5608M-20.5916 -76.6454V-34.4929M-20.5916 -76.6454H21.5608M-20.5916 -34.4929V7.65951M-20.5916 -34.4929H21.5608M-20.5916 7.65951V49.812M-20.5916 7.65951H21.5608M-20.5916 49.812V91.9644M-20.5916 49.812H21.5608M-20.5916 91.9644V134.117M-20.5916 91.9644H21.5608M-20.5916 134.117V176.269M-20.5916 134.117H21.5608M-20.5916 176.269V218.422M-20.5916 176.269H21.5608M-20.5916 218.422V260.574M-20.5916 218.422H21.5608M-20.5916 260.574V302.727M-20.5916 260.574H21.5608M-20.5916 302.727V344.879M-20.5916 302.727H21.5608M-20.5916 344.879V387.032M-20.5916 344.879H21.5608M-20.5916 387.032V429.184M-20.5916 387.032H21.5608M-20.5916 429.184V471.336M-20.5916 429.184H21.5608M-20.5916 471.336V513.489M-20.5916 471.336H21.5608M-20.5916 513.489V555.641M-20.5916 513.489H21.5608M-20.5916 555.641V597.794M-20.5916 555.641H21.5608M-20.5916 597.794V639.946M-20.5916 597.794H21.5608M-20.5916 639.946V682.099M-20.5916 639.946H21.5608M-20.5916 682.099V724.251M-20.5916 682.099H21.5608M-20.5916 724.251H21.5608M21.5608 -118.798V-76.6454M21.5608 -118.798H63.7133M21.5608 -76.6454V-34.4929M21.5608 -76.6454H63.7133M21.5608 -34.4929V7.65951M21.5608 -34.4929H63.7133M21.5608 7.65951V49.812M21.5608 7.65951H63.7133M21.5608 49.812V91.9644M21.5608 49.812H63.7133M21.5608 91.9644V134.117M21.5608 91.9644H63.7133M21.5608 134.117V176.269M21.5608 134.117H63.7133M21.5608 176.269V218.422M21.5608 176.269H63.7133M21.5608 218.422V260.574M21.5608 218.422H63.7133M21.5608 260.574V302.727M21.5608 260.574H63.7133M21.5608 302.727V344.879M21.5608 302.727H63.7133M21.5608 344.879V387.032M21.5608 344.879H63.7133M21.5608 387.032V429.184M21.5608 387.032H63.7133M21.5608 429.184V471.336M21.5608 429.184H63.7133M21.5608 471.336V513.489M21.5608 471.336H63.7133M21.5608 513.489V555.641M21.5608 513.489H63.7133M21.5608 555.641V597.794M21.5608 555.641H63.7133M21.5608 597.794V639.946M21.5608 597.794H63.7133M21.5608 639.946V682.099M21.5608 639.946H63.7133M21.5608 682.099V724.251M21.5608 682.099H63.7133M21.5608 724.251H63.7133M63.7133 -118.798V-76.6454M63.7133 -118.798H105.866M63.7133 -76.6454V-34.4929M63.7133 -76.6454H105.866M63.7133 -34.4929V7.65951M63.7133 -34.4929H105.866M63.7133 7.65951V49.812M63.7133 7.65951H105.866M63.7133 49.812V91.9644M63.7133 49.812H105.866M63.7133 91.9644V134.117M63.7133 91.9644H105.866M63.7133 134.117V176.269M63.7133 134.117H105.866M63.7133 176.269V218.422M63.7133 176.269H105.866M63.7133 218.422V260.574M63.7133 218.422H105.866M63.7133 260.574V302.727M63.7133 260.574H105.866M63.7133 302.727V344.879M63.7133 302.727H105.866M63.7133 344.879V387.032M63.7133 344.879H105.866M63.7133 387.032V429.184M63.7133 387.032H105.866M63.7133 429.184V471.336M63.7133 429.184H105.866M63.7133 471.336V513.489M63.7133 471.336H105.866M63.7133 513.489V555.641M63.7133 513.489H105.866M63.7133 555.641V597.794M63.7133 555.641H105.866M63.7133 597.794V639.946M63.7133 597.794H105.866M63.7133 639.946V682.099M63.7133 639.946H105.866M63.7133 682.099V724.251M63.7133 682.099H105.866M63.7133 724.251H105.866M105.866 -118.798V-76.6454M105.866 -118.798H148.018M105.866 -76.6454V-34.4929M105.866 -76.6454H148.018M105.866 -34.4929V7.65951M105.866 -34.4929H148.018M105.866 7.65951V49.812M105.866 7.65951H148.018M105.866 49.812V91.9644M105.866 49.812H148.018M105.866 91.9644V134.117M105.866 91.9644H148.018M105.866 134.117V176.269M105.866 134.117H148.018M105.866 176.269V218.422M105.866 176.269H148.018M105.866 218.422V260.574M105.866 218.422H148.018M105.866 260.574V302.727M105.866 260.574H148.018M105.866 302.727V344.879M105.866 302.727H148.018M105.866 344.879V387.032M105.866 344.879H148.018M105.866 387.032V429.184M105.866 387.032H148.018M105.866 429.184V471.336M105.866 429.184H148.018M105.866 471.336V513.489M105.866 471.336H148.018M105.866 513.489V555.641M105.866 513.489H148.018M105.866 555.641V597.794M105.866 555.641H148.018M105.866 597.794V639.946M105.866 597.794H148.018M105.866 639.946V682.099M105.866 639.946H148.018M105.866 682.099V724.251M105.866 682.099H148.018M105.866 724.251H148.018M148.018 -118.798V-76.6454M148.018 -118.798H190.171M148.018 -76.6454V-34.4929M148.018 -76.6454H190.171M148.018 -34.4929V7.65951M148.018 -34.4929H190.171M148.018 7.65951V49.812M148.018 7.65951H190.171M148.018 49.812V91.9644M148.018 49.812H190.171M148.018 91.9644V134.117M148.018 91.9644H190.171M148.018 134.117V176.269M148.018 134.117H190.171M148.018 176.269V218.422M148.018 176.269H190.171M148.018 218.422V260.574M148.018 218.422H190.171M148.018 260.574V302.727M148.018 260.574H190.171M148.018 302.727V344.879M148.018 302.727H190.171M148.018 344.879V387.032M148.018 344.879H190.171M148.018 387.032V429.184M148.018 387.032H190.171M148.018 429.184V471.336M148.018 429.184H190.171M148.018 471.336V513.489M148.018 471.336H190.171M148.018 513.489V555.641M148.018 513.489H190.171M148.018 555.641V597.794M148.018 555.641H190.171M148.018 597.794V639.946M148.018 597.794H190.171M148.018 639.946V682.099M148.018 639.946H190.171M148.018 682.099V724.251M148.018 682.099H190.171M148.018 724.251H190.171M190.171 -118.798V-76.6454M190.171 -118.798H232.323M190.171 -76.6454V-34.4929M190.171 -76.6454H232.323M190.171 -34.4929V7.65951M190.171 -34.4929H232.323M190.171 7.65951V49.812M190.171 7.65951H232.323M190.171 49.812V91.9644M190.171 49.812H232.323M190.171 91.9644V134.117M190.171 91.9644H232.323M190.171 134.117V176.269M190.171 134.117H232.323M190.171 176.269V218.422M190.171 176.269H232.323M190.171 218.422V260.574M190.171 218.422H232.323M190.171 260.574V302.727M190.171 260.574H232.323M190.171 302.727V344.879M190.171 302.727H232.323M190.171 344.879V387.032M190.171 344.879H232.323M190.171 387.032V429.184M190.171 387.032H232.323M190.171 429.184V471.336M190.171 429.184H232.323M190.171 471.336V513.489M190.171 471.336H232.323M190.171 513.489V555.641M190.171 513.489H232.323M190.171 555.641V597.794M190.171 555.641H232.323M190.171 597.794V639.946M190.171 597.794H232.323M190.171 639.946V682.099M190.171 639.946H232.323M190.171 682.099V724.251M190.171 682.099H232.323M190.171 724.251H232.323M232.323 -118.798V-76.6454M232.323 -118.798H274.476M232.323 -76.6454V-34.4929M232.323 -76.6454H274.476M232.323 -34.4929V7.65951M232.323 -34.4929H274.476M232.323 7.65951V49.812M232.323 7.65951H274.476M232.323 49.812V91.9644M232.323 49.812H274.476M232.323 91.9644V134.117M232.323 91.9644H274.476M232.323 134.117V176.269M232.323 134.117H274.476M232.323 176.269V218.422M232.323 176.269H274.476M232.323 218.422V260.574M232.323 218.422H274.476M232.323 260.574V302.727M232.323 260.574H274.476M232.323 302.727V344.879M232.323 302.727H274.476M232.323 344.879V387.032M232.323 344.879H274.476M232.323 387.032V429.184M232.323 387.032H274.476M232.323 429.184V471.336M232.323 429.184H274.476M232.323 471.336V513.489M232.323 471.336H274.476M232.323 513.489V555.641M232.323 513.489H274.476M232.323 555.641V597.794M232.323 555.641H274.476M232.323 597.794V639.946M232.323 597.794H274.476M232.323 639.946V682.099M232.323 639.946H274.476M232.323 682.099V724.251M232.323 682.099H274.476M232.323 724.251H274.476M274.476 -118.798V-76.6454M274.476 -118.798H316.628M274.476 -76.6454V-34.4929M274.476 -76.6454H316.628M274.476 -34.4929V7.65951M274.476 -34.4929H316.628M274.476 7.65951V49.812M274.476 7.65951H316.628M274.476 49.812V91.9644M274.476 49.812H316.628M274.476 91.9644V134.117M274.476 91.9644H316.628M274.476 134.117V176.269M274.476 134.117H316.628M274.476 176.269V218.422M274.476 176.269H316.628M274.476 218.422V260.574M274.476 218.422H316.628M274.476 260.574V302.727M274.476 260.574H316.628M274.476 302.727V344.879M274.476 302.727H316.628M274.476 344.879V387.032M274.476 344.879H316.628M274.476 387.032V429.184M274.476 387.032H316.628M274.476 429.184V471.336M274.476 429.184H316.628M274.476 471.336V513.489M274.476 471.336H316.628M274.476 513.489V555.641M274.476 513.489H316.628M274.476 555.641V597.794M274.476 555.641H316.628M274.476 597.794V639.946M274.476 597.794H316.628M274.476 639.946V682.099M274.476 639.946H316.628M274.476 682.099V724.251M274.476 682.099H316.628M274.476 724.251H316.628M316.628 -118.798V-76.6454M316.628 -118.798H358.78M316.628 -76.6454V-34.4929M316.628 -76.6454H358.78M316.628 -34.4929V7.65951M316.628 -34.4929H358.78M316.628 7.65951V49.812M316.628 7.65951H358.78M316.628 49.812V91.9644M316.628 49.812H358.78M316.628 91.9644V134.117M316.628 91.9644H358.78M316.628 134.117V176.269M316.628 134.117H358.78M316.628 176.269V218.422M316.628 176.269H358.78M316.628 218.422V260.574M316.628 218.422H358.78M316.628 260.574V302.727M316.628 260.574H358.78M316.628 302.727V344.879M316.628 302.727H358.78M316.628 344.879V387.032M316.628 344.879H358.78M316.628 387.032V429.184M316.628 387.032H358.78M316.628 429.184V471.336M316.628 429.184H358.78M316.628 471.336V513.489M316.628 471.336H358.78M316.628 513.489V555.641M316.628 513.489H358.78M316.628 555.641V597.794M316.628 555.641H358.78M316.628 597.794V639.946M316.628 597.794H358.78M316.628 639.946V682.099M316.628 639.946H358.78M316.628 682.099V724.251M316.628 682.099H358.78M316.628 724.251H358.78M358.78 -118.798V-76.6454M358.78 -118.798H400.933M358.78 -76.6454V-34.4929M358.78 -76.6454H400.933M358.78 -34.4929V7.65951M358.78 -34.4929H400.933M358.78 7.65951V49.812M358.78 7.65951H400.933M358.78 49.812V91.9644M358.78 49.812H400.933M358.78 91.9644V134.117M358.78 91.9644H400.933M358.78 134.117V176.269M358.78 134.117H400.933M358.78 176.269V218.422M358.78 176.269H400.933M358.78 218.422V260.574M358.78 218.422H400.933M358.78 260.574V302.727M358.78 260.574H400.933M358.78 302.727V344.879M358.78 302.727H400.933M358.78 344.879V387.032M358.78 344.879H400.933M358.78 387.032V429.184M358.78 387.032H400.933M358.78 429.184V471.336M358.78 429.184H400.933M358.78 471.336V513.489M358.78 471.336H400.933M358.78 513.489V555.641M358.78 513.489H400.933M358.78 555.641V597.794M358.78 555.641H400.933M358.78 597.794V639.946M358.78 597.794H400.933M358.78 639.946V682.099M358.78 639.946H400.933M358.78 682.099V724.251M358.78 682.099H400.933M358.78 724.251H400.933M400.933 -118.798V-76.6454M400.933 -118.798H443.085M400.933 -76.6454V-34.4929M400.933 -76.6454H443.085M400.933 -34.4929V7.65951M400.933 -34.4929H443.085M400.933 7.65951V49.812M400.933 7.65951H443.085M400.933 49.812V91.9644M400.933 49.812H443.085M400.933 91.9644V134.117M400.933 91.9644H443.085M400.933 134.117V176.269M400.933 134.117H443.085M400.933 176.269V218.422M400.933 176.269H443.085M400.933 218.422V260.574M400.933 218.422H443.085M400.933 260.574V302.727M400.933 260.574H443.085M400.933 302.727V344.879M400.933 302.727H443.085M400.933 344.879V387.032M400.933 344.879H443.085M400.933 387.032V429.184M400.933 387.032H443.085M400.933 429.184V471.336M400.933 429.184H443.085M400.933 471.336V513.489M400.933 471.336H443.085M400.933 513.489V555.641M400.933 513.489H443.085M400.933 555.641V597.794M400.933 555.641H443.085M400.933 597.794V639.946M400.933 597.794H443.085M400.933 639.946V682.099M400.933 639.946H443.085M400.933 682.099V724.251M400.933 682.099H443.085M400.933 724.251H443.085M443.085 -118.798V-76.6454M443.085 -118.798H485.238M443.085 -76.6454V-34.4929M443.085 -76.6454H485.238M443.085 -34.4929V7.65951M443.085 -34.4929H485.238M443.085 7.65951V49.812M443.085 7.65951H485.238M443.085 49.812V91.9644M443.085 49.812H485.238M443.085 91.9644V134.117M443.085 91.9644H485.238M443.085 134.117V176.269M443.085 134.117H485.238M443.085 176.269V218.422M443.085 176.269H485.238M443.085 218.422V260.574M443.085 218.422H485.238M443.085 260.574V302.727M443.085 260.574H485.238M443.085 302.727V344.879M443.085 302.727H485.238M443.085 344.879V387.032M443.085 344.879H485.238M443.085 387.032V429.184M443.085 387.032H485.238M443.085 429.184V471.336M443.085 429.184H485.238M443.085 471.336V513.489M443.085 471.336H485.238M443.085 513.489V555.641M443.085 513.489H485.238M443.085 555.641V597.794M443.085 555.641H485.238M443.085 597.794V639.946M443.085 597.794H485.238M443.085 639.946V682.099M443.085 639.946H485.238M443.085 682.099V724.251M443.085 682.099H485.238M443.085 724.251H485.238M485.238 -118.798V-76.6454M485.238 -118.798H527.39M485.238 -76.6454V-34.4929M485.238 -76.6454H527.39M485.238 -34.4929V7.65951M485.238 -34.4929H527.39M485.238 7.65951V49.812M485.238 7.65951H527.39M485.238 49.812V91.9644M485.238 49.812H527.39M485.238 91.9644V134.117M485.238 91.9644H527.39M485.238 134.117V176.269M485.238 134.117H527.39M485.238 176.269V218.422M485.238 176.269H527.39M485.238 218.422V260.574M485.238 218.422H527.39M485.238 260.574V302.727M485.238 260.574H527.39M485.238 302.727V344.879M485.238 302.727H527.39M485.238 344.879V387.032M485.238 344.879H527.39M485.238 387.032V429.184M485.238 387.032H527.39M485.238 429.184V471.336M485.238 429.184H527.39M485.238 471.336V513.489M485.238 471.336H527.39M485.238 513.489V555.641M485.238 513.489H527.39M485.238 555.641V597.794M485.238 555.641H527.39M485.238 597.794V639.946M485.238 597.794H527.39M485.238 639.946V682.099M485.238 639.946H527.39M485.238 682.099V724.251M485.238 682.099H527.39M485.238 724.251H527.39M527.39 -118.798V-76.6454M527.39 -118.798H569.543M527.39 -76.6454V-34.4929M527.39 -76.6454H569.543M527.39 -34.4929V7.65951M527.39 -34.4929H569.543M527.39 7.65951V49.812M527.39 7.65951H569.543M527.39 49.812V91.9644M527.39 49.812H569.543M527.39 91.9644V134.117M527.39 91.9644H569.543M527.39 134.117V176.269M527.39 134.117H569.543M527.39 176.269V218.422M527.39 176.269H569.543M527.39 218.422V260.574M527.39 218.422H569.543M527.39 260.574V302.727M527.39 260.574H569.543M527.39 302.727V344.879M527.39 302.727H569.543M527.39 344.879V387.032M527.39 344.879H569.543M527.39 387.032V429.184M527.39 387.032H569.543M527.39 429.184V471.336M527.39 429.184H569.543M527.39 471.336V513.489M527.39 471.336H569.543M527.39 513.489V555.641M527.39 513.489H569.543M527.39 555.641V597.794M527.39 555.641H569.543M527.39 597.794V639.946M527.39 597.794H569.543M527.39 639.946V682.099M527.39 639.946H569.543M527.39 682.099V724.251M527.39 682.099H569.543M527.39 724.251H569.543M569.543 -118.798V-76.6454M569.543 -118.798H611.695M569.543 -76.6454V-34.4929M569.543 -76.6454H611.695M569.543 -34.4929V7.65951M569.543 -34.4929H611.695M569.543 7.65951V49.812M569.543 7.65951H611.695M569.543 49.812V91.9644M569.543 49.812H611.695M569.543 91.9644V134.117M569.543 91.9644H611.695M569.543 134.117V176.269M569.543 134.117H611.695M569.543 176.269V218.422M569.543 176.269H611.695M569.543 218.422V260.574M569.543 218.422H611.695M569.543 260.574V302.727M569.543 260.574H611.695M569.543 302.727V344.879M569.543 302.727H611.695M569.543 344.879V387.032M569.543 344.879H611.695M569.543 387.032V429.184M569.543 387.032H611.695M569.543 429.184V471.336M569.543 429.184H611.695M569.543 471.336V513.489M569.543 471.336H611.695M569.543 513.489V555.641M569.543 513.489H611.695M569.543 555.641V597.794M569.543 555.641H611.695M569.543 597.794V639.946M569.543 597.794H611.695M569.543 639.946V682.099M569.543 639.946H611.695M569.543 682.099V724.251M569.543 682.099H611.695M569.543 724.251H611.695M611.695 -118.798V-76.6454M611.695 -118.798H653.848M611.695 -76.6454V-34.4929M611.695 -76.6454H653.848M611.695 -34.4929V7.65951M611.695 -34.4929H653.848M611.695 7.65951V49.812M611.695 7.65951H653.848M611.695 49.812V91.9644M611.695 49.812H653.848M611.695 91.9644V134.117M611.695 91.9644H653.848M611.695 134.117V176.269M611.695 134.117H653.848M611.695 176.269V218.422M611.695 176.269H653.848M611.695 218.422V260.574M611.695 218.422H653.848M611.695 260.574V302.727M611.695 260.574H653.848M611.695 302.727V344.879M611.695 302.727H653.848M611.695 344.879V387.032M611.695 344.879H653.848M611.695 387.032V429.184M611.695 387.032H653.848M611.695 429.184V471.336M611.695 429.184H653.848M611.695 471.336V513.489M611.695 471.336H653.848M611.695 513.489V555.641M611.695 513.489H653.848M611.695 555.641V597.794M611.695 555.641H653.848M611.695 597.794V639.946M611.695 597.794H653.848M611.695 639.946V682.099M611.695 639.946H653.848M611.695 682.099V724.251M611.695 682.099H653.848M611.695 724.251H653.848M653.848 -118.798V-76.6454M653.848 -118.798H696M653.848 -76.6454V-34.4929M653.848 -76.6454H696M653.848 -34.4929V7.65951M653.848 -34.4929H696M653.848 7.65951V49.812M653.848 7.65951H696M653.848 49.812V91.9644M653.848 49.812H696M653.848 91.9644V134.117M653.848 91.9644H696M653.848 134.117V176.269M653.848 134.117H696M653.848 176.269V218.422M653.848 176.269H696M653.848 218.422V260.574M653.848 218.422H696M653.848 260.574V302.727M653.848 260.574H696M653.848 302.727V344.879M653.848 302.727H696M653.848 344.879V387.032M653.848 344.879H696M653.848 387.032V429.184M653.848 387.032H696M653.848 429.184V471.336M653.848 429.184H696M653.848 471.336V513.489M653.848 471.336H696M653.848 513.489V555.641M653.848 513.489H696M653.848 555.641V597.794M653.848 555.641H696M653.848 597.794V639.946M653.848 597.794H696M653.848 639.946V682.099M653.848 639.946H696M653.848 682.099V724.251M653.848 682.099H696M653.848 724.251H696M696 -118.798V-76.6454M696 -118.798H738.153M696 -76.6454V-34.4929M696 -76.6454H738.153M696 -34.4929V7.65951M696 -34.4929H738.153M696 7.65951V49.812M696 7.65951H738.153M696 49.812V91.9644M696 49.812H738.153M696 91.9644V134.117M696 91.9644H738.153M696 134.117V176.269M696 134.117H738.153M696 176.269V218.422M696 176.269H738.153M696 218.422V260.574M696 218.422H738.153M696 260.574V302.727M696 260.574H738.153M696 302.727V344.879M696 302.727H738.153M696 344.879V387.032M696 344.879H738.153M696 387.032V429.184M696 387.032H738.153M696 429.184V471.336M696 429.184H738.153M696 471.336V513.489M696 471.336H738.153M696 513.489V555.641M696 513.489H738.153M696 555.641V597.794M696 555.641H738.153M696 597.794V639.946M696 597.794H738.153M696 639.946V682.099M696 639.946H738.153M696 682.099V724.251M696 682.099H738.153M696 724.251H738.153M738.153 -118.798V-76.6454M738.153 -118.798H780.305M738.153 -76.6454V-34.4929M738.153 -76.6454H780.305M738.153 -34.4929V7.65951M738.153 -34.4929H780.305M738.153 7.65951V49.812M738.153 7.65951H780.305M738.153 49.812V91.9644M738.153 49.812H780.305M738.153 91.9644V134.117M738.153 91.9644H780.305M738.153 134.117V176.269M738.153 134.117H780.305M738.153 176.269V218.422M738.153 176.269H780.305M738.153 218.422V260.574M738.153 218.422H780.305M738.153 260.574V302.727M738.153 260.574H780.305M738.153 302.727V344.879M738.153 302.727H780.305M738.153 344.879V387.032M738.153 344.879H780.305M738.153 387.032V429.184M738.153 387.032H780.305M738.153 429.184V471.336M738.153 429.184H780.305M738.153 471.336V513.489M738.153 471.336H780.305M738.153 513.489V555.641M738.153 513.489H780.305M738.153 555.641V597.794M738.153 555.641H780.305M738.153 597.794V639.946M738.153 597.794H780.305M738.153 639.946V682.099M738.153 639.946H780.305M738.153 682.099V724.251M738.153 682.099H780.305M738.153 724.251H780.305M780.305 -118.798V-76.6454M780.305 -118.798H822.457M780.305 -76.6454V-34.4929M780.305 -76.6454H822.457M780.305 -34.4929V7.65951M780.305 -34.4929H822.457M780.305 7.65951V49.812M780.305 7.65951H822.457M780.305 49.812V91.9644M780.305 49.812H822.457M780.305 91.9644V134.117M780.305 91.9644H822.457M780.305 134.117V176.269M780.305 134.117H822.457M780.305 176.269V218.422M780.305 176.269H822.457M780.305 218.422V260.574M780.305 218.422H822.457M780.305 260.574V302.727M780.305 260.574H822.457M780.305 302.727V344.879M780.305 302.727H822.457M780.305 344.879V387.032M780.305 344.879H822.457M780.305 387.032V429.184M780.305 387.032H822.457M780.305 429.184V471.336M780.305 429.184H822.457M780.305 471.336V513.489M780.305 471.336H822.457M780.305 513.489V555.641M780.305 513.489H822.457M780.305 555.641V597.794M780.305 555.641H822.457M780.305 597.794V639.946M780.305 597.794H822.457M780.305 639.946V682.099M780.305 639.946H822.457M780.305 682.099V724.251M780.305 682.099H822.457M780.305 724.251H822.457M822.457 -118.798V-76.6454M822.457 -118.798H864.61M822.457 -76.6454V-34.4929M822.457 -76.6454H864.61M822.457 -34.4929V7.65951M822.457 -34.4929H864.61M822.457 7.65951V49.812M822.457 7.65951H864.61M822.457 49.812V91.9644M822.457 49.812H864.61M822.457 91.9644V134.117M822.457 91.9644H864.61M822.457 134.117V176.269M822.457 134.117H864.61M822.457 176.269V218.422M822.457 176.269H864.61M822.457 218.422V260.574M822.457 218.422H864.61M822.457 260.574V302.727M822.457 260.574H864.61M822.457 302.727V344.879M822.457 302.727H864.61M822.457 344.879V387.032M822.457 344.879H864.61M822.457 387.032V429.184M822.457 387.032H864.61M822.457 429.184V471.336M822.457 429.184H864.61M822.457 471.336V513.489M822.457 471.336H864.61M822.457 513.489V555.641M822.457 513.489H864.61M822.457 555.641V597.794M822.457 555.641H864.61M822.457 597.794V639.946M822.457 597.794H864.61M822.457 639.946V682.099M822.457 639.946H864.61M822.457 682.099V724.251M822.457 682.099H864.61M822.457 724.251H864.61M864.61 -118.798V-76.6454M864.61 -118.798H906.762M864.61 -76.6454V-34.4929M864.61 -76.6454H906.762M864.61 -34.4929V7.65951M864.61 -34.4929H906.762M864.61 7.65951V49.812M864.61 7.65951H906.762M864.61 49.812V91.9644M864.61 49.812H906.762M864.61 91.9644V134.117M864.61 91.9644H906.762M864.61 134.117V176.269M864.61 134.117H906.762M864.61 176.269V218.422M864.61 176.269H906.762M864.61 218.422V260.574M864.61 218.422H906.762M864.61 260.574V302.727M864.61 260.574H906.762M864.61 302.727V344.879M864.61 302.727H906.762M864.61 344.879V387.032M864.61 344.879H906.762M864.61 387.032V429.184M864.61 387.032H906.762M864.61 429.184V471.336M864.61 429.184H906.762M864.61 471.336V513.489M864.61 471.336H906.762M864.61 513.489V555.641M864.61 513.489H906.762M864.61 555.641V597.794M864.61 555.641H906.762M864.61 597.794V639.946M864.61 597.794H906.762M864.61 639.946V682.099M864.61 639.946H906.762M864.61 682.099V724.251M864.61 682.099H906.762M864.61 724.251H906.762M906.762 -118.798V-76.6454M906.762 -118.798H948.915M906.762 -76.6454V-34.4929M906.762 -76.6454H948.915M906.762 -34.4929V7.65951M906.762 -34.4929H948.915M906.762 7.65951V49.812M906.762 7.65951H948.915M906.762 49.812V91.9644M906.762 49.812H948.915M906.762 91.9644V134.117M906.762 91.9644H948.915M906.762 134.117V176.269M906.762 134.117H948.915M906.762 176.269V218.422M906.762 176.269H948.915M906.762 218.422V260.574M906.762 218.422H948.915M906.762 260.574V302.727M906.762 260.574H948.915M906.762 302.727V344.879M906.762 302.727H948.915M906.762 344.879V387.032M906.762 344.879H948.915M906.762 387.032V429.184M906.762 387.032H948.915M906.762 429.184V471.336M906.762 429.184H948.915M906.762 471.336V513.489M906.762 471.336H948.915M906.762 513.489V555.641M906.762 513.489H948.915M906.762 555.641V597.794M906.762 555.641H948.915M906.762 597.794V639.946M906.762 597.794H948.915M906.762 639.946V682.099M906.762 639.946H948.915M906.762 682.099V724.251M906.762 682.099H948.915M906.762 724.251H948.915M948.915 -118.798V-76.6454M948.915 -118.798H991.067M948.915 -76.6454V-34.4929M948.915 -76.6454H991.067M948.915 -34.4929V7.65951M948.915 -34.4929H991.067M948.915 7.65951V49.812M948.915 7.65951H991.067M948.915 49.812V91.9644M948.915 49.812H991.067M948.915 91.9644V134.117M948.915 91.9644H991.067M948.915 134.117V176.269M948.915 134.117H991.067M948.915 176.269V218.422M948.915 176.269H991.067M948.915 218.422V260.574M948.915 218.422H991.067M948.915 260.574V302.727M948.915 260.574H991.067M948.915 302.727V344.879M948.915 302.727H991.067M948.915 344.879V387.032M948.915 344.879H991.067M948.915 387.032V429.184M948.915 387.032H991.067M948.915 429.184V471.336M948.915 429.184H991.067M948.915 471.336V513.489M948.915 471.336H991.067M948.915 513.489V555.641M948.915 513.489H991.067M948.915 555.641V597.794M948.915 555.641H991.067M948.915 597.794V639.946M948.915 597.794H991.067M948.915 639.946V682.099M948.915 639.946H991.067M948.915 682.099V724.251M948.915 682.099H991.067M948.915 724.251H991.067M991.067 -118.798V-76.6454M991.067 -118.798H1033.22M991.067 -76.6454V-34.4929M991.067 -76.6454H1033.22M991.067 -34.4929V7.65951M991.067 -34.4929H1033.22M991.067 7.65951V49.812M991.067 7.65951H1033.22M991.067 49.812V91.9644M991.067 49.812H1033.22M991.067 91.9644V134.117M991.067 91.9644H1033.22M991.067 134.117V176.269M991.067 134.117H1033.22M991.067 176.269V218.422M991.067 176.269H1033.22M991.067 218.422V260.574M991.067 218.422H1033.22M991.067 260.574V302.727M991.067 260.574H1033.22M991.067 302.727V344.879M991.067 302.727H1033.22M991.067 344.879V387.032M991.067 344.879H1033.22M991.067 387.032V429.184M991.067 387.032H1033.22M991.067 429.184V471.336M991.067 429.184H1033.22M991.067 471.336V513.489M991.067 471.336H1033.22M991.067 513.489V555.641M991.067 513.489H1033.22M991.067 555.641V597.794M991.067 555.641H1033.22M991.067 597.794V639.946M991.067 597.794H1033.22M991.067 639.946V682.099M991.067 639.946H1033.22M991.067 682.099V724.251M991.067 682.099H1033.22M991.067 724.251H1033.22M1033.22 -118.798V-76.6454M1033.22 -118.798H1075.37M1033.22 -76.6454V-34.4929M1033.22 -76.6454H1075.37M1033.22 -34.4929V7.65951M1033.22 -34.4929H1075.37M1033.22 7.65951V49.812M1033.22 7.65951H1075.37M1033.22 49.812V91.9644M1033.22 49.812H1075.37M1033.22 91.9644V134.117M1033.22 91.9644H1075.37M1033.22 134.117V176.269M1033.22 134.117H1075.37M1033.22 176.269V218.422M1033.22 176.269H1075.37M1033.22 218.422V260.574M1033.22 218.422H1075.37M1033.22 260.574V302.727M1033.22 260.574H1075.37M1033.22 302.727V344.879M1033.22 302.727H1075.37M1033.22 344.879V387.032M1033.22 344.879H1075.37M1033.22 387.032V429.184M1033.22 387.032H1075.37M1033.22 429.184V471.336M1033.22 429.184H1075.37M1033.22 471.336V513.489M1033.22 471.336H1075.37M1033.22 513.489V555.641M1033.22 513.489H1075.37M1033.22 555.641V597.794M1033.22 555.641H1075.37M1033.22 597.794V639.946M1033.22 597.794H1075.37M1033.22 639.946V682.099M1033.22 639.946H1075.37M1033.22 682.099V724.251M1033.22 682.099H1075.37M1033.22 724.251H1075.37M1075.37 -118.798V-76.6454M1075.37 -118.798H1117.52M1075.37 -76.6454V-34.4929M1075.37 -76.6454H1117.52M1075.37 -34.4929V7.65951M1075.37 -34.4929H1117.52M1075.37 7.65951V49.812M1075.37 7.65951H1117.52M1075.37 49.812V91.9644M1075.37 49.812H1117.52M1075.37 91.9644V134.117M1075.37 91.9644H1117.52M1075.37 134.117V176.269M1075.37 134.117H1117.52M1075.37 176.269V218.422M1075.37 176.269H1117.52M1075.37 218.422V260.574M1075.37 218.422H1117.52M1075.37 260.574V302.727M1075.37 260.574H1117.52M1075.37 302.727V344.879M1075.37 302.727H1117.52M1075.37 344.879V387.032M1075.37 344.879H1117.52M1075.37 387.032V429.184M1075.37 387.032H1117.52M1075.37 429.184V471.336M1075.37 429.184H1117.52M1075.37 471.336V513.489M1075.37 471.336H1117.52M1075.37 513.489V555.641M1075.37 513.489H1117.52M1075.37 555.641V597.794M1075.37 555.641H1117.52M1075.37 597.794V639.946M1075.37 597.794H1117.52M1075.37 639.946V682.099M1075.37 639.946H1117.52M1075.37 682.099V724.251M1075.37 682.099H1117.52M1075.37 724.251H1117.52M1117.52 -118.798V-76.6454M1117.52 -118.798H1159.68M1117.52 -76.6454V-34.4929M1117.52 -76.6454H1159.68M1117.52 -34.4929V7.65951M1117.52 -34.4929H1159.68M1117.52 7.65951V49.812M1117.52 7.65951H1159.68M1117.52 49.812V91.9644M1117.52 49.812H1159.68M1117.52 91.9644V134.117M1117.52 91.9644H1159.68M1117.52 134.117V176.269M1117.52 134.117H1159.68M1117.52 176.269V218.422M1117.52 176.269H1159.68M1117.52 218.422V260.574M1117.52 218.422H1159.68M1117.52 260.574V302.727M1117.52 260.574H1159.68M1117.52 302.727V344.879M1117.52 302.727H1159.68M1117.52 344.879V387.032M1117.52 344.879H1159.68M1117.52 387.032V429.184M1117.52 387.032H1159.68M1117.52 429.184V471.336M1117.52 429.184H1159.68M1117.52 471.336V513.489M1117.52 471.336H1159.68M1117.52 513.489V555.641M1117.52 513.489H1159.68M1117.52 555.641V597.794M1117.52 555.641H1159.68M1117.52 597.794V639.946M1117.52 597.794H1159.68M1117.52 639.946V682.099M1117.52 639.946H1159.68M1117.52 682.099V724.251M1117.52 682.099H1159.68M1117.52 724.251H1159.68M1159.68 -118.798V-76.6454M1159.68 -118.798H1201.83M1159.68 -76.6454V-34.4929M1159.68 -76.6454H1201.83M1159.68 -34.4929V7.65951M1159.68 -34.4929H1201.83M1159.68 7.65951V49.812M1159.68 7.65951H1201.83M1159.68 49.812V91.9644M1159.68 49.812H1201.83M1159.68 91.9644V134.117M1159.68 91.9644H1201.83M1159.68 134.117V176.269M1159.68 134.117H1201.83M1159.68 176.269V218.422M1159.68 176.269H1201.83M1159.68 218.422V260.574M1159.68 218.422H1201.83M1159.68 260.574V302.727M1159.68 260.574H1201.83M1159.68 302.727V344.879M1159.68 302.727H1201.83M1159.68 344.879V387.032M1159.68 344.879H1201.83M1159.68 387.032V429.184M1159.68 387.032H1201.83M1159.68 429.184V471.336M1159.68 429.184H1201.83M1159.68 471.336V513.489M1159.68 471.336H1201.83M1159.68 513.489V555.641M1159.68 513.489H1201.83M1159.68 555.641V597.794M1159.68 555.641H1201.83M1159.68 597.794V639.946M1159.68 597.794H1201.83M1159.68 639.946V682.099M1159.68 639.946H1201.83M1159.68 682.099V724.251M1159.68 682.099H1201.83M1159.68 724.251H1201.83M1201.83 -118.798V-76.6454M1201.83 -118.798H1243.98M1201.83 -76.6454V-34.4929M1201.83 -76.6454H1243.98M1201.83 -34.4929V7.65951M1201.83 -34.4929H1243.98M1201.83 7.65951V49.812M1201.83 7.65951H1243.98M1201.83 49.812V91.9644M1201.83 49.812H1243.98M1201.83 91.9644V134.117M1201.83 91.9644H1243.98M1201.83 134.117V176.269M1201.83 134.117H1243.98M1201.83 176.269V218.422M1201.83 176.269H1243.98M1201.83 218.422V260.574M1201.83 218.422H1243.98M1201.83 260.574V302.727M1201.83 260.574H1243.98M1201.83 302.727V344.879M1201.83 302.727H1243.98M1201.83 344.879V387.032M1201.83 344.879H1243.98M1201.83 387.032V429.184M1201.83 387.032H1243.98M1201.83 429.184V471.336M1201.83 429.184H1243.98M1201.83 471.336V513.489M1201.83 471.336H1243.98M1201.83 513.489V555.641M1201.83 513.489H1243.98M1201.83 555.641V597.794M1201.83 555.641H1243.98M1201.83 597.794V639.946M1201.83 597.794H1243.98M1201.83 639.946V682.099M1201.83 639.946H1243.98M1201.83 682.099V724.251M1201.83 682.099H1243.98M1201.83 724.251H1243.98M1243.98 -118.798V-76.6454M1243.98 -118.798H1286.13M1243.98 -76.6454V-34.4929M1243.98 -76.6454H1286.13M1243.98 -34.4929V7.65951M1243.98 -34.4929H1286.13M1243.98 7.65951V49.812M1243.98 7.65951H1286.13M1243.98 49.812V91.9644M1243.98 49.812H1286.13M1243.98 91.9644V134.117M1243.98 91.9644H1286.13M1243.98 134.117V176.269M1243.98 134.117H1286.13M1243.98 176.269V218.422M1243.98 176.269H1286.13M1243.98 218.422V260.574M1243.98 218.422H1286.13M1243.98 260.574V302.727M1243.98 260.574H1286.13M1243.98 302.727V344.879M1243.98 302.727H1286.13M1243.98 344.879V387.032M1243.98 344.879H1286.13M1243.98 387.032V429.184M1243.98 387.032H1286.13M1243.98 429.184V471.336M1243.98 429.184H1286.13M1243.98 471.336V513.489M1243.98 471.336H1286.13M1243.98 513.489V555.641M1243.98 513.489H1286.13M1243.98 555.641V597.794M1243.98 555.641H1286.13M1243.98 597.794V639.946M1243.98 597.794H1286.13M1243.98 639.946V682.099M1243.98 639.946H1286.13M1243.98 682.099V724.251M1243.98 682.099H1286.13M1243.98 724.251H1286.13M1286.13 -118.798V-76.6454M1286.13 -118.798H1328.29M1286.13 -76.6454V-34.4929M1286.13 -76.6454H1328.29M1286.13 -34.4929V7.65951M1286.13 -34.4929H1328.29M1286.13 7.65951V49.812M1286.13 7.65951H1328.29M1286.13 49.812V91.9644M1286.13 49.812H1328.29M1286.13 91.9644V134.117M1286.13 91.9644H1328.29M1286.13 134.117V176.269M1286.13 134.117H1328.29M1286.13 176.269V218.422M1286.13 176.269H1328.29M1286.13 218.422V260.574M1286.13 218.422H1328.29M1286.13 260.574V302.727M1286.13 260.574H1328.29M1286.13 302.727V344.879M1286.13 302.727H1328.29M1286.13 344.879V387.032M1286.13 344.879H1328.29M1286.13 387.032V429.184M1286.13 387.032H1328.29M1286.13 429.184V471.336M1286.13 429.184H1328.29M1286.13 471.336V513.489M1286.13 471.336H1328.29M1286.13 513.489V555.641M1286.13 513.489H1328.29M1286.13 555.641V597.794M1286.13 555.641H1328.29M1286.13 597.794V639.946M1286.13 597.794H1328.29M1286.13 639.946V682.099M1286.13 639.946H1328.29M1286.13 682.099V724.251M1286.13 682.099H1328.29M1286.13 724.251H1328.29M1328.29 -118.798V-76.6454M1328.29 -118.798H1370.44M1328.29 -76.6454V-34.4929M1328.29 -76.6454H1370.44M1328.29 -34.4929V7.65951M1328.29 -34.4929H1370.44M1328.29 7.65951V49.812M1328.29 7.65951H1370.44M1328.29 49.812V91.9644M1328.29 49.812H1370.44M1328.29 91.9644V134.117M1328.29 91.9644H1370.44M1328.29 134.117V176.269M1328.29 134.117H1370.44M1328.29 176.269V218.422M1328.29 176.269H1370.44M1328.29 218.422V260.574M1328.29 218.422H1370.44M1328.29 260.574V302.727M1328.29 260.574H1370.44M1328.29 302.727V344.879M1328.29 302.727H1370.44M1328.29 344.879V387.032M1328.29 344.879H1370.44M1328.29 387.032V429.184M1328.29 387.032H1370.44M1328.29 429.184V471.336M1328.29 429.184H1370.44M1328.29 471.336V513.489M1328.29 471.336H1370.44M1328.29 513.489V555.641M1328.29 513.489H1370.44M1328.29 555.641V597.794M1328.29 555.641H1370.44M1328.29 597.794V639.946M1328.29 597.794H1370.44M1328.29 639.946V682.099M1328.29 639.946H1370.44M1328.29 682.099V724.251M1328.29 682.099H1370.44M1328.29 724.251H1370.44M1370.44 -118.798V-76.6454M1370.44 -118.798H1412.59M1370.44 -76.6454V-34.4929M1370.44 -76.6454H1412.59M1370.44 -34.4929V7.65951M1370.44 -34.4929H1412.59M1370.44 7.65951V49.812M1370.44 7.65951H1412.59M1370.44 49.812V91.9644M1370.44 49.812H1412.59M1370.44 91.9644V134.117M1370.44 91.9644H1412.59M1370.44 134.117V176.269M1370.44 134.117H1412.59M1370.44 176.269V218.422M1370.44 176.269H1412.59M1370.44 218.422V260.574M1370.44 218.422H1412.59M1370.44 260.574V302.727M1370.44 260.574H1412.59M1370.44 302.727V344.879M1370.44 302.727H1412.59M1370.44 344.879V387.032M1370.44 344.879H1412.59M1370.44 387.032V429.184M1370.44 387.032H1412.59M1370.44 429.184V471.336M1370.44 429.184H1412.59M1370.44 471.336V513.489M1370.44 471.336H1412.59M1370.44 513.489V555.641M1370.44 513.489H1412.59M1370.44 555.641V597.794M1370.44 555.641H1412.59M1370.44 597.794V639.946M1370.44 597.794H1412.59M1370.44 639.946V682.099M1370.44 639.946H1412.59M1370.44 682.099V724.251M1370.44 682.099H1412.59M1370.44 724.251H1412.59M1412.59 -118.798V-76.6454M1412.59 -118.798H1454.74M1412.59 -76.6454V-34.4929M1412.59 -76.6454H1454.74M1412.59 -34.4929V7.65951M1412.59 -34.4929H1454.74M1412.59 7.65951V49.812M1412.59 7.65951H1454.74M1412.59 49.812V91.9644M1412.59 49.812H1454.74M1412.59 91.9644V134.117M1412.59 91.9644H1454.74M1412.59 134.117V176.269M1412.59 134.117H1454.74M1412.59 176.269V218.422M1412.59 176.269H1454.74M1412.59 218.422V260.574M1412.59 218.422H1454.74M1412.59 260.574V302.727M1412.59 260.574H1454.74M1412.59 302.727V344.879M1412.59 302.727H1454.74M1412.59 344.879V387.032M1412.59 344.879H1454.74M1412.59 387.032V429.184M1412.59 387.032H1454.74M1412.59 429.184V471.336M1412.59 429.184H1454.74M1412.59 471.336V513.489M1412.59 471.336H1454.74M1412.59 513.489V555.641M1412.59 513.489H1454.74M1412.59 555.641V597.794M1412.59 555.641H1454.74M1412.59 597.794V639.946M1412.59 597.794H1454.74M1412.59 639.946V682.099M1412.59 639.946H1454.74M1412.59 682.099V724.251M1412.59 682.099H1454.74M1412.59 724.251H1454.74M1454.74 -118.798V-76.6454M1454.74 -118.798H1496.9M1454.74 -76.6454V-34.4929M1454.74 -76.6454H1496.9M1454.74 -34.4929V7.65951M1454.74 -34.4929H1496.9M1454.74 7.65951V49.812M1454.74 7.65951H1496.9M1454.74 49.812V91.9644M1454.74 49.812H1496.9M1454.74 91.9644V134.117M1454.74 91.9644H1496.9M1454.74 134.117V176.269M1454.74 134.117H1496.9M1454.74 176.269V218.422M1454.74 176.269H1496.9M1454.74 218.422V260.574M1454.74 218.422H1496.9M1454.74 260.574V302.727M1454.74 260.574H1496.9M1454.74 302.727V344.879M1454.74 302.727H1496.9M1454.74 344.879V387.032M1454.74 344.879H1496.9M1454.74 387.032V429.184M1454.74 387.032H1496.9M1454.74 429.184V471.336M1454.74 429.184H1496.9M1454.74 471.336V513.489M1454.74 471.336H1496.9M1454.74 513.489V555.641M1454.74 513.489H1496.9M1454.74 555.641V597.794M1454.74 555.641H1496.9M1454.74 597.794V639.946M1454.74 597.794H1496.9M1454.74 639.946V682.099M1454.74 639.946H1496.9M1454.74 682.099V724.251M1454.74 682.099H1496.9M1454.74 724.251H1496.9M1496.9 -118.798V-76.6454M1496.9 -118.798H1539.05M1496.9 -76.6454V-34.4929M1496.9 -76.6454H1539.05M1496.9 -34.4929V7.65951M1496.9 -34.4929H1539.05M1496.9 7.65951V49.812M1496.9 7.65951H1539.05M1496.9 49.812V91.9644M1496.9 49.812H1539.05M1496.9 91.9644V134.117M1496.9 91.9644H1539.05M1496.9 134.117V176.269M1496.9 134.117H1539.05M1496.9 176.269V218.422M1496.9 176.269H1539.05M1496.9 218.422V260.574M1496.9 218.422H1539.05M1496.9 260.574V302.727M1496.9 260.574H1539.05M1496.9 302.727V344.879M1496.9 302.727H1539.05M1496.9 344.879V387.032M1496.9 344.879H1539.05M1496.9 387.032V429.184M1496.9 387.032H1539.05M1496.9 429.184V471.336M1496.9 429.184H1539.05M1496.9 471.336V513.489M1496.9 471.336H1539.05M1496.9 513.489V555.641M1496.9 513.489H1539.05M1496.9 555.641V597.794M1496.9 555.641H1539.05M1496.9 597.794V639.946M1496.9 597.794H1539.05M1496.9 639.946V682.099M1496.9 639.946H1539.05M1496.9 682.099V724.251M1496.9 682.099H1539.05M1496.9 724.251H1539.05M1539.05 -118.798V-76.6454M1539.05 -118.798H1581.2M1539.05 -76.6454V-34.4929M1539.05 -76.6454H1581.2M1539.05 -34.4929V7.65951M1539.05 -34.4929H1581.2M1539.05 7.65951V49.812M1539.05 7.65951H1581.2M1539.05 49.812V91.9644M1539.05 49.812H1581.2M1539.05 91.9644V134.117M1539.05 91.9644H1581.2M1539.05 134.117V176.269M1539.05 134.117H1581.2M1539.05 176.269V218.422M1539.05 176.269H1581.2M1539.05 218.422V260.574M1539.05 218.422H1581.2M1539.05 260.574V302.727M1539.05 260.574H1581.2M1539.05 302.727V344.879M1539.05 302.727H1581.2M1539.05 344.879V387.032M1539.05 344.879H1581.2M1539.05 387.032V429.184M1539.05 387.032H1581.2M1539.05 429.184V471.336M1539.05 429.184H1581.2M1539.05 471.336V513.489M1539.05 471.336H1581.2M1539.05 513.489V555.641M1539.05 513.489H1581.2M1539.05 555.641V597.794M1539.05 555.641H1581.2M1539.05 597.794V639.946M1539.05 597.794H1581.2M1539.05 639.946V682.099M1539.05 639.946H1581.2M1539.05 682.099V724.251M1539.05 682.099H1581.2M1539.05 724.251H1581.2M1581.2 -118.798V-76.6454M1581.2 -118.798H1623.35V-76.6454M1581.2 -76.6454V-34.4929M1581.2 -76.6454H1623.35M1581.2 -34.4929V7.65951M1581.2 -34.4929H1623.35M1581.2 7.65951V49.812M1581.2 7.65951H1623.35M1581.2 49.812V91.9644M1581.2 49.812H1623.35M1581.2 91.9644V134.117M1581.2 91.9644H1623.35M1581.2 134.117V176.269M1581.2 134.117H1623.35M1581.2 176.269V218.422M1581.2 176.269H1623.35M1581.2 218.422V260.574M1581.2 218.422H1623.35M1581.2 260.574V302.727M1581.2 260.574H1623.35M1581.2 302.727V344.879M1581.2 302.727H1623.35M1581.2 344.879V387.032M1581.2 344.879H1623.35M1581.2 387.032V429.184M1581.2 387.032H1623.35M1581.2 429.184V471.336M1581.2 429.184H1623.35M1581.2 471.336V513.489M1581.2 471.336H1623.35M1581.2 513.489V555.641M1581.2 513.489H1623.35M1581.2 555.641V597.794M1581.2 555.641H1623.35M1581.2 597.794V639.946M1581.2 597.794H1623.35M1581.2 639.946V682.099M1581.2 639.946H1623.35M1581.2 682.099V724.251M1581.2 682.099H1623.35M1581.2 724.251H1623.35V682.099M1623.35 -76.6454V-34.4929M1623.35 -34.4929V7.65951M1623.35 7.65951V49.812M1623.35 49.812V91.9644M1623.35 91.9644V134.117M1623.35 134.117V176.269M1623.35 176.269V218.422M1623.35 218.422V260.574M1623.35 260.574V302.727M1623.35 302.727V344.879M1623.35 344.879V387.032M1623.35 387.032V429.184M1623.35 429.184V471.336M1623.35 471.336V513.489M1623.35 513.489V555.641M1623.35 555.641V597.794M1623.35 597.794V639.946M1623.35 639.946V682.099" stroke="url(#paint1_radial_22_196)" stroke-width="0.805493"/>
</g>
<g style="mix-blend-mode:soft-light" opacity="0.5">
<path d="M-62.744 37.1661V49.8119M-62.744 49.8119V62.4576M-62.744 49.8119H-75.3898M-62.744 49.8119H-50.0983M-62.744 374.386V387.032M-62.744 387.032V399.677M-62.744 387.032H-75.3898M-62.744 387.032H-50.0983M-62.744 711.605V724.251M-62.744 724.251V736.897M-62.744 724.251H-75.3898M-62.744 724.251H-50.0983M274.476 37.1661V49.8119M274.476 49.8119V62.4576M274.476 49.8119H261.83M274.476 49.8119H287.121M274.476 374.386V387.032M274.476 387.032V399.677M274.476 387.032H261.83M274.476 387.032H287.121M274.476 711.605V724.251M274.476 724.251V736.897M274.476 724.251H261.83M274.476 724.251H287.121M611.695 37.1661V49.8119M611.695 49.8119V62.4576M611.695 49.8119H599.05M611.695 49.8119H624.341M611.695 374.386V387.032M611.695 387.032V399.677M611.695 387.032H599.05M611.695 387.032H624.341M611.695 711.605V724.251M611.695 724.251V736.897M611.695 724.251H599.05M611.695 724.251H624.341M948.915 37.1661V49.8119M948.915 49.8119V62.4576M948.915 49.8119H936.269M948.915 49.8119H961.561M948.915 374.386V387.032M948.915 387.032V399.677M948.915 387.032H936.269M948.915 387.032H961.561M948.915 711.605V724.251M948.915 724.251V736.897M948.915 724.251H936.269M948.915 724.251H961.561M1286.13 37.1661V49.8119M1286.13 49.8119V62.4576M1286.13 49.8119H1273.49M1286.13 49.8119H1298.78M1286.13 374.386V387.032M1286.13 387.032V399.677M1286.13 387.032H1273.49M1286.13 387.032H1298.78M1286.13 711.605V724.251M1286.13 724.251V736.897M1286.13 724.251H1273.49M1286.13 724.251H1298.78M1623.35 37.1661V49.8119M1623.35 49.8119V62.4576M1623.35 49.8119H1610.71M1623.35 49.8119H1636M1623.35 374.386V387.032M1623.35 387.032V399.677M1623.35 387.032H1610.71M1623.35 387.032H1636M1623.35 711.605V724.251M1623.35 724.251V736.897M1623.35 724.251H1610.71M1623.35 724.251H1636M-62.744 -131.444V-118.798M-62.744 -118.798V-106.152M-62.744 -118.798H-75.3898M-62.744 -118.798H-50.0983M-62.744 205.776V218.422M-62.744 218.422V231.068M-62.744 218.422H-75.3898M-62.744 218.422H-50.0983M-62.744 542.996V555.641M-62.744 555.641V568.287M-62.744 555.641H-75.3898M-62.744 555.641H-50.0983M274.476 -131.444V-118.798M274.476 -118.798V-106.152M274.476 -118.798H261.83M274.476 -118.798H287.121M274.476 205.776V218.422M274.476 218.422V231.068M274.476 218.422H261.83M274.476 218.422H287.121M274.476 542.996V555.641M274.476 555.641V568.287M274.476 555.641H261.83M274.476 555.641H287.121M611.695 -131.444V-118.798M611.695 -118.798V-106.152M611.695 -118.798H599.05M611.695 -118.798H624.341M611.695 205.776V218.422M611.695 218.422V231.068M611.695 218.422H599.05M611.695 218.422H624.341M611.695 542.996V555.641M611.695 555.641V568.287M611.695 555.641H599.05M611.695 555.641H624.341M948.915 -131.444V-118.798M948.915 -118.798V-106.152M948.915 -118.798H936.269M948.915 -118.798H961.561M948.915 205.776V218.422M948.915 218.422V231.068M948.915 218.422H936.269M948.915 218.422H961.561M948.915 542.996V555.641M948.915 555.641V568.287M948.915 555.641H936.269M948.915 555.641H961.561M1286.13 -131.444V-118.798M1286.13 -118.798V-106.152M1286.13 -118.798H1273.49M1286.13 -118.798H1298.78M1286.13 205.776V218.422M1286.13 218.422V231.068M1286.13 218.422H1273.49M1286.13 218.422H1298.78M1286.13 542.996V555.641M1286.13 555.641V568.287M1286.13 555.641H1273.49M1286.13 555.641H1298.78M1623.35 -131.444V-118.798M1623.35 -118.798V-106.152M1623.35 -118.798H1610.71M1623.35 -118.798H1636M1623.35 205.776V218.422M1623.35 218.422V231.068M1623.35 218.422H1610.71M1623.35 218.422H1636M1623.35 542.996V555.641M1623.35 555.641V568.287M1623.35 555.641H1610.71M1623.35 555.641H1636M-231.354 37.1661V49.8119M-231.354 49.8119V62.4576M-231.354 49.8119H-244M-231.354 49.8119H-218.708M-231.354 374.386V387.032M-231.354 387.032V399.677M-231.354 387.032H-244M-231.354 387.032H-218.708M-231.354 711.605V724.251M-231.354 724.251V736.897M-231.354 724.251H-244M-231.354 724.251H-218.708M105.866 37.1661V49.8119M105.866 49.8119V62.4576M105.866 49.8119H93.2201M105.866 49.8119H118.512M105.866 374.386V387.032M105.866 387.032V399.677M105.866 387.032H93.2201M105.866 387.032H118.512M105.866 711.605V724.251M105.866 724.251V736.897M105.866 724.251H93.2201M105.866 724.251H118.512M443.085 37.1661V49.8119M443.085 49.8119V62.4576M443.085 49.8119H430.44M443.085 49.8119H455.731M443.085 374.386V387.032M443.085 387.032V399.677M443.085 387.032H430.44M443.085 387.032H455.731M443.085 711.605V724.251M443.085 724.251V736.897M443.085 724.251H430.44M443.085 724.251H455.731M780.305 37.1661V49.8119M780.305 49.8119V62.4576M780.305 49.8119H767.659M780.305 49.8119H792.951M780.305 374.386V387.032M780.305 387.032V399.677M780.305 387.032H767.659M780.305 387.032H792.951M780.305 711.605V724.251M780.305 724.251V736.897M780.305 724.251H767.659M780.305 724.251H792.951M1117.52 37.1661V49.8119M1117.52 49.8119V62.4576M1117.52 49.8119H1104.88M1117.52 49.8119H1130.17M1117.52 374.386V387.032M1117.52 387.032V399.677M1117.52 387.032H1104.88M1117.52 387.032H1130.17M1117.52 711.605V724.251M1117.52 724.251V736.897M1117.52 724.251H1104.88M1117.52 724.251H1130.17M1454.74 37.1661V49.8119M1454.74 49.8119V62.4576M1454.74 49.8119H1442.1M1454.74 49.8119H1467.39M1454.74 374.386V387.032M1454.74 387.032V399.677M1454.74 387.032H1442.1M1454.74 387.032H1467.39M1454.74 711.605V724.251M1454.74 724.251V736.897M1454.74 724.251H1442.1M1454.74 724.251H1467.39M-231.354 -131.444V-118.798M-231.354 -118.798V-106.152M-231.354 -118.798H-244M-231.354 -118.798H-218.708M-231.354 205.776V218.422M-231.354 218.422V231.068M-231.354 218.422H-244M-231.354 218.422H-218.708M-231.354 542.996V555.641M-231.354 555.641V568.287M-231.354 555.641H-244M-231.354 555.641H-218.708M105.866 -131.444V-118.798M105.866 -118.798V-106.152M105.866 -118.798H93.2201M105.866 -118.798H118.512M105.866 205.776V218.422M105.866 218.422V231.068M105.866 218.422H93.2201M105.866 218.422H118.512M105.866 542.996V555.641M105.866 555.641V568.287M105.866 555.641H93.2201M105.866 555.641H118.512M443.085 -131.444V-118.798M443.085 -118.798V-106.152M443.085 -118.798H430.44M443.085 -118.798H455.731M443.085 205.776V218.422M443.085 218.422V231.068M443.085 218.422H430.44M443.085 218.422H455.731M443.085 542.996V555.641M443.085 555.641V568.287M443.085 555.641H430.44M443.085 555.641H455.731M780.305 -131.444V-118.798M780.305 -118.798V-106.152M780.305 -118.798H767.659M780.305 -118.798H792.951M780.305 205.776V218.422M780.305 218.422V231.068M780.305 218.422H767.659M780.305 218.422H792.951M780.305 542.996V555.641M780.305 555.641V568.287M780.305 555.641H767.659M780.305 555.641H792.951M1117.52 -131.444V-118.798M1117.52 -118.798V-106.152M1117.52 -118.798H1104.88M1117.52 -118.798H1130.17M1117.52 205.776V218.422M1117.52 218.422V231.068M1117.52 218.422H1104.88M1117.52 218.422H1130.17M1117.52 542.996V555.641M1117.52 555.641V568.287M1117.52 555.641H1104.88M1117.52 555.641H1130.17M1454.74 -131.444V-118.798M1454.74 -118.798V-106.152M1454.74 -118.798H1442.1M1454.74 -118.798H1467.39M1454.74 205.776V218.422M1454.74 218.422V231.068M1454.74 218.422H1442.1M1454.74 218.422H1467.39M1454.74 542.996V555.641M1454.74 555.641V568.287M1454.74 555.641H1442.1M1454.74 555.641H1467.39" stroke="url(#paint2_radial_22_196)" stroke-width="1.61099"/>
</g>
</g>
</g>
<defs>
<linearGradient id="paint0_linear_22_196" x1="696" y1="-700.645" x2="696" y2="1511" gradientUnits="userSpaceOnUse">
<stop stop-color="#2E85D1"/>
<stop offset="0.5" stop-color="white" stop-opacity="0"/>
<stop offset="1" stop-color="#2E85D1" stop-opacity="0.25"/>
</linearGradient>
<radialGradient id="paint1_radial_22_196" cx="0" cy="0" r="1" gradientUnits="userSpaceOnUse" gradientTransform="translate(696 248) rotate(90) scale(591 1300.2)">
<stop stop-color="#10487A"/>
<stop offset="1" stop-color="#2E85D1" stop-opacity="0.1"/>
</radialGradient>
<radialGradient id="paint2_radial_22_196" cx="0" cy="0" r="1" gradientUnits="userSpaceOnUse" gradientTransform="translate(696 302.727) rotate(90) scale(434.17 940)">
<stop stop-color="#084173"/>
<stop offset="1" stop-color="#2E85D1" stop-opacity="0.1"/>
</radialGradient>
<clipPath id="clip0_22_196">
<rect width="1392" height="1511" rx="16" fill="white"/>
</clipPath>
</defs>
</svg>
