<svg width="1392" height="605" viewBox="0 0 1392 605" fill="none" xmlns="http://www.w3.org/2000/svg">
<g clip-path="url(#clip0_18_14)">
<rect width="1392" height="605" rx="16" fill="#0A0C23"/>
<path fill-rule="evenodd" clip-rule="evenodd" d="M-642.805 -861.723C-650.359 -856.759 -654.609 -848.084 -653.861 -839.077C-653.519 -835.005 -652.144 -831.032 -649.888 -827.598L-639.205 -811.381C-641.511 -807.108 -642.596 -802.193 -642.189 -797.233C-641.8 -792.676 -640.185 -788.307 -637.494 -784.564L-627.279 -770.386C-629.809 -765.908 -630.984 -760.713 -630.549 -755.401L-630.551 -755.417C-630.13 -750.358 -628.255 -745.562 -625.118 -741.543L-615.456 -729.189C-618.148 -724.515 -619.413 -719.07 -618.955 -713.564L-618.971 -713.562C-618.503 -708.002 -616.354 -702.798 -612.739 -698.508L-603.783 -687.889C-606.587 -683.072 -607.872 -677.476 -607.395 -671.737C-606.891 -665.644 -604.454 -660.033 -600.347 -655.489L-592.175 -646.455C-595.033 -641.497 -596.349 -635.753 -595.864 -629.892C-595.322 -623.376 -592.528 -617.193 -587.971 -612.468L-580.674 -604.912C-583.544 -599.841 -584.865 -593.98 -584.367 -588.058C-583.791 -581.024 -580.674 -574.423 -575.596 -569.463L-569.24 -563.27C-572.072 -558.11 -573.371 -552.171 -572.883 -546.207C-572.253 -538.625 -568.816 -531.622 -563.206 -526.461L-557.883 -521.563C-560.677 -516.342 -561.914 -510.426 -561.416 -504.368L-561.418 -504.384C-560.75 -496.253 -556.989 -488.816 -550.832 -483.456L-546.584 -479.753C-549.286 -474.487 -550.475 -468.566 -549.98 -462.527C-549.259 -453.849 -545.162 -446.011 -538.457 -440.451L-535.338 -437.867C-537.921 -432.572 -539.049 -426.665 -538.561 -420.683C-537.802 -411.582 -533.259 -403.104 -526.083 -397.446L-524.129 -395.904C-526.585 -390.607 -527.648 -384.738 -527.156 -378.837C-526.357 -369.171 -521.446 -360.281 -513.71 -354.456L-512.941 -353.877C-515.257 -348.591 -516.248 -342.781 -515.765 -336.973L-515.75 -336.975C-514.928 -326.945 -509.836 -317.792 -501.782 -311.779C-503.939 -306.537 -504.85 -300.822 -504.377 -295.125C-503.541 -285.04 -498.568 -275.882 -490.638 -269.706C-492.672 -264.519 -493.494 -258.952 -493.019 -253.273C-492.17 -243.119 -487.305 -233.942 -479.487 -227.6C-481.378 -222.465 -482.126 -216.989 -481.662 -211.422L-481.679 -211.436C-480.827 -201.198 -476.041 -191.993 -468.34 -185.504C-470.107 -180.425 -470.791 -175.031 -470.335 -169.566L-470.32 -169.568C-469.488 -159.432 -464.686 -150.045 -457.159 -143.414C-458.802 -138.384 -459.43 -133.071 -458.993 -127.712L-459.009 -127.71C-458.153 -117.516 -453.433 -108.088 -445.994 -101.31C-447.532 -96.3388 -448.105 -91.1147 -447.667 -85.8563C-446.821 -75.5795 -442.174 -66.1334 -434.824 -59.2277C-436.261 -54.3118 -436.787 -49.164 -436.356 -43.9988L-436.372 -43.9968C-435.512 -33.6495 -430.923 -24.1516 -423.651 -17.1159C-424.989 -12.2642 -425.467 -7.20632 -425.045 -2.14084C-424.184 8.27832 -419.669 17.8191 -412.485 24.9758C-413.732 29.7697 -414.17 34.7535 -413.763 39.7362L-413.765 39.7208C-412.492 54.9927 -403.628 68.3358 -390.049 75.4296L811.95 703.538C822.478 709.04 834.536 710.138 845.895 706.591C857.256 703.06 866.548 695.328 872.067 684.813L1502.35 -514.295C1506.27 -521.774 1507.98 -530.158 1507.3 -538.54C1506.04 -553.799 1497.17 -567.157 1483.6 -574.251L281.597 -1202.36C275.534 -1205.53 268.964 -1207.23 262.313 -1207.43C257.92 -1209.03 253.336 -1209.9 248.711 -1210.02C244.271 -1211.65 239.677 -1212.49 235.109 -1212.59C230.724 -1214.24 226.123 -1215.11 221.474 -1215.2C217.115 -1216.86 212.532 -1217.74 207.897 -1217.81C203.504 -1219.5 198.923 -1220.35 194.369 -1220.4C189.986 -1222.14 185.34 -1223.04 180.632 -1223.06C176.344 -1224.77 171.79 -1225.65 167.167 -1225.67C162.829 -1227.44 158.199 -1228.34 153.496 -1228.33C149.211 -1230.1 144.623 -1231 139.95 -1230.97C135.593 -1232.8 130.968 -1233.68 126.372 -1233.63C122.033 -1235.5 117.404 -1236.38 112.805 -1236.32C108.548 -1238.19 103.923 -1239.12 99.1864 -1239.02C94.8931 -1240.94 90.2714 -1241.83 85.6803 -1241.73C81.4667 -1243.67 76.831 -1244.63 72.0596 -1244.49C68.0831 -1246.35 63.7039 -1247.31 59.1813 -1247.25C58.942 -1247.25 58.7032 -1247.24 58.4649 -1247.23C54.22 -1249.26 49.5675 -1250.18 44.9473 -1250C40.7122 -1252.08 36.0371 -1253.02 31.3942 -1252.81C27.1812 -1254.93 22.4959 -1255.89 17.8413 -1255.65C13.6594 -1257.81 8.97434 -1258.78 4.3171 -1258.52C0.165196 -1260.71 -4.52333 -1261.71 -9.18736 -1261.42C-16.9424 -1265.63 -26.7178 -1265.56 -34.5966 -1260.39L-642.805 -861.723ZM-15.6585 -1260.17C-21.2585 -1261.64 -27.4386 -1260.82 -32.651 -1257.41L-640.829 -858.744C-647.303 -854.504 -650.935 -847.078 -650.29 -839.372C-650.007 -835.893 -648.832 -832.497 -646.892 -829.561L-637.087 -814.675C-635.578 -816.666 -633.769 -818.446 -631.694 -819.935L-22.432 -1256.71C-20.3062 -1258.24 -18.0216 -1259.39 -15.6585 -1260.17ZM-635.006 -811.516C-633.578 -813.623 -631.763 -815.499 -629.602 -817.05L-20.3738 -1253.84C-17.2133 -1256.1 -13.6492 -1257.4 -10.0347 -1257.8C-8.87901 -1257.1 -7.78329 -1256.28 -6.76674 -1255.35C-7.97558 -1254.69 -9.14709 -1253.92 -10.2692 -1253.05L-615.582 -782.027L-635.006 -811.516ZM-636.952 -807.96C-638.334 -804.746 -638.932 -801.186 -638.633 -797.526C-638.31 -793.61 -636.914 -789.846 -634.606 -786.624L-625.178 -773.54C-623.858 -775.24 -622.314 -776.79 -620.566 -778.148L-618.415 -779.822L-636.952 -807.96ZM-616.457 -776.848L-618.375 -775.356C-620.175 -773.957 -621.725 -772.322 -622.997 -770.513L-602.554 -742.14L-596.783 -746.983L-616.457 -776.848ZM-594.822 -744.005L-600.478 -739.259L-580.103 -710.98L-575.685 -714.956L-594.822 -744.005ZM-572.998 -717.375L-592.063 -746.32L1.3169 -1244.25L5.45516 -1237.97L-572.998 -717.375ZM-573.707 -711.953L-578.013 -708.079L-558.236 -680.63L-555.074 -683.668L-573.707 -711.953ZM-552.454 -686.185L-571.02 -714.372L7.43765 -1234.96L11.8627 -1228.24L-552.454 -686.185ZM-553.084 -680.646L-556.135 -677.714L-536.899 -651.016L-534.906 -653.051L-553.084 -680.646ZM-532.348 -655.661L-550.463 -683.163L13.8532 -1225.22L18.5494 -1218.09L-532.348 -655.661ZM-532.905 -650.014L-534.791 -648.09L-516.057 -622.089L-515.153 -623.066L-532.905 -650.014ZM-512.657 -625.766L-530.348 -652.625L20.5495 -1215.05L25.4843 -1207.56L-512.657 -625.766ZM-513.139 -620.008L-513.937 -619.146L-498.003 -597.031L-513.139 -620.008ZM-493.343 -596.443L-510.642 -622.707L27.5039 -1204.49L32.6604 -1196.67L-493.343 -596.443ZM-474.388 -567.667L-491.319 -593.37L34.6786 -1193.6L40.0551 -1185.44L-474.388 -567.667ZM-455.772 -539.403L-472.35 -564.573L42.1035 -1182.33L47.6463 -1173.91L-455.772 -539.403ZM-448.209 -527.922L-453.707 -536.268L49.7162 -1170.77L55.4407 -1162.08L-436.932 -512.27L-448.209 -527.922ZM-391.308 -441.534L-395.666 -448.151L-388.687 -439.226L-384.732 -433.737L-391.308 -441.534ZM-394.042 -439.214L-386.286 -427.44L-387.538 -425.566L-405.522 -445.447L-402.71 -449.491L-394.042 -439.214ZM-419.556 -477.946L-410.773 -464.614L-420.694 -476.376L-419.556 -477.946ZM-422.699 -482.717L-421.652 -481.127L-423.062 -479.183L-441.22 -500.712L-439.031 -503.601L-422.699 -482.717ZM-451.282 -526.106L-446.827 -519.344L-456.908 -532.234L-456.273 -533.034L-451.282 -526.106ZM-384.164 -424.22L-378.388 -415.451L-385.08 -422.849L-384.164 -424.22ZM-366.869 -404.432L-374.586 -416.147L-365.933 -405.888L-366.869 -404.432ZM-362.716 -398.127L-364.727 -401.18L-363.531 -403.04L-357.248 -395.591L-347.571 -382.159L-347.856 -381.699L-362.716 -398.127ZM-365.486 -395.865L-367.04 -397.583L-370.436 -392.301L-352.681 -373.913L-351.878 -375.209L-365.486 -395.865ZM-349.719 -371.931L-350.129 -371.27L-347.468 -368.514L-349.719 -371.931ZM-334.074 -354.642L-347.656 -375.262L-347.327 -375.792L-330.468 -357.155L-332.775 -353.297L-334.074 -354.642ZM-336.828 -352.362L-334.997 -349.583L-338.614 -343.536L-356.511 -360.973L-352.067 -368.144L-336.828 -352.362ZM-332.814 -346.269L-318.304 -324.241L-318.487 -323.925L-335.983 -340.972L-332.814 -346.269ZM-316.315 -327.681L-323.437 -338.493L-315.073 -329.83L-316.315 -327.681ZM-305.518 -311.288L-314.123 -324.352L-312.497 -327.163L-295.817 -309.887L-298.732 -304.676L-305.518 -311.288ZM-308.249 -308.977L-301.802 -299.19L-304.912 -293.63L-322.518 -309.829L-317.692 -318.178L-308.249 -308.977ZM-299.597 -295.843L-287.718 -277.81L-302.22 -291.154L-299.597 -295.843ZM-283.558 -277.948L-296.377 -297.41L-281.085 -282.511L-283.558 -277.948ZM-276.928 -267.883L-281.339 -274.579L-278.438 -279.932L-263.273 -265.155L-262.131 -263.571L-265.427 -257.302L-276.928 -267.883ZM-279.651 -265.565L-284.037 -269.6L-289.181 -260.109L-271.879 -245.027L-269.324 -249.888L-279.651 -265.565ZM-267.438 -253.476L-268.863 -255.639L-267.136 -254.05L-267.438 -253.476ZM-267.081 -246.483L-269.113 -242.617L-258.359 -233.243L-267.081 -246.483ZM-248.385 -224.549L-265.195 -250.071L-264.418 -251.549L-231.939 -221.666L-226.352 -213.91C-230.14 -213.293 -234.019 -213.721 -237.553 -215.107L-248.385 -224.549ZM-251.053 -222.151L-250.416 -221.185C-247.647 -216.974 -243.799 -213.891 -239.472 -212.057L-200.612 -178.185L-199.836 -177.108C-197.23 -173.491 -193.84 -170.764 -190.063 -168.99L-150.106 -134.16L-149.225 -133.035C-146.84 -129.98 -143.902 -127.601 -140.661 -125.928L-99.6649 -90.1934L-98.6492 -88.9891C-96.5185 -86.4616 -94.0168 -84.4255 -91.2894 -82.8929L-49.0843 -46.1045L-48.0247 -44.9332C-46.2068 -42.9211 -44.1571 -41.2379 -41.9517 -39.8873L1.16901 -2.30092L2.53567 -0.885508C4.05188 0.682717 5.70694 2.04007 7.4635 3.18567L51.8097 41.8403L53.1584 43.1544C54.274 44.2397 55.4547 45.219 56.6876 46.0922L97.0143 81.2431L-276.664 -228.253L-270.816 -239.378L-251.053 -222.151ZM-231.895 -210.176C-229.297 -209.951 -226.654 -210.134 -224.071 -210.744L-209.759 -190.881L-231.895 -210.176ZM-217.59 -213.289L-197.618 -194.913L-213.855 -215.675L-216.216 -214.128C-216.668 -213.831 -217.126 -213.552 -217.59 -213.289ZM-209.99 -218.209L-196.791 -205.348L-208.475 -219.202L-209.99 -218.209ZM-210.854 -221.891L-212.597 -220.749L-215.559 -223.635L-228.439 -240.104L-210.854 -221.891ZM-203.696 -222.334L-164.747 -179.278L-162.549 -177.001L442.798 -610.983C449.094 -615.501 452.46 -622.783 451.828 -630.506L451.812 -630.504C451.49 -634.421 450.094 -638.185 447.788 -641.391L154.485 -1048.49L145.638 -1031.66L399.078 -646.907C401.334 -643.474 402.709 -639.501 403.049 -635.444C403.796 -626.437 399.564 -617.748 391.977 -612.797L-203.696 -222.334ZM143.733 -1028.04L396.064 -644.958C398.004 -642.022 399.194 -638.628 399.477 -635.149L399.495 -635.136C400.125 -627.428 396.493 -620.002 390.02 -615.746L-206.108 -225.002L-244.14 -267.044L-251.615 -275.907L143.733 -1028.04ZM143.391 -1035.07L152.149 -1051.74L145.134 -1061.47L136.498 -1045.54L143.391 -1035.07ZM134.56 -1041.96L141.486 -1031.45L-254.099 -278.853L-269.273 -296.843L134.56 -1041.96ZM134.279 -1048.91L142.826 -1064.68L135.896 -1074.3L127.473 -1059.24L134.279 -1048.91ZM125.502 -1055.72L132.341 -1045.33L-271.735 -299.762L-287.168 -318.06L125.502 -1055.72ZM125.269 -1062.59L133.601 -1077.48L126.768 -1086.97L118.561 -1072.77L125.269 -1062.59ZM116.555 -1069.3L123.298 -1059.06L-289.619 -320.967L-305.318 -339.58L116.555 -1069.3ZM116.361 -1076.11L124.477 -1090.15L117.738 -1099.5L109.75 -1086.14L116.361 -1076.11ZM107.708 -1082.73L114.355 -1072.64L-307.761 -342.477L-317.956 -354.565L-323.563 -361.734L107.708 -1082.73ZM107.576 -1089.45L115.471 -1102.65L108.835 -1111.86L101.069 -1099.32L107.576 -1089.45ZM98.9888 -1095.97L105.533 -1086.03L-325.923 -364.752L-341.682 -384.901L98.9888 -1095.97ZM98.9091 -1102.6L106.582 -1114.98L100.073 -1124.02L92.5296 -1112.29L98.9091 -1102.6ZM90.41 -1108.99L96.8289 -1099.25L-344.019 -387.89L-360.073 -408.417L90.41 -1108.99ZM90.3777 -1115.55L97.8255 -1127.14L91.4291 -1136.02L84.1127 -1125.07L90.3777 -1115.55ZM81.952 -1121.83L88.2582 -1112.26L-362.397 -411.388L-378.759 -432.31L81.952 -1121.83ZM81.9859 -1128.29L89.2062 -1139.1L82.9317 -1147.81L75.8441 -1137.62L81.9859 -1128.29ZM73.6405 -1134.45L79.8252 -1125.06L-381.064 -435.256L-385.889 -441.426L-397.302 -457.267L73.6405 -1134.45ZM73.7418 -1140.81L80.7328 -1150.86L74.6031 -1159.37L67.7453 -1149.91L73.7418 -1140.81ZM65.4971 -1146.81L71.5383 -1137.64L-399.506 -460.326L-415.867 -483.033L65.4971 -1146.81ZM65.6546 -1153.09L72.4142 -1162.41L66.4359 -1170.71L59.8096 -1161.96L65.6546 -1153.09ZM57.5145 -1158.93L63.4064 -1149.99L-418.061 -486.079L-434.754 -509.246L57.5145 -1158.93ZM57.7358 -1165.11L64.2625 -1173.72L58.4544 -1181.78L52.0602 -1173.73L57.7358 -1165.11ZM49.9903 -1176.87L56.2827 -1184.8L50.6601 -1192.6L44.4989 -1185.21L49.9903 -1176.87ZM42.4503 -1188.32L48.5084 -1195.59L43.0549 -1203.16L37.1276 -1196.4L42.4503 -1188.32ZM35.1094 -1199.46L40.9329 -1206.1L35.7056 -1213.36L30.0093 -1207.2L35.1094 -1199.46ZM27.9897 -1210.27L33.5795 -1216.31L28.5803 -1223.25L23.1142 -1217.67L27.9897 -1210.27ZM21.1141 -1220.71L26.4721 -1226.18L21.7193 -1232.77L16.4803 -1227.74L21.1141 -1220.71ZM14.4897 -1230.76L19.6184 -1235.69L15.1471 -1241.9L10.1306 -1237.38L14.4897 -1230.76ZM8.148 -1240.39L13.0518 -1244.8L10.1277 -1248.86C9.86253 -1249.23 9.58791 -1249.59 9.30439 -1249.93C7.50709 -1249.09 5.79 -1248 4.20109 -1246.67L4.07914 -1246.57L8.148 -1240.39ZM2.10688 -1249.56C3.55727 -1250.75 5.09718 -1251.77 6.69989 -1252.61C5.69983 -1253.48 4.63251 -1254.24 3.51375 -1254.9C2.04433 -1254.75 0.58335 -1254.46 -0.846811 -1254.02C-0.688295 -1253.8 -0.532832 -1253.57 -0.380702 -1253.34L2.10688 -1249.56ZM-4.28251 -1252.65C-5.60052 -1251.99 -6.87264 -1251.19 -8.07864 -1250.26L-613.624 -779.053L-594.024 -749.298L-0.656059 -1247.24L-3.37656 -1251.38C-3.66512 -1251.81 -3.96743 -1252.24 -4.28251 -1252.65ZM-3.2749 -1256.94C-2.95765 -1257.06 -2.63873 -1257.17 -2.31844 -1257.28C-2.85934 -1257.41 -3.40505 -1257.52 -3.9543 -1257.62C-3.72411 -1257.4 -3.49755 -1257.17 -3.2749 -1256.94ZM-216.052 -218.484L-218.175 -217.093C-218.887 -216.626 -219.617 -216.209 -220.362 -215.839L-229.233 -224L-248.549 -250.809L-218.23 -221.269L-216.052 -218.484ZM-627.008 -755.692C-627.342 -759.701 -626.604 -763.638 -624.95 -767.154L-605.28 -739.852L-609.438 -736.363C-610.902 -735.136 -612.217 -733.769 -613.368 -732.291L-622.307 -743.72C-625.027 -747.19 -626.644 -751.322 -627.008 -755.692ZM-607.148 -733.661L-603.204 -736.971L-582.758 -708.591L-589.845 -702.213L-611.101 -729.392C-609.979 -730.958 -608.655 -732.396 -607.148 -733.661ZM-587.65 -699.406L-580.667 -705.69L-560.823 -678.146L-566.647 -672.551L-587.65 -699.406ZM-564.444 -669.734L-558.722 -675.23L-539.421 -648.441L-544.075 -643.689L-564.444 -669.734ZM-541.867 -640.866L-537.313 -645.515L-518.518 -619.429L-522.085 -615.572L-541.867 -640.866ZM-519.866 -612.735L-516.397 -616.485L-498.07 -591.048L-500.625 -588.133L-519.866 -612.735ZM-498.401 -585.288L-495.942 -588.094L-478.054 -563.265L-479.664 -561.331L-498.401 -585.288ZM-477.429 -558.474L-475.913 -560.294L-458.439 -536.041L-459.167 -535.123L-477.429 -558.474ZM-325.789 -358.013L-323.283 -354.534L-317.149 -347.753L-320.316 -351.803L-325.692 -358.176L-325.789 -358.013ZM-312.756 -333.837L-325.989 -352.204L-327.96 -354.383L-330.203 -350.633L-313.217 -333.041L-312.756 -333.837ZM-344.827 -378.35L-345.319 -379.033L-345.37 -378.95L-344.827 -378.35ZM-309.143 -328.822L-310.472 -330.666L-310.641 -330.374L-309.143 -328.822ZM-304.444 -328.388L-293.762 -313.561L-292.719 -315.426L-304.444 -328.388ZM-296.094 -302.105L-293.384 -306.949L-278.806 -286.716L-279.322 -285.764L-296.094 -302.105ZM-277.287 -290.695L-276.923 -290.19L-276.878 -290.272L-277.287 -290.695ZM-276.675 -283.185L-276.498 -283.512L-275.289 -281.834L-276.675 -283.185ZM-274.615 -286.987L-260.566 -267.489L-260.24 -267.171L-258.242 -270.971L-274.288 -287.589L-274.615 -286.987ZM-242.251 -235.978L-259.8 -260.335L-262.709 -254.801L-242.251 -235.978ZM-218.919 -209.686L-197.958 -180.594L-188.102 -172.003C-185.003 -170.629 -181.619 -169.99 -178.239 -170.133L-184.16 -177.704L-218.919 -209.686ZM-175.638 -166.807C-177.77 -166.509 -179.924 -166.484 -182.046 -166.724L-161.709 -148.997L-175.638 -166.807ZM-154.629 -155.36L-169.075 -168.651C-168.301 -168.987 -167.54 -169.363 -166.792 -169.781L-154.629 -155.36ZM-116.961 -129.788L-160.052 -174.416L444.873 -608.096C452.069 -613.267 456.094 -621.962 455.368 -630.797C454.996 -635.356 453.381 -639.726 450.69 -643.468L156.338 -1052.02L164.084 -1066.76L499.507 -637.854C502.227 -634.385 503.846 -630.237 504.208 -625.882L504.206 -625.898C504.842 -618.27 501.626 -610.929 495.589 -606.237L-114.708 -131.336C-115.436 -130.769 -116.189 -130.253 -116.961 -129.788ZM161.668 -1069.85L154.002 -1055.26L147.02 -1064.95L154.582 -1078.91L161.668 -1069.85ZM152.193 -1081.96L144.711 -1068.16L137.816 -1077.73L145.193 -1090.91L152.193 -1081.96ZM142.816 -1093.95L135.521 -1080.91L128.723 -1090.35L135.911 -1102.78L142.816 -1093.95ZM133.536 -1105.82L126.432 -1093.53L119.731 -1102.83L126.726 -1114.53L133.536 -1105.82ZM124.375 -1117.53L117.464 -1105.98L110.866 -1115.13L117.668 -1126.11L124.375 -1117.53ZM115.329 -1129.1L108.613 -1118.26L102.144 -1127.24L108.749 -1137.51L115.329 -1129.1ZM106.415 -1140.5L99.8966 -1130.36L93.5422 -1139.18L99.948 -1148.77L106.415 -1140.5ZM97.6374 -1151.72L91.3193 -1142.26L85.0886 -1150.91L91.2928 -1159.83L97.6374 -1151.72ZM89.0055 -1162.76L82.8897 -1153.96L76.806 -1162.41L82.8072 -1170.68L89.0055 -1162.76ZM80.5283 -1173.6L74.617 -1165.45L68.6868 -1173.68L74.4832 -1181.33L80.5283 -1173.6ZM72.2184 -1184.22L66.5133 -1176.69L60.7557 -1184.69L66.3464 -1191.73L72.2184 -1184.22ZM64.081 -1194.63L58.5839 -1187.7L53.0143 -1195.43L58.398 -1201.9L64.081 -1194.63ZM56.1513 -1204.77L50.8625 -1198.42L45.4645 -1205.91L50.6401 -1211.82L56.1513 -1204.77ZM48.4223 -1214.65L43.3425 -1208.85L38.1737 -1216.03L43.1433 -1221.4L48.4223 -1214.65ZM40.9187 -1224.25L36.0475 -1218.98L31.1099 -1225.83L35.8739 -1230.7L40.9187 -1224.25ZM33.6656 -1233.52L29.0018 -1228.76L24.3139 -1235.27L28.7132 -1239.49C28.7671 -1239.54 28.8212 -1239.59 28.8754 -1239.65L33.6656 -1233.52ZM26.2503 -1242.06L22.213 -1238.18L17.8496 -1244.24C19.4325 -1245.46 21.1287 -1246.46 22.8962 -1247.24C23.1477 -1246.95 23.3932 -1246.65 23.6324 -1246.35L26.6749 -1242.46C26.5324 -1242.33 26.3908 -1242.19 26.2503 -1242.06ZM20.1715 -1249.89C18.641 -1249.12 17.1652 -1248.2 15.7659 -1247.13L13.0319 -1250.92C12.9551 -1251.03 12.8777 -1251.14 12.7996 -1251.24C14.1949 -1251.64 15.6178 -1251.91 17.0486 -1252.04C18.1384 -1251.42 19.1839 -1250.7 20.1715 -1249.89ZM10.9973 -1254.41C10.7517 -1254.33 10.507 -1254.25 10.2631 -1254.16C10.0902 -1254.33 9.91508 -1254.5 9.73801 -1254.67C10.16 -1254.59 10.5799 -1254.51 10.9973 -1254.41ZM-171.983 -171.327C-171.014 -171.665 -170.062 -172.074 -169.133 -172.556L-173.276 -177.469L-199.23 -202.757L-181.492 -180.076L-171.983 -171.327ZM-613.06 -726.126C-614.913 -722.374 -615.754 -718.142 -615.401 -713.872C-614.995 -709.048 -613.124 -704.537 -609.993 -700.819L-601.692 -690.977C-600.687 -692.264 -599.558 -693.474 -598.313 -694.592L-592.494 -699.829L-613.06 -726.126ZM-590.299 -697.022L-595.935 -691.949C-597.214 -690.799 -598.351 -689.537 -599.338 -688.185L-577.422 -662.201L-569.225 -670.075L-590.299 -697.022ZM-567.021 -667.258L-575.123 -659.475L-553.604 -633.961L-546.585 -641.127L-567.021 -667.258ZM-544.377 -638.303L-551.303 -631.232L-530.459 -606.519L-524.532 -612.927L-544.377 -638.303ZM-522.313 -610.09L-528.149 -603.78L-507.926 -579.802L-503.011 -585.41L-522.313 -610.09ZM-500.787 -582.566L-505.612 -577.059L-485.965 -553.765L-481.993 -558.534L-500.787 -582.566ZM-479.758 -555.677L-483.643 -551.012L-464.536 -528.357L-461.442 -532.256L-479.758 -555.677ZM-459.183 -529.367L-462.19 -525.576L-443.575 -503.504L-441.302 -506.504L-459.183 -529.367ZM-249.578 -267.133L-253.061 -271.587L-247.116 -265.015L-244.238 -261.604L-249.578 -267.133ZM-286.431 -308.476L-274.961 -293.809L-275.096 -293.561L-291.417 -310.464L-290.199 -312.641L-286.431 -308.476ZM-252.233 -264.747L-234.559 -242.148L-257.573 -264.572L-255.631 -268.267L-252.233 -264.747ZM-147.499 -136.611L-168.032 -162.865L-136.452 -133.809L-130.406 -126.641C-133.268 -126.87 -136.083 -127.639 -138.683 -128.927L-147.499 -136.611ZM-132.165 -123.245C-130.576 -123.028 -128.966 -122.955 -127.36 -123.029L-114.707 -108.028L-132.165 -123.245ZM-120.753 -124.192L-114.618 -118.547L-119.961 -124.454C-120.106 -124.403 -120.252 -124.354 -120.397 -124.306C-120.516 -124.267 -120.634 -124.229 -120.753 -124.192ZM-114.421 -127.158L-80.6914 -92.2255L-72.0181 -83.7744C-68.7874 -84.6254 -65.6907 -86.1827 -62.9671 -88.4675L548.382 -601.476C554.176 -606.342 557.259 -613.73 556.635 -621.265L556.637 -621.249C556.246 -626.075 554.376 -630.587 551.227 -634.318L172.691 -1083.13L165.898 -1070.21L502.318 -640.031C505.455 -636.013 507.346 -631.219 507.766 -626.16C508.488 -617.355 504.756 -608.841 497.783 -603.413L-112.513 -128.512C-113.135 -128.028 -113.771 -127.577 -114.421 -127.158ZM163.482 -1073.3L170.202 -1086.08L163.06 -1094.55L156.429 -1082.31L163.482 -1073.3ZM154.04 -1085.37L160.598 -1097.47L153.541 -1105.84L147.075 -1094.28L154.04 -1085.37ZM144.698 -1097.32L151.09 -1108.74L144.129 -1117L137.829 -1106.1L144.698 -1097.32ZM135.454 -1109.14L141.678 -1119.9L134.812 -1128.04L128.682 -1117.79L135.454 -1109.14ZM126.331 -1120.8L132.384 -1130.92L125.62 -1138.94L119.663 -1129.33L126.331 -1120.8ZM117.324 -1132.32L123.204 -1141.81L116.569 -1149.67L110.785 -1140.68L117.324 -1132.32ZM108.451 -1143.66L114.155 -1152.53L107.633 -1160.27L102.027 -1151.88L108.451 -1143.66ZM99.7167 -1154.83L105.242 -1163.1L98.8425 -1170.69L93.417 -1162.89L99.7167 -1154.83ZM91.1296 -1165.81L96.4742 -1173.5L90.2227 -1180.91L84.9785 -1173.68L91.1296 -1165.81ZM82.6997 -1176.59L87.8613 -1183.71L81.7648 -1190.94L76.7039 -1184.26L82.6997 -1176.59ZM74.4392 -1187.15L79.416 -1193.72L73.4953 -1200.74L68.6191 -1194.6L74.4392 -1187.15ZM66.3537 -1197.49L71.1437 -1203.53L65.4156 -1210.32L60.7254 -1204.69L66.3537 -1197.49ZM58.4786 -1207.56L63.0811 -1213.09L57.5274 -1219.67L53.0248 -1214.54L58.4786 -1207.56ZM50.8071 -1217.37L55.2211 -1222.41L49.9054 -1228.71L45.5887 -1224.04L50.8071 -1217.37ZM43.364 -1226.89L47.5893 -1231.46L42.5718 -1237.41C42.0276 -1236.94 41.5001 -1236.44 40.9908 -1235.92L38.3833 -1233.26L43.364 -1226.89ZM36.1749 -1236.08L38.4443 -1238.4C39.0357 -1239 39.6483 -1239.58 40.2806 -1240.12L37.1352 -1243.85C36.9274 -1244.1 36.7154 -1244.34 36.4996 -1244.58C34.8038 -1243.88 33.1685 -1242.98 31.6279 -1241.9L36.1749 -1236.08ZM29.4327 -1244.7C30.7823 -1245.67 32.1971 -1246.5 33.6591 -1247.2C32.6951 -1247.96 31.682 -1248.63 30.631 -1249.21C29.2315 -1249.09 27.8391 -1248.85 26.4708 -1248.49L29.4327 -1244.7ZM23.825 -1251.41C24.0018 -1251.47 24.1791 -1251.53 24.3567 -1251.58C24.0533 -1251.65 23.7486 -1251.71 23.443 -1251.76C23.5713 -1251.65 23.6987 -1251.53 23.825 -1251.41ZM-122.6 -127.372C-123.022 -127.256 -123.447 -127.153 -123.873 -127.062L-133.712 -136.116L-146.985 -151.853L-128.108 -133.46L-122.6 -127.372ZM-603.839 -672.03C-604.217 -676.588 -603.324 -681.037 -601.318 -684.966L-580.016 -659.71L-587.187 -652.822C-588.26 -651.79 -589.243 -650.687 -590.13 -649.525L-597.691 -657.884C-601.28 -661.844 -603.405 -666.735 -603.839 -672.03ZM-584.724 -650.253L-577.717 -656.984L-556.126 -631.386L-565.274 -622.047L-587.697 -646.835C-586.819 -648.049 -585.826 -649.194 -584.724 -650.253ZM-562.885 -619.407L-553.825 -628.657L-532.914 -603.865L-540.959 -595.168L-562.885 -619.407ZM-538.564 -592.521L-530.604 -601.126L-510.317 -577.073L-517.341 -569.059L-538.564 -592.521ZM-514.945 -566.41L-508.004 -574.33L-488.296 -550.965L-494.373 -543.668L-514.945 -566.41ZM-491.97 -541.013L-485.975 -548.212L-466.81 -525.49L-472.005 -518.942L-491.97 -541.013ZM-469.581 -516.262L-464.465 -522.71L-445.795 -500.574L-450.169 -494.802L-469.581 -516.262ZM-447.736 -492.113L-443.44 -497.782L-425.231 -476.193L-428.837 -471.22L-447.736 -492.113ZM-426.392 -468.518L-422.863 -473.385L-405.084 -452.306L-407.971 -448.154L-426.392 -468.518ZM-172.929 -182.613L-170.493 -179.725L-165.999 -175.346L-167.284 -176.767L-172.929 -182.613ZM-115.535 -114.563L-97.0185 -92.6095L-89.2981 -85.8799C-87.2875 -84.779 -85.1397 -83.9899 -82.9306 -83.5193L-88.5703 -89.7536L-115.535 -114.563ZM-79.2612 -79.4631C-80.2753 -79.5091 -81.2862 -79.6116 -82.289 -79.7704L-69.2867 -68.4369L-79.2612 -79.4631ZM-26.4667 -39.3909L-69.111 -80.942C-66.116 -81.9872 -63.2584 -83.58 -60.689 -85.7332L550.658 -598.757C557.341 -604.354 560.897 -612.878 560.176 -621.556C559.723 -627.118 557.559 -632.32 553.944 -636.61L174.473 -1086.52L180.434 -1097.86L602.962 -630.784C606.534 -626.837 608.66 -621.93 609.095 -616.635L609.093 -616.651C609.722 -609.069 606.846 -601.803 601.191 -596.716L-11.2092 -45.5843C-15.5809 -41.6522 -21.0038 -39.6046 -26.4667 -39.3909ZM177.878 -1100.69L171.984 -1089.47L164.876 -1097.9L170.692 -1108.63L177.878 -1100.69ZM168.162 -1111.43L162.413 -1100.82L155.392 -1109.14L161.061 -1119.28L168.162 -1111.43ZM158.541 -1122.06L152.941 -1112.05L146.016 -1120.26L151.535 -1129.81L158.541 -1122.06ZM149.015 -1132.59L143.565 -1123.17L136.737 -1131.26L142.103 -1140.23L149.015 -1132.59ZM139.606 -1142.99L134.31 -1134.14L127.586 -1142.11L132.797 -1150.52L139.606 -1142.99ZM130.309 -1153.27L125.169 -1144.98L118.576 -1152.79L123.63 -1160.65L130.309 -1153.27ZM121.143 -1163.4L116.162 -1155.66L109.684 -1163.34L114.577 -1170.66L121.143 -1163.4ZM112.113 -1173.39L107.293 -1166.17L100.939 -1173.7L105.67 -1180.51L112.113 -1173.39ZM103.227 -1183.21L98.571 -1176.51L92.3677 -1183.87L96.9342 -1190.16L103.227 -1183.21ZM94.4966 -1192.86L90.0062 -1186.67L83.9603 -1193.84L88.3602 -1199.64L94.4966 -1192.86ZM85.9338 -1202.32L81.6115 -1196.62L75.744 -1203.58L79.976 -1208.91L85.9338 -1202.32ZM77.5446 -1211.6L73.3924 -1206.36L67.7204 -1213.09L71.7826 -1217.97L77.5446 -1211.6ZM69.3668 -1220.64L65.3858 -1215.86L59.8913 -1222.37L63.7819 -1226.81L69.3668 -1220.64ZM61.3933 -1229.45L57.5849 -1225.11L52.3317 -1231.33L53.2546 -1232.33C54.1936 -1233.35 55.198 -1234.28 56.2594 -1235.13L61.3933 -1229.45ZM50.6226 -1234.74L50.0156 -1234.08L45.4101 -1239.54C46.886 -1240.5 48.4507 -1241.3 50.083 -1241.94C50.2712 -1241.74 50.4568 -1241.54 50.6396 -1241.34L53.8697 -1237.77C52.7257 -1236.85 51.6405 -1235.83 50.6226 -1234.74ZM47.1207 -1244.54C45.7279 -1243.89 44.3849 -1243.14 43.1026 -1242.28L40.1604 -1245.77C41.4891 -1246.09 42.8385 -1246.3 44.1941 -1246.4C45.2047 -1245.86 46.1832 -1245.24 47.1207 -1244.54ZM37.689 -1248.77C37.6447 -1248.76 37.6004 -1248.75 37.5562 -1248.73C37.5031 -1248.72 37.4499 -1248.7 37.3969 -1248.68L37.34 -1248.74L37.2823 -1248.79C37.2501 -1248.82 37.2178 -1248.85 37.1855 -1248.87C37.2949 -1248.85 37.4041 -1248.83 37.5132 -1248.81C37.5718 -1248.8 37.6304 -1248.79 37.689 -1248.77ZM-589.647 -643.661C-591.762 -639.56 -592.715 -634.911 -592.324 -630.183C-591.854 -624.481 -589.395 -619.078 -585.402 -614.931L-578.682 -607.971C-577.884 -609.045 -577.009 -610.069 -576.059 -611.036L-567.78 -619.488L-589.647 -643.661ZM-565.392 -616.848L-573.513 -608.557C-574.49 -607.559 -575.377 -606.493 -576.17 -605.37L-553.367 -581.753L-543.396 -592.533L-565.392 -616.848ZM-541.001 -589.886L-550.893 -579.192L-528.649 -556.154L-519.712 -566.352L-541.001 -589.886ZM-517.316 -563.704L-526.176 -553.593L-504.662 -531.312L-496.683 -540.894L-517.316 -563.704ZM-494.28 -538.239L-502.185 -528.747L-481.348 -507.167L-474.257 -516.104L-494.28 -538.239ZM-471.832 -513.424L-478.85 -504.579L-458.628 -483.637L-452.365 -491.904L-471.832 -513.424ZM-449.932 -489.214L-456.123 -481.043L-436.472 -460.691L-430.98 -468.265L-449.932 -489.214ZM-428.536 -465.563L-433.957 -458.087L-414.836 -438.283L-410.064 -445.144L-428.536 -465.563ZM-407.616 -442.437L-412.318 -435.675L-393.68 -416.373L-389.584 -422.504L-407.616 -442.437ZM-387.126 -419.787L-391.155 -413.758L-372.977 -394.932L-369.514 -400.318L-387.126 -419.787ZM-85.9544 -92.1753L-87.5786 -93.9707L-83.5785 -90.0733L-82.8517 -89.3205L-85.9544 -92.1753ZM-46.5645 -48.631L-59.9081 -63.3819L-41.0835 -46.0616L-36.2016 -41.0054C-37.4617 -41.4924 -38.6875 -42.0877 -39.864 -42.7905L-46.5645 -48.631ZM-32.3567 -36.2466C-32.061 -36.1937 -31.7645 -36.1456 -31.4674 -36.1022L-27.6226 -32.1202L-32.3567 -36.2466ZM-23.1276 -36.1374L9.41385 -4.43026L18.4078 3.84471C26.1346 5.3238 34.4468 3.16546 40.5352 -2.68406L653.986 -591.94C659.432 -597.174 662.192 -604.489 661.57 -612.008L661.586 -612.01C661.116 -617.712 658.655 -623.13 654.68 -627.264L187.422 -1111.16L182.195 -1101.21L605.605 -633.161C609.711 -628.617 612.149 -623.006 612.651 -616.928C613.374 -608.235 610.063 -599.9 603.586 -594.06L-8.83002 -42.9261C-12.9851 -39.1871 -17.9721 -36.9356 -23.1276 -36.1374ZM179.64 -1104.04L184.806 -1113.87L177.583 -1121.35L172.487 -1111.94L179.64 -1104.04ZM169.958 -1114.74L174.992 -1124.03L167.854 -1131.42L162.892 -1122.55L169.958 -1114.74ZM160.373 -1125.34L165.273 -1134.09L158.23 -1141.39L153.404 -1133.04L160.373 -1125.34ZM150.884 -1135.82L155.646 -1144.06L148.698 -1151.26L144.011 -1143.42L150.884 -1135.82ZM141.514 -1146.18L146.137 -1153.91L139.291 -1161L134.746 -1153.66L141.514 -1146.18ZM132.258 -1156.41L136.738 -1163.64L130.024 -1170.6L125.621 -1163.75L132.258 -1156.41ZM123.135 -1166.5L127.47 -1173.24L120.869 -1180.08L116.614 -1173.71L123.135 -1166.5ZM114.149 -1176.43L118.337 -1182.7L111.86 -1189.41L107.753 -1183.5L114.149 -1176.43ZM105.311 -1186.2L109.348 -1192.01L103.023 -1198.56L99.0669 -1193.1L105.311 -1186.2ZM96.6293 -1195.8L100.515 -1201.16L94.3475 -1207.54L90.5449 -1202.53L96.6293 -1195.8ZM88.1186 -1205.21L91.8492 -1210.13L85.8631 -1216.33L82.2156 -1211.73L88.1186 -1205.21ZM79.7842 -1214.42L83.3577 -1218.92L77.5708 -1224.92L74.0801 -1220.73L79.7842 -1214.42ZM71.6641 -1223.4L75.011 -1227.42L75.0795 -1227.5L69.9301 -1232.83C68.5922 -1231.85 67.3265 -1230.74 66.1527 -1229.49L71.6641 -1223.4ZM63.7734 -1232.12C64.9279 -1233.32 66.1592 -1234.42 67.4532 -1235.4L64.1267 -1238.84C63.9772 -1239 63.8263 -1239.15 63.6738 -1239.3C62.1209 -1238.73 60.6262 -1238.02 59.2059 -1237.17L63.7734 -1232.12ZM56.7804 -1239.85C58.0018 -1240.62 59.274 -1241.3 60.5883 -1241.88C59.6661 -1242.54 58.7085 -1243.12 57.7231 -1243.63C56.4129 -1243.54 55.1222 -1243.36 53.8595 -1243.08L56.7804 -1239.85ZM50.9626 -1246L50.9689 -1246L50.9579 -1246L50.9626 -1246ZM-580.811 -588.351C-581.211 -593.198 -580.237 -597.988 -578.075 -602.219L-555.787 -579.136L-564.932 -569.25C-565.784 -568.331 -566.573 -567.363 -567.296 -566.355L-573.102 -572.012C-577.565 -576.368 -580.295 -582.164 -580.811 -588.351ZM-562.316 -566.843L-553.314 -576.575L-531.004 -553.468L-541.628 -541.345L-564.713 -563.837C-563.991 -564.89 -563.191 -565.896 -562.316 -566.843ZM-539.083 -538.865L-528.531 -550.907L-506.954 -528.56L-516.608 -516.966L-539.083 -538.865ZM-514.062 -514.485L-504.477 -525.995L-483.581 -504.353L-492.336 -493.317L-514.062 -514.485ZM-489.77 -490.816L-481.083 -501.765L-460.805 -480.764L-468.726 -470.311L-489.77 -490.816ZM-466.153 -467.805L-458.3 -478.17L-438.596 -457.762L-445.739 -447.914L-466.153 -467.805ZM-443.158 -445.399L-436.081 -455.158L-416.909 -435.302L-423.326 -426.075L-443.158 -445.399ZM-420.744 -423.56L-414.391 -432.694L-395.706 -413.341L-401.443 -404.754L-420.744 -423.56ZM-398.855 -402.232L-393.18 -410.726L-374.958 -391.852L-380.059 -383.918L-398.855 -402.232ZM-377.457 -381.383L-372.417 -389.221L-354.618 -370.787L-359.123 -363.519L-377.457 -381.383ZM3.42676 -5.10813L3.74582 -4.77773L4.50701 -4.11423L3.42676 -5.10813ZM64.5205 46.2713L22.7259 7.81765C30.0079 7.91963 37.3325 5.27697 42.9785 -0.144747L656.432 -589.385C662.653 -595.366 665.82 -603.715 665.109 -612.315C664.585 -618.817 661.772 -625.014 657.217 -629.723L189.163 -1114.47L193.752 -1123.2L706.366 -623.739C710.827 -619.398 713.559 -613.587 714.075 -607.4L714.091 -607.402C714.706 -599.93 712.048 -592.564 706.793 -587.196L92.2892 40.1676C84.8622 47.7586 73.8717 49.8095 64.5205 46.2713ZM191.081 -1125.8L186.547 -1117.18L179.359 -1124.62L183.828 -1132.87L191.081 -1125.8ZM181.181 -1135.45L176.768 -1127.31L169.667 -1134.66L174.014 -1142.43L181.181 -1135.45ZM171.375 -1145L167.085 -1137.33L160.081 -1144.59L164.304 -1151.89L171.375 -1145ZM161.661 -1154.47L157.497 -1147.26L150.589 -1154.42L154.684 -1161.27L161.661 -1154.47ZM152.064 -1163.82L148.027 -1157.07L141.223 -1164.12L145.189 -1170.52L152.064 -1163.82ZM142.576 -1173.06L138.67 -1166.76L132 -1173.67L135.834 -1179.63L142.576 -1173.06ZM133.218 -1182.18L129.446 -1176.31L122.891 -1183.1L126.59 -1188.64L133.218 -1182.18ZM123.994 -1191.17L120.358 -1185.73L113.93 -1192.38L117.491 -1197.5L123.994 -1191.17ZM114.915 -1200.01L111.418 -1194.99L105.143 -1201.48L108.565 -1206.2L114.915 -1200.01ZM105.991 -1208.71L102.635 -1204.08L96.5215 -1210.41L99.8007 -1214.74L105.991 -1208.71ZM97.2358 -1217.24L94.0234 -1213L88.0937 -1219.14L90.0153 -1221.56C90.4212 -1222.08 90.841 -1222.57 91.2735 -1223.05L97.2358 -1217.24ZM87.2026 -1223.77L85.5883 -1221.74L79.9872 -1227.54C81.1249 -1228.63 82.3426 -1229.62 83.6283 -1230.5L88.7129 -1225.54C88.1928 -1224.98 87.6889 -1224.38 87.2026 -1223.77ZM81.0357 -1233.02C79.8006 -1232.14 78.624 -1231.16 77.5142 -1230.1L72.9937 -1234.78C74.3756 -1235.54 75.8112 -1236.17 77.2832 -1236.67C77.3994 -1236.57 77.5149 -1236.45 77.6294 -1236.34L81.0357 -1233.02ZM74.0903 -1239.24C72.8475 -1238.71 71.6335 -1238.1 70.4572 -1237.41L67.5692 -1240.4C68.7908 -1240.65 70.0375 -1240.81 71.3027 -1240.89C72.2625 -1240.4 73.1934 -1239.85 74.0903 -1239.24ZM-566.576 -560.674C-568.75 -556.327 -569.731 -551.419 -569.327 -546.5C-568.778 -539.81 -565.746 -533.626 -560.798 -529.062L-555.997 -524.644C-555.316 -525.624 -554.575 -526.572 -553.775 -527.483L-543.981 -538.659L-566.576 -560.674ZM-541.436 -536.18L-551.104 -525.147C-551.925 -524.21 -552.676 -523.23 -553.354 -522.213L-530.075 -500.795L-518.896 -514.219L-541.436 -536.18ZM-516.35 -511.738L-527.464 -498.392L-504.831 -477.569L-494.563 -490.51L-516.35 -511.738ZM-491.997 -488.009L-502.201 -475.148L-480.317 -455.014L-470.895 -467.449L-491.997 -488.009ZM-468.322 -464.943L-477.682 -452.59L-456.488 -433.09L-447.853 -444.998L-468.322 -464.943ZM-445.272 -442.484L-453.847 -430.66L-433.291 -411.747L-425.388 -423.11L-445.272 -442.484ZM-422.806 -420.594L-430.649 -409.316L-410.674 -390.938L-403.456 -401.741L-422.806 -420.594ZM-400.868 -399.22L-408.028 -388.504L-388.603 -370.631L-382.025 -380.861L-400.868 -399.22ZM-379.423 -378.325L-385.944 -368.185L-367.021 -350.774L-361.045 -360.418L-379.423 -378.325ZM-358.432 -357.873L-364.353 -348.319L-345.906 -331.347L-340.493 -340.395L-358.432 -357.873ZM-337.862 -337.83L-343.219 -328.875L-325.206 -312.302L-320.326 -320.744L-337.862 -337.83ZM69.9351 51.2532C78.8166 52.3989 88.1154 49.5236 94.8376 42.6617L709.355 -584.719C715.325 -590.811 718.346 -599.189 717.647 -607.695C717.071 -614.729 713.953 -621.33 708.878 -626.274L195.483 -1126.49L199.506 -1134.15L758.086 -620.203C763.032 -615.655 766.067 -609.455 766.615 -602.765L766.617 -602.75C767.244 -595.311 764.687 -587.895 759.606 -582.406L144.049 83.0655C134.662 93.2115 119.16 94.4549 108.309 86.3657L104.296 82.8675L69.9351 51.2532ZM192.812 -1129.1L196.783 -1136.65L189.507 -1143.35L185.594 -1136.13L192.812 -1129.1ZM182.947 -1138.71L186.808 -1145.83L179.617 -1152.45L175.817 -1145.65L182.947 -1138.71ZM173.178 -1148.23L176.925 -1154.92L169.83 -1161.45L166.145 -1155.08L173.178 -1148.23ZM163.503 -1157.65L167.133 -1163.93L160.132 -1170.37L156.566 -1164.41L163.503 -1157.65ZM153.946 -1166.96L157.457 -1172.84L150.559 -1179.18L147.113 -1173.62L153.946 -1166.96ZM144.499 -1176.17L147.889 -1181.64L141.125 -1187.86L137.802 -1182.69L144.499 -1176.17ZM135.186 -1185.24L138.452 -1190.32L131.802 -1196.44L128.605 -1191.65L135.186 -1185.24ZM126.009 -1194.18L129.148 -1198.88L122.624 -1204.88L119.555 -1200.47L126.009 -1194.18ZM116.979 -1202.98L119.989 -1207.31L113.618 -1213.17L110.68 -1209.12L116.979 -1202.98ZM108.107 -1211.63L110.984 -1215.59L104.985 -1221.11C104.015 -1220.14 103.1 -1219.09 102.248 -1217.97L101.971 -1217.61L108.107 -1211.63ZM99.406 -1220.1L99.4122 -1220.11C100.334 -1221.33 101.322 -1222.47 102.368 -1223.52L97.3304 -1228.16C96.1083 -1227.38 94.9348 -1226.51 93.8216 -1225.55L99.406 -1220.1ZM91.2572 -1228.04C92.3315 -1228.99 93.4571 -1229.86 94.6253 -1230.65L91.1299 -1233.86C91.1003 -1233.89 91.0706 -1233.92 91.0408 -1233.94C90.9937 -1233.99 90.9464 -1234.03 90.8991 -1234.07C89.4883 -1233.61 88.1203 -1233.05 86.8051 -1232.38L91.2572 -1228.04ZM84.1317 -1234.99C85.2421 -1235.6 86.3888 -1236.15 87.5669 -1236.64C86.7089 -1237.19 85.8229 -1237.7 84.9127 -1238.15C83.7062 -1238.09 82.5042 -1237.95 81.3147 -1237.73L84.1317 -1234.99ZM-557.86 -504.661C-558.278 -509.715 -557.336 -514.649 -555.168 -519.065L-532.346 -498.067L-542.647 -485.697C-543.404 -484.789 -544.105 -483.848 -544.751 -482.878L-548.48 -486.128C-553.927 -490.882 -557.264 -497.471 -557.86 -504.661ZM-539.908 -483.449L-529.735 -495.665L-507.041 -474.783L-518.661 -460.137L-542.051 -480.525C-541.404 -481.535 -540.689 -482.511 -539.908 -483.449ZM-515.971 -457.792L-504.41 -472.363L-482.468 -452.175L-493.231 -437.97L-515.971 -457.792ZM-490.538 -435.623L-479.834 -449.75L-458.585 -430.2L-468.551 -416.458L-490.538 -435.623ZM-465.852 -414.105L-455.943 -427.769L-435.335 -408.808L-444.559 -395.545L-465.852 -414.105ZM-441.861 -393.194L-432.693 -406.377L-412.669 -387.953L-421.2 -375.184L-441.861 -393.194ZM-418.5 -372.831L-410.023 -385.518L-390.551 -367.602L-398.435 -355.341L-418.5 -372.831ZM-395.723 -352.977L-387.891 -365.156L-368.924 -347.704L-376.201 -335.961L-395.723 -352.977ZM-373.481 -333.59L-366.256 -345.249L-347.766 -328.237L-354.474 -317.022L-373.481 -333.59ZM-351.736 -314.635L-345.079 -325.764L-327.026 -309.154L-333.199 -298.477L-351.736 -314.635ZM-330.461 -296.091L-324.338 -306.681L-306.693 -290.446L-312.361 -280.314L-330.461 -296.091ZM-309.621 -277.925L-304.002 -287.969L-286.736 -272.084L-291.928 -262.504L-309.621 -277.925ZM156.707 128.552L117.582 94.4484C127.839 96.7635 139.032 93.7103 146.663 85.4564L762.22 -580.015C767.968 -586.237 770.874 -594.647 770.169 -603.074C769.541 -610.64 766.102 -617.659 760.492 -622.82L201.218 -1137.4L204.74 -1144.1L809.802 -616.698C815.265 -611.946 818.584 -605.371 819.182 -598.165L819.197 -598.167C819.835 -590.65 817.419 -583.363 812.442 -577.682L195.834 125.913C185.753 137.403 168.221 138.583 156.707 128.552ZM201.97 -1146.52L198.495 -1139.91L191.254 -1146.57L194.673 -1152.88L201.97 -1146.52ZM191.926 -1155.27L188.555 -1149.05L181.401 -1155.64L184.715 -1161.56L191.926 -1155.27ZM181.974 -1163.95L178.709 -1158.11L171.653 -1164.6L174.859 -1170.15L181.974 -1163.95ZM172.112 -1172.54L168.956 -1167.09L161.996 -1173.49L165.091 -1178.66L172.112 -1172.54ZM162.365 -1181.04L159.321 -1175.95L152.466 -1182.26L155.448 -1187.07L162.365 -1181.04ZM152.726 -1189.44L149.796 -1184.71L143.077 -1190.9L145.943 -1195.35L152.726 -1189.44ZM143.217 -1197.73L140.404 -1193.36L133.801 -1199.43L136.548 -1203.54L143.217 -1197.73ZM133.84 -1205.9L131.147 -1201.87L124.672 -1207.83L126.73 -1210.79C126.919 -1211.06 127.113 -1211.33 127.31 -1211.6L133.84 -1205.9ZM123.814 -1212.81L122.038 -1210.25L115.77 -1216.02C116.682 -1217.12 117.66 -1218.15 118.697 -1219.1L124.628 -1213.93C124.35 -1213.57 124.079 -1213.19 123.814 -1212.81ZM116 -1221.45C114.997 -1220.51 114.045 -1219.5 113.15 -1218.43L107.653 -1223.49C108.729 -1224.34 109.853 -1225.11 111.017 -1225.8L116 -1221.45ZM108.211 -1228.24C107.106 -1227.54 106.036 -1226.76 105.008 -1225.92L100.62 -1229.96C101.887 -1230.55 103.19 -1231.05 104.519 -1231.46C104.551 -1231.43 104.583 -1231.41 104.615 -1231.38L108.211 -1228.24ZM101.052 -1234.02C99.9507 -1233.58 98.8694 -1233.09 97.8137 -1232.54L95.0519 -1235.08C95.7533 -1235.2 96.4621 -1235.29 97.1773 -1235.36C97.6033 -1235.4 98.0289 -1235.43 98.4536 -1235.45C99.3383 -1235.02 100.206 -1234.54 101.052 -1234.02ZM-543.815 -477.34C-545.934 -472.859 -546.843 -467.888 -546.424 -462.819C-545.779 -455.113 -542.155 -448.134 -536.177 -443.193L-533.571 -441.035C-532.939 -442.035 -532.251 -443.006 -531.508 -443.944L-520.876 -457.345L-543.815 -477.34ZM-518.186 -455L-528.711 -441.735C-529.474 -440.774 -530.171 -439.774 -530.802 -438.741L-507.359 -419.325L-495.386 -435.126L-518.186 -455ZM-492.693 -432.779L-504.611 -417.049L-481.814 -398.168L-470.649 -413.564L-492.693 -432.779ZM-467.95 -411.212L-479.062 -395.888L-457.018 -377.63L-446.603 -392.604L-467.95 -411.212ZM-443.906 -390.253L-454.269 -375.353L-432.908 -357.661L-423.194 -372.2L-443.906 -390.253ZM-420.494 -369.846L-430.158 -355.383L-409.44 -338.224L-400.381 -352.314L-420.494 -369.846ZM-397.669 -349.95L-406.679 -335.938L-386.549 -319.264L-378.102 -332.894L-397.669 -349.95ZM-375.381 -330.523L-383.78 -316.971L-364.204 -300.757L-356.331 -313.918L-375.381 -330.523ZM-353.593 -311.531L-361.418 -298.45L-342.346 -282.654L-335.014 -295.337L-353.593 -311.531ZM-332.276 -292.951L-339.562 -280.348L-320.961 -264.942L-314.137 -277.14L-332.276 -292.951ZM-311.397 -274.751L-318.175 -262.634L-300.011 -247.59L-293.667 -259.296L-311.397 -274.751ZM-290.92 -256.902L-297.219 -245.278L-279.473 -230.58L-273.581 -241.789L-290.92 -256.902ZM164.505 137.142L207.226 172.526C219.378 182.586 237.479 180.907 247.591 168.781L865.249 -572.938C870.071 -578.726 872.386 -586.048 871.767 -593.552L871.753 -593.534C871.106 -601.256 867.483 -608.22 861.504 -613.176L209.513 -1153.18L206.443 -1147.34L812.154 -619.371C818.295 -614.009 822.07 -606.589 822.738 -598.458C823.435 -589.967 820.726 -581.756 815.113 -575.345L198.507 128.265C189.837 138.154 176.236 141.264 164.505 137.142ZM203.672 -1149.76L206.698 -1155.52L199.385 -1161.57L196.411 -1156.09L203.672 -1149.76ZM193.664 -1158.48L196.593 -1163.88L189.365 -1169.87L186.491 -1164.73L193.664 -1158.48ZM183.75 -1167.12L186.579 -1172.18L179.447 -1178.09L176.675 -1173.29L183.75 -1167.12ZM173.927 -1175.68L176.653 -1180.4L169.616 -1186.23L166.948 -1181.77L173.927 -1175.68ZM164.222 -1184.14L166.843 -1188.53L159.909 -1194.27L157.348 -1190.14L164.222 -1184.14ZM154.626 -1192.51L157.139 -1196.56L150.34 -1202.19L147.889 -1198.38L154.626 -1192.51ZM145.163 -1200.76L147.564 -1204.49L141.011 -1209.92C140.293 -1209.05 139.615 -1208.13 138.98 -1207.18L138.542 -1206.53L145.163 -1200.76ZM135.834 -1208.89L136.008 -1209.15C136.715 -1210.21 137.471 -1211.22 138.271 -1212.19L132.405 -1217.05C131.414 -1216.21 130.472 -1215.3 129.581 -1214.34L135.834 -1208.89ZM126.904 -1216.67C127.769 -1217.61 128.68 -1218.51 129.632 -1219.35L124.695 -1223.43C123.586 -1222.82 122.517 -1222.14 121.491 -1221.39L126.904 -1216.67ZM118.745 -1223.79C119.718 -1224.53 120.728 -1225.22 121.773 -1225.85L118.135 -1228.87C116.879 -1228.5 115.643 -1228.06 114.437 -1227.54L118.745 -1223.79ZM111.502 -1230.1C112.496 -1230.59 113.512 -1231.03 114.544 -1231.42C113.736 -1231.9 112.907 -1232.35 112.061 -1232.75C110.975 -1232.7 109.892 -1232.6 108.818 -1232.44L111.502 -1230.1ZM-535.005 -420.976C-535.42 -426.014 -534.547 -431.001 -532.505 -435.521L-509.515 -416.479L-520.365 -402.16C-521.11 -401.178 -521.797 -400.161 -522.426 -399.115L-523.858 -400.245C-530.262 -405.305 -534.323 -412.863 -535.005 -420.976ZM-517.514 -400.021L-506.767 -414.203L-483.913 -395.274L-496.159 -378.388L-519.6 -396.885C-518.973 -397.967 -518.277 -399.014 -517.514 -400.021ZM-493.357 -376.177L-481.161 -392.995L-459.062 -374.691L-470.546 -358.177L-493.357 -376.177ZM-467.749 -355.97L-456.313 -372.414L-434.901 -354.679L-445.676 -338.552L-467.749 -355.97ZM-442.879 -336.345L-432.151 -352.401L-411.384 -335.201L-421.497 -319.473L-442.879 -336.345ZM-418.691 -317.258L-408.623 -332.914L-388.446 -316.202L-397.94 -300.884L-418.691 -317.258ZM-395.126 -298.663L-385.678 -313.909L-366.057 -297.659L-374.97 -282.759L-395.126 -298.663ZM-372.14 -280.525L-363.271 -295.351L-344.158 -279.52L-352.525 -265.047L-372.14 -280.525ZM-349.698 -262.816L-341.374 -277.214L-322.733 -261.775L-330.587 -247.736L-349.698 -262.816ZM-327.758 -245.504L-319.947 -259.467L-301.745 -244.391L-309.115 -230.792L-327.758 -245.504ZM-306.282 -228.557L-298.953 -242.079L-281.17 -227.35L-288.084 -214.197L-306.282 -228.557ZM-285.234 -211.948L-278.361 -225.023L193.917 166.147L-285.234 -211.948ZM257.747 216.515L209.477 178.425C222.802 186.065 240.171 183.268 250.32 171.078L867.978 -570.641C873.404 -577.155 876.001 -585.383 875.309 -593.827C874.588 -602.505 870.506 -610.345 863.786 -615.903L211.208 -1156.41L213.884 -1161.5L913.22 -609.671C919.624 -604.611 923.683 -597.069 924.351 -588.938L924.366 -588.94C924.984 -581.452 922.754 -574.078 918.073 -568.181L299.362 211.646C289.224 224.44 270.553 226.619 257.747 216.515ZM211.028 -1163.75L208.394 -1158.74L201.116 -1164.77L203.7 -1169.54L211.028 -1163.75ZM200.867 -1171.77L198.325 -1167.08L191.135 -1173.03L193.625 -1177.49L200.867 -1171.77ZM190.796 -1179.72L188.349 -1175.34L181.257 -1181.22L183.651 -1185.36L190.796 -1179.72ZM180.813 -1187.6L178.463 -1183.53L171.468 -1189.32L173.762 -1193.16L180.813 -1187.6ZM170.945 -1195.38L168.695 -1191.62L161.805 -1197.33L163.461 -1200C163.64 -1200.29 163.822 -1200.57 164.008 -1200.86L170.945 -1195.38ZM160.423 -1201.86L159.035 -1199.62L152.324 -1205.18C153.08 -1206.23 153.887 -1207.22 154.743 -1208.17L161.202 -1203.07C160.936 -1202.67 160.676 -1202.27 160.423 -1201.86ZM151.931 -1210.39C151.099 -1209.46 150.309 -1208.48 149.564 -1207.47L143.423 -1212.55C144.29 -1213.4 145.199 -1214.2 146.148 -1214.95L151.931 -1210.39ZM143.287 -1217.21C142.38 -1216.46 141.507 -1215.67 140.672 -1214.83L135.328 -1219.26C136.313 -1219.92 137.334 -1220.52 138.388 -1221.07L143.287 -1217.21ZM135.359 -1223.46C134.372 -1222.89 133.413 -1222.27 132.486 -1221.61L128.246 -1225.12C129.388 -1225.58 130.562 -1225.97 131.763 -1226.3L135.359 -1223.46ZM128.024 -1228.85C127.053 -1228.5 126.101 -1228.1 125.171 -1227.67L122.596 -1229.8C123.618 -1229.94 124.647 -1230.03 125.678 -1230.06C126.473 -1229.69 127.256 -1229.29 128.024 -1228.85ZM-521.239 -393.623C-523.185 -389.088 -524.011 -384.119 -523.6 -379.13C-522.881 -370.467 -518.501 -362.523 -511.554 -357.294L-511.317 -357.116C-510.678 -358.242 -509.975 -359.337 -509.208 -360.394L-498.259 -375.491L-521.239 -393.623ZM-495.457 -373.28L-506.316 -358.307C-507.099 -357.229 -507.809 -356.108 -508.443 -354.951L-485.05 -337.322L-472.591 -355.237L-495.457 -373.28ZM-469.793 -353.03L-482.207 -335.18L-459.408 -318L-447.667 -335.572L-469.793 -353.03ZM-444.87 -333.364L-456.567 -315.858L-434.509 -299.237L-423.439 -316.454L-444.87 -333.364ZM-420.632 -314.239L-431.659 -297.089L-410.277 -280.976L-399.834 -297.828L-420.632 -314.239ZM-397.02 -295.608L-407.421 -278.824L-386.675 -263.191L-376.819 -279.668L-397.02 -295.608ZM-373.988 -277.434L-383.803 -261.026L-363.635 -245.829L-354.331 -261.923L-373.988 -277.434ZM-351.504 -259.693L-360.768 -243.668L-341.138 -228.876L-332.352 -244.581L-351.504 -259.693ZM-329.523 -242.349L-338.27 -226.715L-319.138 -212.298L-310.841 -227.607L-329.523 -242.349ZM-308.008 -225.372L-316.266 -210.134L-297.61 -196.075L-289.773 -210.984L-308.008 -225.372ZM-286.923 -208.735L-294.722 -193.898L308.267 260.489C321.725 270.621 340.95 267.944 351.12 254.529L970.882 -563.422C975.425 -569.412 977.584 -576.84 976.967 -584.328L976.953 -584.311C976.236 -592.958 971.854 -600.918 964.922 -606.148L217.875 -1169.09L215.561 -1164.69L915.433 -612.437C922.609 -606.778 927.15 -598.316 927.909 -589.216C928.61 -580.82 926.097 -572.555 920.857 -565.954L302.146 213.873C290.791 228.183 269.873 230.615 255.536 219.297L-286.923 -208.735ZM212.705 -1166.94L214.981 -1171.27L207.64 -1176.8L205.413 -1172.7L212.705 -1166.94ZM202.58 -1174.93L204.768 -1178.97L197.513 -1184.44L195.376 -1180.62L202.58 -1174.93ZM192.547 -1182.85L194.645 -1186.6L187.487 -1191.99L185.442 -1188.45L192.547 -1182.85ZM182.605 -1190.69L184.609 -1194.16L177.684 -1199.38C176.978 -1198.42 176.315 -1197.43 175.696 -1196.39L175.595 -1196.22L182.605 -1190.69ZM172.779 -1198.45C173.424 -1199.51 174.112 -1200.53 174.841 -1201.52L168.456 -1206.33C167.635 -1205.51 166.85 -1204.63 166.104 -1203.71L172.779 -1198.45ZM163.307 -1205.92C164.034 -1206.82 164.795 -1207.68 165.588 -1208.49L159.876 -1212.8C158.975 -1212.14 158.106 -1211.43 157.272 -1210.68L163.307 -1205.92ZM154.43 -1212.93C155.228 -1213.66 156.056 -1214.37 156.912 -1215.03L152.079 -1218.67C151.084 -1218.19 150.117 -1217.65 149.178 -1217.07L154.43 -1212.93ZM146.231 -1219.4C147.109 -1219.98 148.012 -1220.53 148.938 -1221.04L145.362 -1223.74C144.233 -1223.45 143.126 -1223.1 142.046 -1222.7L146.231 -1219.4ZM138.838 -1225.23C139.705 -1225.61 140.59 -1225.96 141.489 -1226.27C140.745 -1226.69 139.989 -1227.06 139.222 -1227.41C138.268 -1227.38 137.309 -1227.31 136.351 -1227.19L138.838 -1225.23ZM-512.209 -337.266C-512.617 -342.205 -511.846 -347.134 -510.006 -351.665L-487.086 -334.394L-498.051 -318.627C-498.849 -317.48 -499.576 -316.291 -500.23 -315.067C-507.136 -320.474 -511.475 -328.497 -512.209 -337.266ZM-495.134 -316.591L-484.243 -332.251L-461.391 -315.032L-474.018 -296.133L-497.328 -312.944C-496.68 -314.202 -495.948 -315.421 -495.134 -316.591ZM-471.135 -294.055L-458.55 -312.891L-436.442 -296.231L-448.389 -277.65L-471.135 -294.055ZM-445.499 -275.566L-433.592 -294.084L-412.162 -277.935L-423.474 -259.682L-445.499 -275.566ZM-420.578 -257.594L-409.306 -275.783L-388.515 -260.116L-399.232 -242.2L-420.578 -257.594ZM-396.32 -240.1L-385.642 -257.951L-365.431 -242.722L-375.59 -225.15L-396.32 -240.1ZM-372.685 -223.055L-362.564 -240.561L-342.893 -225.738L-352.527 -208.517L-372.685 -223.055ZM-349.622 -206.422L-340.025 -223.577L-320.854 -209.131L-329.994 -192.267L-349.622 -206.422ZM-327.086 -190.17L-317.983 -206.967L-299.289 -192.88L-307.962 -176.378L-327.086 -190.17ZM-305.039 -174.27L-296.401 -190.704L306.143 263.339C321.162 274.666 342.627 271.673 353.974 256.684L973.736 -561.267C978.807 -567.957 981.22 -576.257 980.525 -584.606C979.726 -594.271 974.816 -603.146 967.079 -608.986L219.551 -1172.28L221.534 -1176.05L1016.64 -602.643C1024.11 -597.244 1028.83 -588.884 1029.6 -579.705C1030.22 -572.217 1028.13 -564.75 1023.71 -558.664L402.894 297.41C392.696 311.478 372.901 314.655 358.804 304.476L-305.039 -174.27ZM218.604 -1178.17L216.657 -1174.46L209.353 -1179.96L211.251 -1183.47L218.604 -1178.17ZM208.343 -1185.56L206.481 -1182.13L199.264 -1187.57L200.165 -1189.18C200.47 -1189.72 200.786 -1190.26 201.113 -1190.78L208.343 -1185.56ZM197.063 -1190.92L196.396 -1189.73L189.352 -1195.04C189.994 -1195.99 190.675 -1196.91 191.393 -1197.79L198.22 -1192.87C197.82 -1192.23 197.434 -1191.58 197.063 -1190.92ZM188.491 -1199.88C187.792 -1199.02 187.126 -1198.12 186.494 -1197.19L179.931 -1202.14C180.65 -1202.93 181.402 -1203.7 182.184 -1204.43L188.491 -1199.88ZM179.246 -1206.55C178.495 -1205.82 177.772 -1205.07 177.078 -1204.29L171.133 -1208.77C171.933 -1209.42 172.758 -1210.04 173.605 -1210.62L179.246 -1206.55ZM170.555 -1212.82C169.754 -1212.23 168.974 -1211.61 168.215 -1210.96L163.042 -1214.86C163.927 -1215.37 164.835 -1215.84 165.766 -1216.27L170.555 -1212.82ZM162.495 -1218.63C161.635 -1218.18 160.793 -1217.69 159.972 -1217.17L155.885 -1220.25C156.897 -1220.6 157.93 -1220.91 158.982 -1221.16L162.495 -1218.63ZM154.99 -1223.7C154.16 -1223.42 153.343 -1223.11 152.54 -1222.78L150.129 -1224.59C151.02 -1224.69 151.91 -1224.74 152.797 -1224.77C153.539 -1224.44 154.271 -1224.08 154.99 -1223.7ZM-498.809 -309.629C-500.527 -305.123 -501.235 -300.259 -500.836 -295.416C-500.106 -286.609 -495.881 -278.595 -489.138 -273.037C-488.471 -274.343 -487.723 -275.619 -486.895 -276.861L-475.994 -293.176L-498.809 -309.629ZM-473.112 -291.097L-483.938 -274.893C-484.802 -273.598 -485.569 -272.261 -486.237 -270.89L-463.048 -254.852L-450.314 -274.656L-473.112 -291.097ZM-447.425 -272.572L-460.121 -252.828L-437.442 -237.143L-425.351 -256.653L-447.425 -272.572ZM-422.455 -254.565L-434.509 -235.115L-412.553 -219.931L-401.063 -239.138L-422.455 -254.565ZM-398.152 -237.038L-409.604 -217.892L-388.303 -203.16L-377.378 -222.057L-398.152 -237.038ZM-374.474 -219.962L-385.363 -201.127L-364.668 -186.815L-354.274 -205.394L-374.474 -219.962ZM-351.369 -203.299L-361.728 -184.781L-341.597 -170.859L-331.702 -189.116L-351.369 -203.299ZM-328.794 -187.019L-338.655 -168.824L-319.057 -155.271L-309.633 -173.2L-328.794 -187.019ZM-306.71 -171.092L-316.101 -153.226L409.325 348.466C416.473 353.4 425.117 355.279 433.69 353.732C442.247 352.187 449.698 347.411 454.665 340.275L1076.53 -553.907C1080.83 -560.088 1082.86 -567.612 1082.23 -575.082L1082.25 -575.1C1081.44 -584.827 1076.37 -593.587 1068.35 -599.138L224.898 -1182.45C224.814 -1182.29 224.731 -1182.14 224.649 -1181.98L223.204 -1179.23L1018.73 -605.52C1027.05 -599.517 1032.3 -590.226 1033.16 -579.998C1033.85 -571.681 1031.52 -563.359 1026.6 -556.578L405.784 299.481C394.427 315.136 372.414 318.674 356.715 307.353L-306.71 -171.092ZM220.274 -1181.34L221.479 -1183.63C221.63 -1183.92 221.784 -1184.21 221.94 -1184.49L214.778 -1189.44C214.14 -1188.53 213.538 -1187.58 212.973 -1186.61L220.274 -1181.34ZM210.075 -1188.7C210.635 -1189.65 211.228 -1190.57 211.853 -1191.47L205.125 -1196.12C204.432 -1195.35 203.767 -1194.54 203.132 -1193.71L210.075 -1188.7ZM200.243 -1195.79C200.861 -1196.61 201.505 -1197.4 202.174 -1198.16L195.939 -1202.47C195.194 -1201.83 194.474 -1201.15 193.78 -1200.45L200.243 -1195.79ZM190.853 -1202.56C191.518 -1203.25 192.206 -1203.92 192.917 -1204.56L187.329 -1208.43C186.527 -1207.91 185.746 -1207.37 184.988 -1206.79L190.853 -1202.56ZM181.982 -1208.96C182.696 -1209.53 183.43 -1210.08 184.182 -1210.6L179.472 -1213.86C178.602 -1213.48 177.747 -1213.07 176.907 -1212.62L181.982 -1208.96ZM173.731 -1214.91C174.504 -1215.37 175.292 -1215.8 176.092 -1216.2L172.615 -1218.6C171.631 -1218.38 170.663 -1218.11 169.713 -1217.81L173.731 -1214.91ZM166.208 -1220.33C166.95 -1220.63 167.704 -1220.9 168.468 -1221.15C167.792 -1221.5 167.105 -1221.83 166.409 -1222.13C165.579 -1222.11 164.748 -1222.07 163.915 -1221.99L166.208 -1220.33ZM-489.463 -253.566C-489.864 -258.391 -489.239 -263.122 -487.642 -267.563L-464.961 -251.876L-475.753 -235.092C-476.601 -233.77 -477.361 -232.41 -478.034 -231.02C-484.625 -236.717 -488.737 -244.728 -489.463 -253.566ZM-472.756 -233.178L-462.034 -249.852L-439.307 -234.133L-452.112 -213.472L-474.623 -228.429C-474.802 -228.548 -474.979 -228.668 -475.155 -228.79C-474.467 -230.293 -473.667 -231.759 -472.756 -233.178ZM-449.144 -211.5L-436.374 -232.105L-414.372 -216.888L-426.568 -196.5L-449.144 -211.5ZM-423.585 -194.518L-411.424 -214.849L-390.079 -200.087L-401.704 -179.979L-423.585 -194.518ZM-398.731 -178.004L-387.139 -198.054L-366.404 -183.713L-377.492 -163.893L-398.731 -178.004ZM-374.519 -161.918L-363.464 -181.679L-343.293 -167.729L-353.876 -148.202L-374.519 -161.918ZM-350.903 -146.226L-340.351 -165.694L-320.716 -152.115L-330.824 -132.885L-350.903 -146.226ZM-327.836 -130.9L-317.76 -150.07L407.289 351.384C415.219 356.867 424.822 358.941 434.323 357.229C443.839 355.499 452.093 350.194 457.597 342.293L1079.46 -551.889C1084.23 -558.746 1086.48 -567.089 1085.79 -575.391C1084.89 -586.184 1079.27 -595.902 1070.37 -602.054L226.732 -1185.51C227.29 -1186.36 227.876 -1187.18 228.49 -1187.98L1120.06 -595.616C1128.63 -589.913 1134.05 -580.755 1134.9 -570.478L1134.88 -570.461C1135.53 -562.881 1133.6 -555.498 1129.35 -549.15L506.439 383.156C501.447 390.596 493.876 395.672 485.075 397.422C476.275 399.172 467.313 397.412 459.846 392.456L-327.836 -130.9ZM225.506 -1189.96C224.909 -1189.18 224.337 -1188.38 223.791 -1187.55L216.948 -1192.28C217.558 -1193.01 218.192 -1193.71 218.849 -1194.39L225.506 -1189.96ZM215.841 -1196.39C215.211 -1195.72 214.601 -1195.02 214.012 -1194.31L207.666 -1198.7C208.329 -1199.31 209.011 -1199.9 209.71 -1200.46L215.841 -1196.39ZM206.608 -1202.52C205.946 -1201.96 205.299 -1201.38 204.67 -1200.77L198.886 -1204.77C199.597 -1205.27 200.326 -1205.75 201.073 -1206.2L206.608 -1202.52ZM197.82 -1208.36C197.124 -1207.9 196.443 -1207.42 195.778 -1206.92L190.774 -1210.38C191.552 -1210.77 192.344 -1211.13 193.152 -1211.46L197.82 -1208.36ZM189.649 -1213.79C188.913 -1213.43 188.189 -1213.06 187.478 -1212.66L183.576 -1215.36C184.458 -1215.62 185.35 -1215.85 186.25 -1216.05L189.649 -1213.79ZM181.982 -1218.58C181.294 -1218.37 180.611 -1218.13 179.935 -1217.88L177.752 -1219.39C178.509 -1219.45 179.266 -1219.48 180.022 -1219.49C180.683 -1219.21 181.337 -1218.91 181.982 -1218.58ZM-476.491 -225.406C-477.952 -221.041 -478.513 -216.421 -478.123 -211.729C-477.387 -202.861 -473.378 -194.833 -466.924 -189.012C-466.244 -190.485 -465.467 -191.926 -464.597 -193.326L-453.983 -210.451L-476.491 -225.406ZM-451.016 -208.479L-461.572 -191.446C-462.524 -189.909 -463.352 -188.319 -464.053 -186.687C-463.485 -186.275 -462.902 -185.877 -462.305 -185.496L-441.216 -172.013L-428.394 -193.448L-451.016 -208.479ZM-425.411 -191.467L-438.201 -170.085L-415.73 -155.717L-403.485 -176.898L-425.411 -191.467ZM-400.512 -174.923L-412.726 -153.797L-390.934 -139.864L-379.231 -160.783L-400.512 -174.923ZM-376.259 -158.808L-387.931 -137.944L-366.769 -124.413L-355.576 -145.066L-376.259 -158.808ZM-352.602 -143.09L-363.765 -122.493L-343.198 -109.343L-332.486 -129.724L-352.602 -143.09ZM-329.498 -127.738L-340.181 -107.413L510.397 436.425C526.47 446.701 547.91 442.017 558.222 425.987L1182.19 -544.426C1186.33 -550.855 1188.19 -558.278 1187.56 -565.891L1187.56 -565.875C1186.66 -576.699 1180.9 -586.258 1171.76 -592.109L232.616 -1192.57C231.984 -1191.97 231.371 -1191.34 230.778 -1190.7L1121.99 -598.568C1131.5 -592.256 1137.47 -582.123 1138.42 -570.767C1139.11 -562.37 1137.01 -554.22 1132.31 -547.182L509.378 385.11C503.887 393.357 495.481 398.967 485.756 400.913C476.028 402.844 466.11 400.905 457.863 395.414L-329.498 -127.738ZM227.766 -1192.7C228.335 -1193.33 228.921 -1193.95 229.523 -1194.55L223.439 -1198.44C222.772 -1197.94 222.122 -1197.41 221.488 -1196.87L227.766 -1192.7ZM218.422 -1198.91C219.021 -1199.45 219.635 -1199.97 220.263 -1200.47L214.839 -1203.94C214.134 -1203.54 213.441 -1203.12 212.76 -1202.67L218.422 -1198.91ZM209.554 -1204.8C210.186 -1205.25 210.83 -1205.67 211.483 -1206.08L206.857 -1209.04C206.097 -1208.75 205.348 -1208.43 204.613 -1208.08L209.554 -1204.8ZM201.191 -1210.36C201.859 -1210.71 202.537 -1211.05 203.226 -1211.36L199.867 -1213.51C199.322 -1213.4 198.777 -1213.27 198.233 -1213.13C197.94 -1213.06 197.649 -1212.98 197.358 -1212.9L201.191 -1210.36ZM193.566 -1215.42C194.189 -1215.65 194.819 -1215.85 195.455 -1216.05C194.858 -1216.34 194.255 -1216.61 193.645 -1216.86C192.934 -1216.86 192.224 -1216.83 191.517 -1216.78L193.566 -1215.42ZM-466.779 -169.859C-467.159 -174.421 -466.662 -178.93 -465.334 -183.212C-464.973 -182.963 -464.606 -182.72 -464.233 -182.482L-443.054 -168.94L-453.442 -151.575C-454.33 -150.086 -455.117 -148.554 -455.8 -146.987C-462.071 -152.951 -466.051 -161.102 -466.779 -169.859ZM-450.375 -149.732L-440.038 -167.012L-417.523 -152.616L-430.359 -130.413L-449.997 -142.514C-451.019 -143.145 -452.004 -143.825 -452.949 -144.549C-452.234 -146.328 -451.375 -148.06 -450.375 -149.732ZM-427.325 -128.544L-414.518 -150.696L-392.684 -136.736L-404.973 -114.77L-427.325 -128.544ZM-401.941 -112.901L-389.681 -134.816L-368.478 -121.259L-380.252 -99.5363L-401.941 -112.901ZM-377.219 -97.6678L-365.474 -119.339L-344.869 -106.165L-356.157 -84.6888L-377.219 -97.6678ZM-353.112 -82.8126L-341.852 -104.236L508.467 439.424C526.191 450.741 549.851 445.586 561.22 427.902L1185.19 -542.511C1189.76 -549.613 1191.81 -557.788 1191.11 -566.184C1190.12 -578.12 1183.76 -588.663 1173.67 -595.122L235.411 -1195.01C235.999 -1195.47 236.6 -1195.92 237.214 -1196.36L1223.44 -588.616C1233.02 -582.708 1239.29 -572.487 1240.22 -561.271C1240.85 -553.658 1239.05 -546.18 1235.02 -539.669L609.981 468.87C604.99 476.943 597.112 482.597 587.845 484.786C578.593 486.973 569.027 485.433 560.92 480.43L-353.112 -82.8126ZM233.931 -1198.38C233.357 -1197.94 232.794 -1197.49 232.243 -1197.03L226.643 -1200.61C227.265 -1200.99 227.899 -1201.35 228.543 -1201.7L233.931 -1198.38ZM225.094 -1203.82C224.501 -1203.47 223.918 -1203.1 223.345 -1202.72L218.548 -1205.79C219.218 -1206.08 219.896 -1206.35 220.581 -1206.61L225.094 -1203.82ZM216.823 -1208.92C216.208 -1208.65 215.599 -1208.36 214.997 -1208.06L211.249 -1210.46C212 -1210.65 212.753 -1210.82 213.508 -1210.96L216.823 -1208.92ZM208.942 -1213.51C208.387 -1213.34 207.838 -1213.17 207.294 -1212.98L205.358 -1214.22C205.966 -1214.25 206.573 -1214.27 207.18 -1214.27C207.771 -1214.03 208.359 -1213.78 208.942 -1213.51ZM-454.161 -141.025C-455.367 -136.823 -455.805 -132.425 -455.435 -127.99C-454.711 -119.207 -450.82 -111.056 -444.669 -104.968C-443.98 -106.621 -443.18 -108.238 -442.27 -109.81L-432.137 -127.338L-451.861 -139.492C-452.648 -139.977 -453.415 -140.488 -454.161 -141.025ZM-429.103 -125.468L-439.193 -108.016C-440.231 -106.217 -441.114 -104.353 -441.838 -102.442C-440.522 -101.385 -439.126 -100.413 -437.657 -99.5368L-419.527 -88.7538L-406.708 -111.669L-429.103 -125.468ZM-403.676 -109.8L-416.468 -86.9342L-394.245 -73.7172L-381.946 -96.4102L-403.676 -109.8ZM-378.914 -94.5418L-391.186 -71.898L-369.622 -59.0727L-357.813 -81.5393L-378.914 -94.5418ZM-354.768 -79.6631L-366.551 -57.2464L611.475 524.431C619.896 529.425 629.766 530.864 639.261 528.472C648.772 526.078 656.77 520.124 661.799 511.729L1287.87 -534.915C1291.82 -541.51 1293.57 -549.03 1292.93 -556.658L1292.91 -556.671C1291.94 -568.452 1285.29 -579.084 1275.14 -585.124L242.295 -1199.41C241.703 -1199.11 241.12 -1198.8 240.546 -1198.47L1225.32 -591.64C1235.86 -585.158 1242.75 -573.907 1243.77 -561.58C1244.47 -553.2 1242.49 -544.986 1238.05 -537.822L613.015 470.701C607.511 479.599 598.85 485.811 588.659 488.213C578.454 490.616 567.935 488.927 559.037 483.424L-354.768 -79.6631ZM237.123 -1200.58C237.648 -1200.91 238.181 -1201.23 238.721 -1201.54L234.245 -1204.2C233.618 -1203.98 232.999 -1203.75 232.387 -1203.5L237.123 -1200.58ZM228.718 -1205.76C229.262 -1206.02 229.813 -1206.27 230.371 -1206.51L227.174 -1208.41C226.486 -1208.28 225.802 -1208.14 225.122 -1207.98L228.718 -1205.76ZM221 -1210.52C221.484 -1210.68 221.97 -1210.82 222.458 -1210.96C221.922 -1211.21 221.382 -1211.44 220.837 -1211.66C220.292 -1211.66 219.747 -1211.65 219.201 -1211.63L221 -1210.52ZM-444.124 -86.1316C-444.484 -90.44 -444.096 -94.7227 -442.998 -98.8356C-441.881 -98.001 -440.716 -97.2211 -439.504 -96.5008L-421.263 -85.6515L-431.113 -68.044C-432.042 -66.3875 -432.854 -64.6826 -433.547 -62.9396C-439.589 -69.1338 -443.39 -77.3042 -444.124 -86.1316ZM-428.011 -66.3008L-418.203 -83.8318L-395.939 -70.5902L-408.713 -47.0213L-425.353 -56.586C-427.267 -57.6858 -429.062 -58.9404 -430.726 -60.3294C-429.997 -62.3779 -429.09 -64.3748 -428.011 -66.3008ZM-405.629 -45.2486L-392.881 -68.771L-371.278 -55.9223L-383.557 -32.5614L-405.629 -45.2486ZM-380.461 -30.7822L-368.207 -54.096L609.63 527.483C618.859 532.976 629.68 534.547 640.109 531.91C650.54 529.288 659.32 522.76 664.831 513.545L1290.9 -533.1C1295.22 -540.344 1297.15 -548.598 1296.45 -556.962C1295.39 -569.87 1288.1 -581.53 1276.95 -588.157L246.26 -1201.17C246.812 -1201.38 247.37 -1201.58 247.934 -1201.77L1326.85 -581.619C1337.58 -575.445 1344.6 -564.401 1345.62 -552.073L1345.61 -552.056C1346.23 -544.41 1344.53 -536.85 1340.68 -530.171L713.555 554.597C703.158 572.585 680.026 578.781 661.996 568.421L-380.461 -30.7822ZM243.921 -1204.07C243.424 -1203.87 242.932 -1203.66 242.445 -1203.44L238.922 -1205.53C239.531 -1205.67 240.141 -1205.79 240.753 -1205.89L243.921 -1204.07ZM235.077 -1208.2C234.935 -1208.16 234.793 -1208.12 234.652 -1208.07L233.054 -1209.02C233.523 -1209.04 233.993 -1209.04 234.463 -1209.04C234.944 -1208.85 235.423 -1208.65 235.898 -1208.44C235.624 -1208.36 235.35 -1208.28 235.077 -1208.2ZM-431.828 -56.671C-432.825 -52.6414 -433.164 -48.4639 -432.814 -44.2743C-432.08 -35.4038 -428.353 -27.2131 -422.41 -20.9179C-421.718 -22.7469 -420.899 -24.5372 -419.956 -26.2772L-410.4 -43.9079L-427.134 -53.5267C-428.781 -54.474 -430.348 -55.5255 -431.828 -56.671ZM-407.317 -42.1352L-416.828 -24.5847C-417.941 -22.5324 -418.864 -20.4037 -419.594 -18.221C-417.593 -16.4904 -415.399 -14.9513 -413.034 -13.6378L-397.922 -5.23233L-385.205 -29.4249L-407.317 -42.1352ZM-382.11 -27.6456L-394.803 -3.49778L712.517 612.41C721.578 617.449 732.051 618.653 742.03 615.836C752.009 613.018 760.281 606.476 765.34 597.444L1393.52 -525.432C1397.28 -532.178 1398.94 -539.782 1398.32 -547.459C1397.25 -560.351 1389.86 -571.823 1378.55 -578.113L254.393 -1203.36C253.855 -1203.27 253.318 -1203.17 252.782 -1203.07L1328.62 -584.677C1340.36 -577.92 1348.04 -565.835 1349.15 -552.347C1349.83 -543.981 1347.99 -535.705 1343.75 -528.393L716.63 556.376C705.245 576.055 679.927 582.861 660.204 571.513L-382.11 -27.6456ZM248.337 -1205.62L246.857 -1206.47C247.24 -1206.48 247.623 -1206.48 248.006 -1206.47C248.467 -1206.3 248.927 -1206.11 249.384 -1205.91C249.035 -1205.82 248.686 -1205.72 248.337 -1205.62ZM-421.505 -2.4318C-421.835 -6.4907 -421.542 -10.5448 -420.646 -14.472C-418.819 -13.0126 -416.859 -11.694 -414.777 -10.5356L-399.578 -2.08218L-408.815 15.4911C-409.768 17.3076 -410.591 19.1775 -411.28 21.0878C-417.119 14.6965 -420.771 6.484 -421.505 -2.4318ZM-405.646 17.131L-396.459 -0.347644L710.819 615.491C720.696 620.981 732.136 622.315 743.03 619.223C753.926 616.146 762.962 609.016 768.485 599.15L1396.66 -523.726C1400.78 -531.086 1402.59 -539.405 1401.89 -547.769C1400.72 -561.851 1392.66 -574.362 1380.29 -581.23L260.777 -1203.9C261.052 -1203.9 261.326 -1203.9 261.6 -1203.89C263.253 -1203.27 264.875 -1202.53 266.456 -1201.67L1430.24 -574.619C1442.15 -568.2 1449.92 -556.333 1451.03 -542.861L1451.03 -542.845C1451.67 -535.17 1450.05 -527.508 1446.35 -520.692L817.127 640.308C806.675 659.6 782.421 666.809 763.07 656.396L-400.713 29.3111C-403.54 27.7912 -406.134 25.9634 -408.461 23.8795C-407.731 21.5655 -406.791 19.3075 -405.646 17.131ZM-409.466 27.7115C-407.298 29.4986 -404.937 31.0899 -402.404 32.454L761.395 659.537C782.464 670.888 808.898 663.022 820.286 641.996L1449.51 -519.004C1453.54 -526.432 1455.28 -534.789 1454.6 -543.155C1453.37 -557.816 1444.91 -570.751 1431.95 -577.733L273.555 -1201.9C275.734 -1201.19 277.869 -1200.29 279.939 -1199.2L1481.92 -571.095C1494.42 -564.575 1502.58 -552.283 1503.74 -538.247L1503.76 -538.249C1504.4 -530.559 1502.83 -522.841 1499.21 -515.955L868.928 683.154C863.839 692.822 855.292 699.937 844.847 703.194C834.385 706.453 823.305 705.453 813.607 700.384L-388.389 72.2907C-400.869 65.7539 -409.028 53.4767 -410.194 39.4258C-410.524 35.4839 -410.274 31.5429 -409.466 27.7115Z" fill="url(#paint0_linear_18_14)" fill-opacity="0.2"/>
</g>
<defs>
<linearGradient id="paint0_linear_18_14" x1="347.721" y1="-1311.43" x2="607.723" y2="737.522" gradientUnits="userSpaceOnUse">
<stop stop-color="white"/>
<stop offset="1" stop-color="white" stop-opacity="0"/>
</linearGradient>
<clipPath id="clip0_18_14">
<rect width="1392" height="605" rx="16" fill="white"/>
</clipPath>
</defs>
</svg>
