<svg width="32" height="32" viewBox="0 0 32 32" fill="none" xmlns="http://www.w3.org/2000/svg">
<path d="M19.0941 25.4266C19.0941 26.2399 18.5607 27.3066 17.8807 27.7199L16.0007 28.9333C14.2541 30.0133 11.8274 28.7999 11.8274 26.6399V19.5066C11.8274 18.5599 11.2941 17.3466 10.7474 16.6799L5.62736 11.2933C4.94736 10.6133 4.41406 9.41327 4.41406 8.59994V5.50659C4.41406 3.89326 5.62742 2.67993 7.10742 2.67993H24.894C26.374 2.67993 27.5874 3.89325 27.5874 5.37325V8.33325C27.5874 9.41325 26.9074 10.7599 26.2407 11.4266" stroke="#6A6A6A" stroke-width="2" stroke-miterlimit="10" stroke-linecap="round" stroke-linejoin="round"/>
<path d="M21.4268 22.0267C23.7833 22.0267 25.6935 20.1165 25.6935 17.7601C25.6935 15.4037 23.7833 13.4934 21.4268 13.4934C19.0704 13.4934 17.1602 15.4037 17.1602 17.7601C17.1602 20.1165 19.0704 22.0267 21.4268 22.0267Z" stroke="#6A6A6A" stroke-width="2" stroke-linecap="round" stroke-linejoin="round"/>
<path d="M26.4935 22.8267L25.1602 21.4934" stroke="#6A6A6A" stroke-width="2" stroke-linecap="round" stroke-linejoin="round"/>
</svg>
