<svg width="1392" height="443" viewBox="0 0 1392 443" fill="none" xmlns="http://www.w3.org/2000/svg">
<g clip-path="url(#clip0_7_61)">
<rect width="1392" height="443" rx="16" fill="#0A0C23"/>
<g style="mix-blend-mode:overlay" opacity="0.5">
<path d="M-112.477 -144H-151V-105.474M-112.477 -144V-105.474M-112.477 -144H-73.9545M-112.477 -105.474H-151M-112.477 -105.474V-66.9474M-112.477 -105.474H-73.9545M-151 -105.474V-66.9474M-112.477 -66.9474H-151M-112.477 -66.9474V-28.4211M-112.477 -66.9474H-73.9545M-151 -66.9474V-28.4211M-112.477 -28.4211H-151M-112.477 -28.4211V10.1053M-112.477 -28.4211H-73.9545M-151 -28.4211V10.1053M-112.477 10.1053H-151M-112.477 10.1053V48.6316M-112.477 10.1053H-73.9545M-151 10.1053V48.6316M-112.477 48.6316H-151M-112.477 48.6316V87.1579M-112.477 48.6316H-73.9545M-151 48.6316V87.1579M-112.477 87.1579H-151M-112.477 87.1579V125.684M-112.477 87.1579H-73.9545M-151 87.1579V125.684M-112.477 125.684H-151M-112.477 125.684V164.211M-112.477 125.684H-73.9545M-151 125.684V164.211M-112.477 164.211H-151M-112.477 164.211V202.737M-112.477 164.211H-73.9545M-151 164.211V202.737M-112.477 202.737H-151M-112.477 202.737V241.263M-112.477 202.737H-73.9545M-151 202.737V241.263M-112.477 241.263H-151M-112.477 241.263V279.789M-112.477 241.263H-73.9545M-151 241.263V279.789M-112.477 279.789H-151M-112.477 279.789V318.316M-112.477 279.789H-73.9545M-151 279.789V318.316M-112.477 318.316H-151M-112.477 318.316V356.842M-112.477 318.316H-73.9545M-151 318.316V356.842M-112.477 356.842H-151M-112.477 356.842V395.368M-112.477 356.842H-73.9545M-151 356.842V395.368M-112.477 395.368H-151M-112.477 395.368V433.895M-112.477 395.368H-73.9545M-151 395.368V433.895M-112.477 433.895H-151M-112.477 433.895V472.421M-112.477 433.895H-73.9545M-151 433.895V472.421M-112.477 472.421H-151M-112.477 472.421V510.947M-112.477 472.421H-73.9545M-151 472.421V510.947M-112.477 510.947H-151M-112.477 510.947V549.474M-112.477 510.947H-73.9545M-151 510.947V549.474M-112.477 549.474H-151M-112.477 549.474V588M-112.477 549.474H-73.9545M-151 549.474V588H-112.477M-112.477 588H-73.9545M-73.9545 -144V-105.474M-73.9545 -144H-35.4318M-73.9545 -105.474V-66.9474M-73.9545 -105.474H-35.4318M-73.9545 -66.9474V-28.4211M-73.9545 -66.9474H-35.4318M-73.9545 -28.4211V10.1053M-73.9545 -28.4211H-35.4318M-73.9545 10.1053V48.6316M-73.9545 10.1053H-35.4318M-73.9545 48.6316V87.1579M-73.9545 48.6316H-35.4318M-73.9545 87.1579V125.684M-73.9545 87.1579H-35.4318M-73.9545 125.684V164.211M-73.9545 125.684H-35.4318M-73.9545 164.211V202.737M-73.9545 164.211H-35.4318M-73.9545 202.737V241.263M-73.9545 202.737H-35.4318M-73.9545 241.263V279.789M-73.9545 241.263H-35.4318M-73.9545 279.789V318.316M-73.9545 279.789H-35.4318M-73.9545 318.316V356.842M-73.9545 318.316H-35.4318M-73.9545 356.842V395.368M-73.9545 356.842H-35.4318M-73.9545 395.368V433.895M-73.9545 395.368H-35.4318M-73.9545 433.895V472.421M-73.9545 433.895H-35.4318M-73.9545 472.421V510.947M-73.9545 472.421H-35.4318M-73.9545 510.947V549.474M-73.9545 510.947H-35.4318M-73.9545 549.474V588M-73.9545 549.474H-35.4318M-73.9545 588H-35.4318M-35.4318 -144V-105.474M-35.4318 -144H3.09091M-35.4318 -105.474V-66.9474M-35.4318 -105.474H3.09091M-35.4318 -66.9474V-28.4211M-35.4318 -66.9474H3.09091M-35.4318 -28.4211V10.1053M-35.4318 -28.4211H3.09091M-35.4318 10.1053V48.6316M-35.4318 10.1053H3.09091M-35.4318 48.6316V87.1579M-35.4318 48.6316H3.09091M-35.4318 87.1579V125.684M-35.4318 87.1579H3.09091M-35.4318 125.684V164.211M-35.4318 125.684H3.09091M-35.4318 164.211V202.737M-35.4318 164.211H3.09091M-35.4318 202.737V241.263M-35.4318 202.737H3.09091M-35.4318 241.263V279.789M-35.4318 241.263H3.09091M-35.4318 279.789V318.316M-35.4318 279.789H3.09091M-35.4318 318.316V356.842M-35.4318 318.316H3.09091M-35.4318 356.842V395.368M-35.4318 356.842H3.09091M-35.4318 395.368V433.895M-35.4318 395.368H3.09091M-35.4318 433.895V472.421M-35.4318 433.895H3.09091M-35.4318 472.421V510.947M-35.4318 472.421H3.09091M-35.4318 510.947V549.474M-35.4318 510.947H3.09091M-35.4318 549.474V588M-35.4318 549.474H3.09091M-35.4318 588H3.09091M3.09091 -144V-105.474M3.09091 -144H41.6136M3.09091 -105.474V-66.9474M3.09091 -105.474H41.6136M3.09091 -66.9474V-28.4211M3.09091 -66.9474H41.6136M3.09091 -28.4211V10.1053M3.09091 -28.4211H41.6136M3.09091 10.1053V48.6316M3.09091 10.1053H41.6136M3.09091 48.6316V87.1579M3.09091 48.6316H41.6136M3.09091 87.1579V125.684M3.09091 87.1579H41.6136M3.09091 125.684V164.211M3.09091 125.684H41.6136M3.09091 164.211V202.737M3.09091 164.211H41.6136M3.09091 202.737V241.263M3.09091 202.737H41.6136M3.09091 241.263V279.789M3.09091 241.263H41.6136M3.09091 279.789V318.316M3.09091 279.789H41.6136M3.09091 318.316V356.842M3.09091 318.316H41.6136M3.09091 356.842V395.368M3.09091 356.842H41.6136M3.09091 395.368V433.895M3.09091 395.368H41.6136M3.09091 433.895V472.421M3.09091 433.895H41.6136M3.09091 472.421V510.947M3.09091 472.421H41.6136M3.09091 510.947V549.474M3.09091 510.947H41.6136M3.09091 549.474V588M3.09091 549.474H41.6136M3.09091 588H41.6136M41.6136 -144V-105.474M41.6136 -144H80.1364M41.6136 -105.474V-66.9474M41.6136 -105.474H80.1364M41.6136 -66.9474V-28.4211M41.6136 -66.9474H80.1364M41.6136 -28.4211V10.1053M41.6136 -28.4211H80.1364M41.6136 10.1053V48.6316M41.6136 10.1053H80.1364M41.6136 48.6316V87.1579M41.6136 48.6316H80.1364M41.6136 87.1579V125.684M41.6136 87.1579H80.1364M41.6136 125.684V164.211M41.6136 125.684H80.1364M41.6136 164.211V202.737M41.6136 164.211H80.1364M41.6136 202.737V241.263M41.6136 202.737H80.1364M41.6136 241.263V279.789M41.6136 241.263H80.1364M41.6136 279.789V318.316M41.6136 279.789H80.1364M41.6136 318.316V356.842M41.6136 318.316H80.1364M41.6136 356.842V395.368M41.6136 356.842H80.1364M41.6136 395.368V433.895M41.6136 395.368H80.1364M41.6136 433.895V472.421M41.6136 433.895H80.1364M41.6136 472.421V510.947M41.6136 472.421H80.1364M41.6136 510.947V549.474M41.6136 510.947H80.1364M41.6136 549.474V588M41.6136 549.474H80.1364M41.6136 588H80.1364M80.1364 -144V-105.474M80.1364 -144H118.659M80.1364 -105.474V-66.9474M80.1364 -105.474H118.659M80.1364 -66.9474V-28.4211M80.1364 -66.9474H118.659M80.1364 -28.4211V10.1053M80.1364 -28.4211H118.659M80.1364 10.1053V48.6316M80.1364 10.1053H118.659M80.1364 48.6316V87.1579M80.1364 48.6316H118.659M80.1364 87.1579V125.684M80.1364 87.1579H118.659M80.1364 125.684V164.211M80.1364 125.684H118.659M80.1364 164.211V202.737M80.1364 164.211H118.659M80.1364 202.737V241.263M80.1364 202.737H118.659M80.1364 241.263V279.789M80.1364 241.263H118.659M80.1364 279.789V318.316M80.1364 279.789H118.659M80.1364 318.316V356.842M80.1364 318.316H118.659M80.1364 356.842V395.368M80.1364 356.842H118.659M80.1364 395.368V433.895M80.1364 395.368H118.659M80.1364 433.895V472.421M80.1364 433.895H118.659M80.1364 472.421V510.947M80.1364 472.421H118.659M80.1364 510.947V549.474M80.1364 510.947H118.659M80.1364 549.474V588M80.1364 549.474H118.659M80.1364 588H118.659M118.659 -144V-105.474M118.659 -144H157.182M118.659 -105.474V-66.9474M118.659 -105.474H157.182M118.659 -66.9474V-28.4211M118.659 -66.9474H157.182M118.659 -28.4211V10.1053M118.659 -28.4211H157.182M118.659 10.1053V48.6316M118.659 10.1053H157.182M118.659 48.6316V87.1579M118.659 48.6316H157.182M118.659 87.1579V125.684M118.659 87.1579H157.182M118.659 125.684V164.211M118.659 125.684H157.182M118.659 164.211V202.737M118.659 164.211H157.182M118.659 202.737V241.263M118.659 202.737H157.182M118.659 241.263V279.789M118.659 241.263H157.182M118.659 279.789V318.316M118.659 279.789H157.182M118.659 318.316V356.842M118.659 318.316H157.182M118.659 356.842V395.368M118.659 356.842H157.182M118.659 395.368V433.895M118.659 395.368H157.182M118.659 433.895V472.421M118.659 433.895H157.182M118.659 472.421V510.947M118.659 472.421H157.182M118.659 510.947V549.474M118.659 510.947H157.182M118.659 549.474V588M118.659 549.474H157.182M118.659 588H157.182M157.182 -144V-105.474M157.182 -144H195.705M157.182 -105.474V-66.9474M157.182 -105.474H195.705M157.182 -66.9474V-28.4211M157.182 -66.9474H195.705M157.182 -28.4211V10.1053M157.182 -28.4211H195.705M157.182 10.1053V48.6316M157.182 10.1053H195.705M157.182 48.6316V87.1579M157.182 48.6316H195.705M157.182 87.1579V125.684M157.182 87.1579H195.705M157.182 125.684V164.211M157.182 125.684H195.705M157.182 164.211V202.737M157.182 164.211H195.705M157.182 202.737V241.263M157.182 202.737H195.705M157.182 241.263V279.789M157.182 241.263H195.705M157.182 279.789V318.316M157.182 279.789H195.705M157.182 318.316V356.842M157.182 318.316H195.705M157.182 356.842V395.368M157.182 356.842H195.705M157.182 395.368V433.895M157.182 395.368H195.705M157.182 433.895V472.421M157.182 433.895H195.705M157.182 472.421V510.947M157.182 472.421H195.705M157.182 510.947V549.474M157.182 510.947H195.705M157.182 549.474V588M157.182 549.474H195.705M157.182 588H195.705M195.705 -144V-105.474M195.705 -144H234.227M195.705 -105.474V-66.9474M195.705 -105.474H234.227M195.705 -66.9474V-28.4211M195.705 -66.9474H234.227M195.705 -28.4211V10.1053M195.705 -28.4211H234.227M195.705 10.1053V48.6316M195.705 10.1053H234.227M195.705 48.6316V87.1579M195.705 48.6316H234.227M195.705 87.1579V125.684M195.705 87.1579H234.227M195.705 125.684V164.211M195.705 125.684H234.227M195.705 164.211V202.737M195.705 164.211H234.227M195.705 202.737V241.263M195.705 202.737H234.227M195.705 241.263V279.789M195.705 241.263H234.227M195.705 279.789V318.316M195.705 279.789H234.227M195.705 318.316V356.842M195.705 318.316H234.227M195.705 356.842V395.368M195.705 356.842H234.227M195.705 395.368V433.895M195.705 395.368H234.227M195.705 433.895V472.421M195.705 433.895H234.227M195.705 472.421V510.947M195.705 472.421H234.227M195.705 510.947V549.474M195.705 510.947H234.227M195.705 549.474V588M195.705 549.474H234.227M195.705 588H234.227M234.227 -144V-105.474M234.227 -144H272.75M234.227 -105.474V-66.9474M234.227 -105.474H272.75M234.227 -66.9474V-28.4211M234.227 -66.9474H272.75M234.227 -28.4211V10.1053M234.227 -28.4211H272.75M234.227 10.1053V48.6316M234.227 10.1053H272.75M234.227 48.6316V87.1579M234.227 48.6316H272.75M234.227 87.1579V125.684M234.227 87.1579H272.75M234.227 125.684V164.211M234.227 125.684H272.75M234.227 164.211V202.737M234.227 164.211H272.75M234.227 202.737V241.263M234.227 202.737H272.75M234.227 241.263V279.789M234.227 241.263H272.75M234.227 279.789V318.316M234.227 279.789H272.75M234.227 318.316V356.842M234.227 318.316H272.75M234.227 356.842V395.368M234.227 356.842H272.75M234.227 395.368V433.895M234.227 395.368H272.75M234.227 433.895V472.421M234.227 433.895H272.75M234.227 472.421V510.947M234.227 472.421H272.75M234.227 510.947V549.474M234.227 510.947H272.75M234.227 549.474V588M234.227 549.474H272.75M234.227 588H272.75M272.75 -144V-105.474M272.75 -144H311.273M272.75 -105.474V-66.9474M272.75 -105.474H311.273M272.75 -66.9474V-28.4211M272.75 -66.9474H311.273M272.75 -28.4211V10.1053M272.75 -28.4211H311.273M272.75 10.1053V48.6316M272.75 10.1053H311.273M272.75 48.6316V87.1579M272.75 48.6316H311.273M272.75 87.1579V125.684M272.75 87.1579H311.273M272.75 125.684V164.211M272.75 125.684H311.273M272.75 164.211V202.737M272.75 164.211H311.273M272.75 202.737V241.263M272.75 202.737H311.273M272.75 241.263V279.789M272.75 241.263H311.273M272.75 279.789V318.316M272.75 279.789H311.273M272.75 318.316V356.842M272.75 318.316H311.273M272.75 356.842V395.368M272.75 356.842H311.273M272.75 395.368V433.895M272.75 395.368H311.273M272.75 433.895V472.421M272.75 433.895H311.273M272.75 472.421V510.947M272.75 472.421H311.273M272.75 510.947V549.474M272.75 510.947H311.273M272.75 549.474V588M272.75 549.474H311.273M272.75 588H311.273M311.273 -144V-105.474M311.273 -144H349.795M311.273 -105.474V-66.9474M311.273 -105.474H349.795M311.273 -66.9474V-28.4211M311.273 -66.9474H349.795M311.273 -28.4211V10.1053M311.273 -28.4211H349.795M311.273 10.1053V48.6316M311.273 10.1053H349.795M311.273 48.6316V87.1579M311.273 48.6316H349.795M311.273 87.1579V125.684M311.273 87.1579H349.795M311.273 125.684V164.211M311.273 125.684H349.795M311.273 164.211V202.737M311.273 164.211H349.795M311.273 202.737V241.263M311.273 202.737H349.795M311.273 241.263V279.789M311.273 241.263H349.795M311.273 279.789V318.316M311.273 279.789H349.795M311.273 318.316V356.842M311.273 318.316H349.795M311.273 356.842V395.368M311.273 356.842H349.795M311.273 395.368V433.895M311.273 395.368H349.795M311.273 433.895V472.421M311.273 433.895H349.795M311.273 472.421V510.947M311.273 472.421H349.795M311.273 510.947V549.474M311.273 510.947H349.795M311.273 549.474V588M311.273 549.474H349.795M311.273 588H349.795M349.795 -144V-105.474M349.795 -144H388.318M349.795 -105.474V-66.9474M349.795 -105.474H388.318M349.795 -66.9474V-28.4211M349.795 -66.9474H388.318M349.795 -28.4211V10.1053M349.795 -28.4211H388.318M349.795 10.1053V48.6316M349.795 10.1053H388.318M349.795 48.6316V87.1579M349.795 48.6316H388.318M349.795 87.1579V125.684M349.795 87.1579H388.318M349.795 125.684V164.211M349.795 125.684H388.318M349.795 164.211V202.737M349.795 164.211H388.318M349.795 202.737V241.263M349.795 202.737H388.318M349.795 241.263V279.789M349.795 241.263H388.318M349.795 279.789V318.316M349.795 279.789H388.318M349.795 318.316V356.842M349.795 318.316H388.318M349.795 356.842V395.368M349.795 356.842H388.318M349.795 395.368V433.895M349.795 395.368H388.318M349.795 433.895V472.421M349.795 433.895H388.318M349.795 472.421V510.947M349.795 472.421H388.318M349.795 510.947V549.474M349.795 510.947H388.318M349.795 549.474V588M349.795 549.474H388.318M349.795 588H388.318M388.318 -144V-105.474M388.318 -144H426.841M388.318 -105.474V-66.9474M388.318 -105.474H426.841M388.318 -66.9474V-28.4211M388.318 -66.9474H426.841M388.318 -28.4211V10.1053M388.318 -28.4211H426.841M388.318 10.1053V48.6316M388.318 10.1053H426.841M388.318 48.6316V87.1579M388.318 48.6316H426.841M388.318 87.1579V125.684M388.318 87.1579H426.841M388.318 125.684V164.211M388.318 125.684H426.841M388.318 164.211V202.737M388.318 164.211H426.841M388.318 202.737V241.263M388.318 202.737H426.841M388.318 241.263V279.789M388.318 241.263H426.841M388.318 279.789V318.316M388.318 279.789H426.841M388.318 318.316V356.842M388.318 318.316H426.841M388.318 356.842V395.368M388.318 356.842H426.841M388.318 395.368V433.895M388.318 395.368H426.841M388.318 433.895V472.421M388.318 433.895H426.841M388.318 472.421V510.947M388.318 472.421H426.841M388.318 510.947V549.474M388.318 510.947H426.841M388.318 549.474V588M388.318 549.474H426.841M388.318 588H426.841M426.841 -144V-105.474M426.841 -144H465.364M426.841 -105.474V-66.9474M426.841 -105.474H465.364M426.841 -66.9474V-28.4211M426.841 -66.9474H465.364M426.841 -28.4211V10.1053M426.841 -28.4211H465.364M426.841 10.1053V48.6316M426.841 10.1053H465.364M426.841 48.6316V87.1579M426.841 48.6316H465.364M426.841 87.1579V125.684M426.841 87.1579H465.364M426.841 125.684V164.211M426.841 125.684H465.364M426.841 164.211V202.737M426.841 164.211H465.364M426.841 202.737V241.263M426.841 202.737H465.364M426.841 241.263V279.789M426.841 241.263H465.364M426.841 279.789V318.316M426.841 279.789H465.364M426.841 318.316V356.842M426.841 318.316H465.364M426.841 356.842V395.368M426.841 356.842H465.364M426.841 395.368V433.895M426.841 395.368H465.364M426.841 433.895V472.421M426.841 433.895H465.364M426.841 472.421V510.947M426.841 472.421H465.364M426.841 510.947V549.474M426.841 510.947H465.364M426.841 549.474V588M426.841 549.474H465.364M426.841 588H465.364M465.364 -144V-105.474M465.364 -144H503.886M465.364 -105.474V-66.9474M465.364 -105.474H503.886M465.364 -66.9474V-28.4211M465.364 -66.9474H503.886M465.364 -28.4211V10.1053M465.364 -28.4211H503.886M465.364 10.1053V48.6316M465.364 10.1053H503.886M465.364 48.6316V87.1579M465.364 48.6316H503.886M465.364 87.1579V125.684M465.364 87.1579H503.886M465.364 125.684V164.211M465.364 125.684H503.886M465.364 164.211V202.737M465.364 164.211H503.886M465.364 202.737V241.263M465.364 202.737H503.886M465.364 241.263V279.789M465.364 241.263H503.886M465.364 279.789V318.316M465.364 279.789H503.886M465.364 318.316V356.842M465.364 318.316H503.886M465.364 356.842V395.368M465.364 356.842H503.886M465.364 395.368V433.895M465.364 395.368H503.886M465.364 433.895V472.421M465.364 433.895H503.886M465.364 472.421V510.947M465.364 472.421H503.886M465.364 510.947V549.474M465.364 510.947H503.886M465.364 549.474V588M465.364 549.474H503.886M465.364 588H503.886M503.886 -144V-105.474M503.886 -144H542.409M503.886 -105.474V-66.9474M503.886 -105.474H542.409M503.886 -66.9474V-28.4211M503.886 -66.9474H542.409M503.886 -28.4211V10.1053M503.886 -28.4211H542.409M503.886 10.1053V48.6316M503.886 10.1053H542.409M503.886 48.6316V87.1579M503.886 48.6316H542.409M503.886 87.1579V125.684M503.886 87.1579H542.409M503.886 125.684V164.211M503.886 125.684H542.409M503.886 164.211V202.737M503.886 164.211H542.409M503.886 202.737V241.263M503.886 202.737H542.409M503.886 241.263V279.789M503.886 241.263H542.409M503.886 279.789V318.316M503.886 279.789H542.409M503.886 318.316V356.842M503.886 318.316H542.409M503.886 356.842V395.368M503.886 356.842H542.409M503.886 395.368V433.895M503.886 395.368H542.409M503.886 433.895V472.421M503.886 433.895H542.409M503.886 472.421V510.947M503.886 472.421H542.409M503.886 510.947V549.474M503.886 510.947H542.409M503.886 549.474V588M503.886 549.474H542.409M503.886 588H542.409M542.409 -144V-105.474M542.409 -144H580.932M542.409 -105.474V-66.9474M542.409 -105.474H580.932M542.409 -66.9474V-28.4211M542.409 -66.9474H580.932M542.409 -28.4211V10.1053M542.409 -28.4211H580.932M542.409 10.1053V48.6316M542.409 10.1053H580.932M542.409 48.6316V87.1579M542.409 48.6316H580.932M542.409 87.1579V125.684M542.409 87.1579H580.932M542.409 125.684V164.211M542.409 125.684H580.932M542.409 164.211V202.737M542.409 164.211H580.932M542.409 202.737V241.263M542.409 202.737H580.932M542.409 241.263V279.789M542.409 241.263H580.932M542.409 279.789V318.316M542.409 279.789H580.932M542.409 318.316V356.842M542.409 318.316H580.932M542.409 356.842V395.368M542.409 356.842H580.932M542.409 395.368V433.895M542.409 395.368H580.932M542.409 433.895V472.421M542.409 433.895H580.932M542.409 472.421V510.947M542.409 472.421H580.932M542.409 510.947V549.474M542.409 510.947H580.932M542.409 549.474V588M542.409 549.474H580.932M542.409 588H580.932M580.932 -144V-105.474M580.932 -144H619.455M580.932 -105.474V-66.9474M580.932 -105.474H619.455M580.932 -66.9474V-28.4211M580.932 -66.9474H619.455M580.932 -28.4211V10.1053M580.932 -28.4211H619.455M580.932 10.1053V48.6316M580.932 10.1053H619.455M580.932 48.6316V87.1579M580.932 48.6316H619.455M580.932 87.1579V125.684M580.932 87.1579H619.455M580.932 125.684V164.211M580.932 125.684H619.455M580.932 164.211V202.737M580.932 164.211H619.455M580.932 202.737V241.263M580.932 202.737H619.455M580.932 241.263V279.789M580.932 241.263H619.455M580.932 279.789V318.316M580.932 279.789H619.455M580.932 318.316V356.842M580.932 318.316H619.455M580.932 356.842V395.368M580.932 356.842H619.455M580.932 395.368V433.895M580.932 395.368H619.455M580.932 433.895V472.421M580.932 433.895H619.455M580.932 472.421V510.947M580.932 472.421H619.455M580.932 510.947V549.474M580.932 510.947H619.455M580.932 549.474V588M580.932 549.474H619.455M580.932 588H619.455M619.455 -144V-105.474M619.455 -144H657.977M619.455 -105.474V-66.9474M619.455 -105.474H657.977M619.455 -66.9474V-28.4211M619.455 -66.9474H657.977M619.455 -28.4211V10.1053M619.455 -28.4211H657.977M619.455 10.1053V48.6316M619.455 10.1053H657.977M619.455 48.6316V87.1579M619.455 48.6316H657.977M619.455 87.1579V125.684M619.455 87.1579H657.977M619.455 125.684V164.211M619.455 125.684H657.977M619.455 164.211V202.737M619.455 164.211H657.977M619.455 202.737V241.263M619.455 202.737H657.977M619.455 241.263V279.789M619.455 241.263H657.977M619.455 279.789V318.316M619.455 279.789H657.977M619.455 318.316V356.842M619.455 318.316H657.977M619.455 356.842V395.368M619.455 356.842H657.977M619.455 395.368V433.895M619.455 395.368H657.977M619.455 433.895V472.421M619.455 433.895H657.977M619.455 472.421V510.947M619.455 472.421H657.977M619.455 510.947V549.474M619.455 510.947H657.977M619.455 549.474V588M619.455 549.474H657.977M619.455 588H657.977M657.977 -144V-105.474M657.977 -144H696.5M657.977 -105.474V-66.9474M657.977 -105.474H696.5M657.977 -66.9474V-28.4211M657.977 -66.9474H696.5M657.977 -28.4211V10.1053M657.977 -28.4211H696.5M657.977 10.1053V48.6316M657.977 10.1053H696.5M657.977 48.6316V87.1579M657.977 48.6316H696.5M657.977 87.1579V125.684M657.977 87.1579H696.5M657.977 125.684V164.211M657.977 125.684H696.5M657.977 164.211V202.737M657.977 164.211H696.5M657.977 202.737V241.263M657.977 202.737H696.5M657.977 241.263V279.789M657.977 241.263H696.5M657.977 279.789V318.316M657.977 279.789H696.5M657.977 318.316V356.842M657.977 318.316H696.5M657.977 356.842V395.368M657.977 356.842H696.5M657.977 395.368V433.895M657.977 395.368H696.5M657.977 433.895V472.421M657.977 433.895H696.5M657.977 472.421V510.947M657.977 472.421H696.5M657.977 510.947V549.474M657.977 510.947H696.5M657.977 549.474V588M657.977 549.474H696.5M657.977 588H696.5M696.5 -144V-105.474M696.5 -144H735.023M696.5 -105.474V-66.9474M696.5 -105.474H735.023M696.5 -66.9474V-28.4211M696.5 -66.9474H735.023M696.5 -28.4211V10.1053M696.5 -28.4211H735.023M696.5 10.1053V48.6316M696.5 10.1053H735.023M696.5 48.6316V87.1579M696.5 48.6316H735.023M696.5 87.1579V125.684M696.5 87.1579H735.023M696.5 125.684V164.211M696.5 125.684H735.023M696.5 164.211V202.737M696.5 164.211H735.023M696.5 202.737V241.263M696.5 202.737H735.023M696.5 241.263V279.789M696.5 241.263H735.023M696.5 279.789V318.316M696.5 279.789H735.023M696.5 318.316V356.842M696.5 318.316H735.023M696.5 356.842V395.368M696.5 356.842H735.023M696.5 395.368V433.895M696.5 395.368H735.023M696.5 433.895V472.421M696.5 433.895H735.023M696.5 472.421V510.947M696.5 472.421H735.023M696.5 510.947V549.474M696.5 510.947H735.023M696.5 549.474V588M696.5 549.474H735.023M696.5 588H735.023M735.023 -144V-105.474M735.023 -144H773.545M735.023 -105.474V-66.9474M735.023 -105.474H773.545M735.023 -66.9474V-28.4211M735.023 -66.9474H773.545M735.023 -28.4211V10.1053M735.023 -28.4211H773.545M735.023 10.1053V48.6316M735.023 10.1053H773.545M735.023 48.6316V87.1579M735.023 48.6316H773.545M735.023 87.1579V125.684M735.023 87.1579H773.545M735.023 125.684V164.211M735.023 125.684H773.545M735.023 164.211V202.737M735.023 164.211H773.545M735.023 202.737V241.263M735.023 202.737H773.545M735.023 241.263V279.789M735.023 241.263H773.545M735.023 279.789V318.316M735.023 279.789H773.545M735.023 318.316V356.842M735.023 318.316H773.545M735.023 356.842V395.368M735.023 356.842H773.545M735.023 395.368V433.895M735.023 395.368H773.545M735.023 433.895V472.421M735.023 433.895H773.545M735.023 472.421V510.947M735.023 472.421H773.545M735.023 510.947V549.474M735.023 510.947H773.545M735.023 549.474V588M735.023 549.474H773.545M735.023 588H773.545M773.545 -144V-105.474M773.545 -144H812.068M773.545 -105.474V-66.9474M773.545 -105.474H812.068M773.545 -66.9474V-28.4211M773.545 -66.9474H812.068M773.545 -28.4211V10.1053M773.545 -28.4211H812.068M773.545 10.1053V48.6316M773.545 10.1053H812.068M773.545 48.6316V87.1579M773.545 48.6316H812.068M773.545 87.1579V125.684M773.545 87.1579H812.068M773.545 125.684V164.211M773.545 125.684H812.068M773.545 164.211V202.737M773.545 164.211H812.068M773.545 202.737V241.263M773.545 202.737H812.068M773.545 241.263V279.789M773.545 241.263H812.068M773.545 279.789V318.316M773.545 279.789H812.068M773.545 318.316V356.842M773.545 318.316H812.068M773.545 356.842V395.368M773.545 356.842H812.068M773.545 395.368V433.895M773.545 395.368H812.068M773.545 433.895V472.421M773.545 433.895H812.068M773.545 472.421V510.947M773.545 472.421H812.068M773.545 510.947V549.474M773.545 510.947H812.068M773.545 549.474V588M773.545 549.474H812.068M773.545 588H812.068M812.068 -144V-105.474M812.068 -144H850.591M812.068 -105.474V-66.9474M812.068 -105.474H850.591M812.068 -66.9474V-28.4211M812.068 -66.9474H850.591M812.068 -28.4211V10.1053M812.068 -28.4211H850.591M812.068 10.1053V48.6316M812.068 10.1053H850.591M812.068 48.6316V87.1579M812.068 48.6316H850.591M812.068 87.1579V125.684M812.068 87.1579H850.591M812.068 125.684V164.211M812.068 125.684H850.591M812.068 164.211V202.737M812.068 164.211H850.591M812.068 202.737V241.263M812.068 202.737H850.591M812.068 241.263V279.789M812.068 241.263H850.591M812.068 279.789V318.316M812.068 279.789H850.591M812.068 318.316V356.842M812.068 318.316H850.591M812.068 356.842V395.368M812.068 356.842H850.591M812.068 395.368V433.895M812.068 395.368H850.591M812.068 433.895V472.421M812.068 433.895H850.591M812.068 472.421V510.947M812.068 472.421H850.591M812.068 510.947V549.474M812.068 510.947H850.591M812.068 549.474V588M812.068 549.474H850.591M812.068 588H850.591M850.591 -144V-105.474M850.591 -144H889.114M850.591 -105.474V-66.9474M850.591 -105.474H889.114M850.591 -66.9474V-28.4211M850.591 -66.9474H889.114M850.591 -28.4211V10.1053M850.591 -28.4211H889.114M850.591 10.1053V48.6316M850.591 10.1053H889.114M850.591 48.6316V87.1579M850.591 48.6316H889.114M850.591 87.1579V125.684M850.591 87.1579H889.114M850.591 125.684V164.211M850.591 125.684H889.114M850.591 164.211V202.737M850.591 164.211H889.114M850.591 202.737V241.263M850.591 202.737H889.114M850.591 241.263V279.789M850.591 241.263H889.114M850.591 279.789V318.316M850.591 279.789H889.114M850.591 318.316V356.842M850.591 318.316H889.114M850.591 356.842V395.368M850.591 356.842H889.114M850.591 395.368V433.895M850.591 395.368H889.114M850.591 433.895V472.421M850.591 433.895H889.114M850.591 472.421V510.947M850.591 472.421H889.114M850.591 510.947V549.474M850.591 510.947H889.114M850.591 549.474V588M850.591 549.474H889.114M850.591 588H889.114M889.114 -144V-105.474M889.114 -144H927.636M889.114 -105.474V-66.9474M889.114 -105.474H927.636M889.114 -66.9474V-28.4211M889.114 -66.9474H927.636M889.114 -28.4211V10.1053M889.114 -28.4211H927.636M889.114 10.1053V48.6316M889.114 10.1053H927.636M889.114 48.6316V87.1579M889.114 48.6316H927.636M889.114 87.1579V125.684M889.114 87.1579H927.636M889.114 125.684V164.211M889.114 125.684H927.636M889.114 164.211V202.737M889.114 164.211H927.636M889.114 202.737V241.263M889.114 202.737H927.636M889.114 241.263V279.789M889.114 241.263H927.636M889.114 279.789V318.316M889.114 279.789H927.636M889.114 318.316V356.842M889.114 318.316H927.636M889.114 356.842V395.368M889.114 356.842H927.636M889.114 395.368V433.895M889.114 395.368H927.636M889.114 433.895V472.421M889.114 433.895H927.636M889.114 472.421V510.947M889.114 472.421H927.636M889.114 510.947V549.474M889.114 510.947H927.636M889.114 549.474V588M889.114 549.474H927.636M889.114 588H927.636M927.636 -144V-105.474M927.636 -144H966.159M927.636 -105.474V-66.9474M927.636 -105.474H966.159M927.636 -66.9474V-28.4211M927.636 -66.9474H966.159M927.636 -28.4211V10.1053M927.636 -28.4211H966.159M927.636 10.1053V48.6316M927.636 10.1053H966.159M927.636 48.6316V87.1579M927.636 48.6316H966.159M927.636 87.1579V125.684M927.636 87.1579H966.159M927.636 125.684V164.211M927.636 125.684H966.159M927.636 164.211V202.737M927.636 164.211H966.159M927.636 202.737V241.263M927.636 202.737H966.159M927.636 241.263V279.789M927.636 241.263H966.159M927.636 279.789V318.316M927.636 279.789H966.159M927.636 318.316V356.842M927.636 318.316H966.159M927.636 356.842V395.368M927.636 356.842H966.159M927.636 395.368V433.895M927.636 395.368H966.159M927.636 433.895V472.421M927.636 433.895H966.159M927.636 472.421V510.947M927.636 472.421H966.159M927.636 510.947V549.474M927.636 510.947H966.159M927.636 549.474V588M927.636 549.474H966.159M927.636 588H966.159M966.159 -144V-105.474M966.159 -144H1004.68M966.159 -105.474V-66.9474M966.159 -105.474H1004.68M966.159 -66.9474V-28.4211M966.159 -66.9474H1004.68M966.159 -28.4211V10.1053M966.159 -28.4211H1004.68M966.159 10.1053V48.6316M966.159 10.1053H1004.68M966.159 48.6316V87.1579M966.159 48.6316H1004.68M966.159 87.1579V125.684M966.159 87.1579H1004.68M966.159 125.684V164.211M966.159 125.684H1004.68M966.159 164.211V202.737M966.159 164.211H1004.68M966.159 202.737V241.263M966.159 202.737H1004.68M966.159 241.263V279.789M966.159 241.263H1004.68M966.159 279.789V318.316M966.159 279.789H1004.68M966.159 318.316V356.842M966.159 318.316H1004.68M966.159 356.842V395.368M966.159 356.842H1004.68M966.159 395.368V433.895M966.159 395.368H1004.68M966.159 433.895V472.421M966.159 433.895H1004.68M966.159 472.421V510.947M966.159 472.421H1004.68M966.159 510.947V549.474M966.159 510.947H1004.68M966.159 549.474V588M966.159 549.474H1004.68M966.159 588H1004.68M1004.68 -144V-105.474M1004.68 -144H1043.2M1004.68 -105.474V-66.9474M1004.68 -105.474H1043.2M1004.68 -66.9474V-28.4211M1004.68 -66.9474H1043.2M1004.68 -28.4211V10.1053M1004.68 -28.4211H1043.2M1004.68 10.1053V48.6316M1004.68 10.1053H1043.2M1004.68 48.6316V87.1579M1004.68 48.6316H1043.2M1004.68 87.1579V125.684M1004.68 87.1579H1043.2M1004.68 125.684V164.211M1004.68 125.684H1043.2M1004.68 164.211V202.737M1004.68 164.211H1043.2M1004.68 202.737V241.263M1004.68 202.737H1043.2M1004.68 241.263V279.789M1004.68 241.263H1043.2M1004.68 279.789V318.316M1004.68 279.789H1043.2M1004.68 318.316V356.842M1004.68 318.316H1043.2M1004.68 356.842V395.368M1004.68 356.842H1043.2M1004.68 395.368V433.895M1004.68 395.368H1043.2M1004.68 433.895V472.421M1004.68 433.895H1043.2M1004.68 472.421V510.947M1004.68 472.421H1043.2M1004.68 510.947V549.474M1004.68 510.947H1043.2M1004.68 549.474V588M1004.68 549.474H1043.2M1004.68 588H1043.2M1043.2 -144V-105.474M1043.2 -144H1081.73M1043.2 -105.474V-66.9474M1043.2 -105.474H1081.73M1043.2 -66.9474V-28.4211M1043.2 -66.9474H1081.73M1043.2 -28.4211V10.1053M1043.2 -28.4211H1081.73M1043.2 10.1053V48.6316M1043.2 10.1053H1081.73M1043.2 48.6316V87.1579M1043.2 48.6316H1081.73M1043.2 87.1579V125.684M1043.2 87.1579H1081.73M1043.2 125.684V164.211M1043.2 125.684H1081.73M1043.2 164.211V202.737M1043.2 164.211H1081.73M1043.2 202.737V241.263M1043.2 202.737H1081.73M1043.2 241.263V279.789M1043.2 241.263H1081.73M1043.2 279.789V318.316M1043.2 279.789H1081.73M1043.2 318.316V356.842M1043.2 318.316H1081.73M1043.2 356.842V395.368M1043.2 356.842H1081.73M1043.2 395.368V433.895M1043.2 395.368H1081.73M1043.2 433.895V472.421M1043.2 433.895H1081.73M1043.2 472.421V510.947M1043.2 472.421H1081.73M1043.2 510.947V549.474M1043.2 510.947H1081.73M1043.2 549.474V588M1043.2 549.474H1081.73M1043.2 588H1081.73M1081.73 -144V-105.474M1081.73 -144H1120.25M1081.73 -105.474V-66.9474M1081.73 -105.474H1120.25M1081.73 -66.9474V-28.4211M1081.73 -66.9474H1120.25M1081.73 -28.4211V10.1053M1081.73 -28.4211H1120.25M1081.73 10.1053V48.6316M1081.73 10.1053H1120.25M1081.73 48.6316V87.1579M1081.73 48.6316H1120.25M1081.73 87.1579V125.684M1081.73 87.1579H1120.25M1081.73 125.684V164.211M1081.73 125.684H1120.25M1081.73 164.211V202.737M1081.73 164.211H1120.25M1081.73 202.737V241.263M1081.73 202.737H1120.25M1081.73 241.263V279.789M1081.73 241.263H1120.25M1081.73 279.789V318.316M1081.73 279.789H1120.25M1081.73 318.316V356.842M1081.73 318.316H1120.25M1081.73 356.842V395.368M1081.73 356.842H1120.25M1081.73 395.368V433.895M1081.73 395.368H1120.25M1081.73 433.895V472.421M1081.73 433.895H1120.25M1081.73 472.421V510.947M1081.73 472.421H1120.25M1081.73 510.947V549.474M1081.73 510.947H1120.25M1081.73 549.474V588M1081.73 549.474H1120.25M1081.73 588H1120.25M1120.25 -144V-105.474M1120.25 -144H1158.77M1120.25 -105.474V-66.9474M1120.25 -105.474H1158.77M1120.25 -66.9474V-28.4211M1120.25 -66.9474H1158.77M1120.25 -28.4211V10.1053M1120.25 -28.4211H1158.77M1120.25 10.1053V48.6316M1120.25 10.1053H1158.77M1120.25 48.6316V87.1579M1120.25 48.6316H1158.77M1120.25 87.1579V125.684M1120.25 87.1579H1158.77M1120.25 125.684V164.211M1120.25 125.684H1158.77M1120.25 164.211V202.737M1120.25 164.211H1158.77M1120.25 202.737V241.263M1120.25 202.737H1158.77M1120.25 241.263V279.789M1120.25 241.263H1158.77M1120.25 279.789V318.316M1120.25 279.789H1158.77M1120.25 318.316V356.842M1120.25 318.316H1158.77M1120.25 356.842V395.368M1120.25 356.842H1158.77M1120.25 395.368V433.895M1120.25 395.368H1158.77M1120.25 433.895V472.421M1120.25 433.895H1158.77M1120.25 472.421V510.947M1120.25 472.421H1158.77M1120.25 510.947V549.474M1120.25 510.947H1158.77M1120.25 549.474V588M1120.25 549.474H1158.77M1120.25 588H1158.77M1158.77 -144V-105.474M1158.77 -144H1197.3M1158.77 -105.474V-66.9474M1158.77 -105.474H1197.3M1158.77 -66.9474V-28.4211M1158.77 -66.9474H1197.3M1158.77 -28.4211V10.1053M1158.77 -28.4211H1197.3M1158.77 10.1053V48.6316M1158.77 10.1053H1197.3M1158.77 48.6316V87.1579M1158.77 48.6316H1197.3M1158.77 87.1579V125.684M1158.77 87.1579H1197.3M1158.77 125.684V164.211M1158.77 125.684H1197.3M1158.77 164.211V202.737M1158.77 164.211H1197.3M1158.77 202.737V241.263M1158.77 202.737H1197.3M1158.77 241.263V279.789M1158.77 241.263H1197.3M1158.77 279.789V318.316M1158.77 279.789H1197.3M1158.77 318.316V356.842M1158.77 318.316H1197.3M1158.77 356.842V395.368M1158.77 356.842H1197.3M1158.77 395.368V433.895M1158.77 395.368H1197.3M1158.77 433.895V472.421M1158.77 433.895H1197.3M1158.77 472.421V510.947M1158.77 472.421H1197.3M1158.77 510.947V549.474M1158.77 510.947H1197.3M1158.77 549.474V588M1158.77 549.474H1197.3M1158.77 588H1197.3M1197.3 -144V-105.474M1197.3 -144H1235.82M1197.3 -105.474V-66.9474M1197.3 -105.474H1235.82M1197.3 -66.9474V-28.4211M1197.3 -66.9474H1235.82M1197.3 -28.4211V10.1053M1197.3 -28.4211H1235.82M1197.3 10.1053V48.6316M1197.3 10.1053H1235.82M1197.3 48.6316V87.1579M1197.3 48.6316H1235.82M1197.3 87.1579V125.684M1197.3 87.1579H1235.82M1197.3 125.684V164.211M1197.3 125.684H1235.82M1197.3 164.211V202.737M1197.3 164.211H1235.82M1197.3 202.737V241.263M1197.3 202.737H1235.82M1197.3 241.263V279.789M1197.3 241.263H1235.82M1197.3 279.789V318.316M1197.3 279.789H1235.82M1197.3 318.316V356.842M1197.3 318.316H1235.82M1197.3 356.842V395.368M1197.3 356.842H1235.82M1197.3 395.368V433.895M1197.3 395.368H1235.82M1197.3 433.895V472.421M1197.3 433.895H1235.82M1197.3 472.421V510.947M1197.3 472.421H1235.82M1197.3 510.947V549.474M1197.3 510.947H1235.82M1197.3 549.474V588M1197.3 549.474H1235.82M1197.3 588H1235.82M1235.82 -144V-105.474M1235.82 -144H1274.34M1235.82 -105.474V-66.9474M1235.82 -105.474H1274.34M1235.82 -66.9474V-28.4211M1235.82 -66.9474H1274.34M1235.82 -28.4211V10.1053M1235.82 -28.4211H1274.34M1235.82 10.1053V48.6316M1235.82 10.1053H1274.34M1235.82 48.6316V87.1579M1235.82 48.6316H1274.34M1235.82 87.1579V125.684M1235.82 87.1579H1274.34M1235.82 125.684V164.211M1235.82 125.684H1274.34M1235.82 164.211V202.737M1235.82 164.211H1274.34M1235.82 202.737V241.263M1235.82 202.737H1274.34M1235.82 241.263V279.789M1235.82 241.263H1274.34M1235.82 279.789V318.316M1235.82 279.789H1274.34M1235.82 318.316V356.842M1235.82 318.316H1274.34M1235.82 356.842V395.368M1235.82 356.842H1274.34M1235.82 395.368V433.895M1235.82 395.368H1274.34M1235.82 433.895V472.421M1235.82 433.895H1274.34M1235.82 472.421V510.947M1235.82 472.421H1274.34M1235.82 510.947V549.474M1235.82 510.947H1274.34M1235.82 549.474V588M1235.82 549.474H1274.34M1235.82 588H1274.34M1274.34 -144V-105.474M1274.34 -144H1312.86M1274.34 -105.474V-66.9474M1274.34 -105.474H1312.86M1274.34 -66.9474V-28.4211M1274.34 -66.9474H1312.86M1274.34 -28.4211V10.1053M1274.34 -28.4211H1312.86M1274.34 10.1053V48.6316M1274.34 10.1053H1312.86M1274.34 48.6316V87.1579M1274.34 48.6316H1312.86M1274.34 87.1579V125.684M1274.34 87.1579H1312.86M1274.34 125.684V164.211M1274.34 125.684H1312.86M1274.34 164.211V202.737M1274.34 164.211H1312.86M1274.34 202.737V241.263M1274.34 202.737H1312.86M1274.34 241.263V279.789M1274.34 241.263H1312.86M1274.34 279.789V318.316M1274.34 279.789H1312.86M1274.34 318.316V356.842M1274.34 318.316H1312.86M1274.34 356.842V395.368M1274.34 356.842H1312.86M1274.34 395.368V433.895M1274.34 395.368H1312.86M1274.34 433.895V472.421M1274.34 433.895H1312.86M1274.34 472.421V510.947M1274.34 472.421H1312.86M1274.34 510.947V549.474M1274.34 510.947H1312.86M1274.34 549.474V588M1274.34 549.474H1312.86M1274.34 588H1312.86M1312.86 -144V-105.474M1312.86 -144H1351.39M1312.86 -105.474V-66.9474M1312.86 -105.474H1351.39M1312.86 -66.9474V-28.4211M1312.86 -66.9474H1351.39M1312.86 -28.4211V10.1053M1312.86 -28.4211H1351.39M1312.86 10.1053V48.6316M1312.86 10.1053H1351.39M1312.86 48.6316V87.1579M1312.86 48.6316H1351.39M1312.86 87.1579V125.684M1312.86 87.1579H1351.39M1312.86 125.684V164.211M1312.86 125.684H1351.39M1312.86 164.211V202.737M1312.86 164.211H1351.39M1312.86 202.737V241.263M1312.86 202.737H1351.39M1312.86 241.263V279.789M1312.86 241.263H1351.39M1312.86 279.789V318.316M1312.86 279.789H1351.39M1312.86 318.316V356.842M1312.86 318.316H1351.39M1312.86 356.842V395.368M1312.86 356.842H1351.39M1312.86 395.368V433.895M1312.86 395.368H1351.39M1312.86 433.895V472.421M1312.86 433.895H1351.39M1312.86 472.421V510.947M1312.86 472.421H1351.39M1312.86 510.947V549.474M1312.86 510.947H1351.39M1312.86 549.474V588M1312.86 549.474H1351.39M1312.86 588H1351.39M1351.39 -144V-105.474M1351.39 -144H1389.91M1351.39 -105.474V-66.9474M1351.39 -105.474H1389.91M1351.39 -66.9474V-28.4211M1351.39 -66.9474H1389.91M1351.39 -28.4211V10.1053M1351.39 -28.4211H1389.91M1351.39 10.1053V48.6316M1351.39 10.1053H1389.91M1351.39 48.6316V87.1579M1351.39 48.6316H1389.91M1351.39 87.1579V125.684M1351.39 87.1579H1389.91M1351.39 125.684V164.211M1351.39 125.684H1389.91M1351.39 164.211V202.737M1351.39 164.211H1389.91M1351.39 202.737V241.263M1351.39 202.737H1389.91M1351.39 241.263V279.789M1351.39 241.263H1389.91M1351.39 279.789V318.316M1351.39 279.789H1389.91M1351.39 318.316V356.842M1351.39 318.316H1389.91M1351.39 356.842V395.368M1351.39 356.842H1389.91M1351.39 395.368V433.895M1351.39 395.368H1389.91M1351.39 433.895V472.421M1351.39 433.895H1389.91M1351.39 472.421V510.947M1351.39 472.421H1389.91M1351.39 510.947V549.474M1351.39 510.947H1389.91M1351.39 549.474V588M1351.39 549.474H1389.91M1351.39 588H1389.91M1389.91 -144V-105.474M1389.91 -144H1428.43M1389.91 -105.474V-66.9474M1389.91 -105.474H1428.43M1389.91 -66.9474V-28.4211M1389.91 -66.9474H1428.43M1389.91 -28.4211V10.1053M1389.91 -28.4211H1428.43M1389.91 10.1053V48.6316M1389.91 10.1053H1428.43M1389.91 48.6316V87.1579M1389.91 48.6316H1428.43M1389.91 87.1579V125.684M1389.91 87.1579H1428.43M1389.91 125.684V164.211M1389.91 125.684H1428.43M1389.91 164.211V202.737M1389.91 164.211H1428.43M1389.91 202.737V241.263M1389.91 202.737H1428.43M1389.91 241.263V279.789M1389.91 241.263H1428.43M1389.91 279.789V318.316M1389.91 279.789H1428.43M1389.91 318.316V356.842M1389.91 318.316H1428.43M1389.91 356.842V395.368M1389.91 356.842H1428.43M1389.91 395.368V433.895M1389.91 395.368H1428.43M1389.91 433.895V472.421M1389.91 433.895H1428.43M1389.91 472.421V510.947M1389.91 472.421H1428.43M1389.91 510.947V549.474M1389.91 510.947H1428.43M1389.91 549.474V588M1389.91 549.474H1428.43M1389.91 588H1428.43M1428.43 -144V-105.474M1428.43 -144H1466.95M1428.43 -105.474V-66.9474M1428.43 -105.474H1466.95M1428.43 -66.9474V-28.4211M1428.43 -66.9474H1466.95M1428.43 -28.4211V10.1053M1428.43 -28.4211H1466.95M1428.43 10.1053V48.6316M1428.43 10.1053H1466.95M1428.43 48.6316V87.1579M1428.43 48.6316H1466.95M1428.43 87.1579V125.684M1428.43 87.1579H1466.95M1428.43 125.684V164.211M1428.43 125.684H1466.95M1428.43 164.211V202.737M1428.43 164.211H1466.95M1428.43 202.737V241.263M1428.43 202.737H1466.95M1428.43 241.263V279.789M1428.43 241.263H1466.95M1428.43 279.789V318.316M1428.43 279.789H1466.95M1428.43 318.316V356.842M1428.43 318.316H1466.95M1428.43 356.842V395.368M1428.43 356.842H1466.95M1428.43 395.368V433.895M1428.43 395.368H1466.95M1428.43 433.895V472.421M1428.43 433.895H1466.95M1428.43 472.421V510.947M1428.43 472.421H1466.95M1428.43 510.947V549.474M1428.43 510.947H1466.95M1428.43 549.474V588M1428.43 549.474H1466.95M1428.43 588H1466.95M1466.95 -144V-105.474M1466.95 -144H1505.48M1466.95 -105.474V-66.9474M1466.95 -105.474H1505.48M1466.95 -66.9474V-28.4211M1466.95 -66.9474H1505.48M1466.95 -28.4211V10.1053M1466.95 -28.4211H1505.48M1466.95 10.1053V48.6316M1466.95 10.1053H1505.48M1466.95 48.6316V87.1579M1466.95 48.6316H1505.48M1466.95 87.1579V125.684M1466.95 87.1579H1505.48M1466.95 125.684V164.211M1466.95 125.684H1505.48M1466.95 164.211V202.737M1466.95 164.211H1505.48M1466.95 202.737V241.263M1466.95 202.737H1505.48M1466.95 241.263V279.789M1466.95 241.263H1505.48M1466.95 279.789V318.316M1466.95 279.789H1505.48M1466.95 318.316V356.842M1466.95 318.316H1505.48M1466.95 356.842V395.368M1466.95 356.842H1505.48M1466.95 395.368V433.895M1466.95 395.368H1505.48M1466.95 433.895V472.421M1466.95 433.895H1505.48M1466.95 472.421V510.947M1466.95 472.421H1505.48M1466.95 510.947V549.474M1466.95 510.947H1505.48M1466.95 549.474V588M1466.95 549.474H1505.48M1466.95 588H1505.48M1505.48 -144V-105.474M1505.48 -144H1544V-105.474M1505.48 -105.474V-66.9474M1505.48 -105.474H1544M1505.48 -66.9474V-28.4211M1505.48 -66.9474H1544M1505.48 -28.4211V10.1053M1505.48 -28.4211H1544M1505.48 10.1053V48.6316M1505.48 10.1053H1544M1505.48 48.6316V87.1579M1505.48 48.6316H1544M1505.48 87.1579V125.684M1505.48 87.1579H1544M1505.48 125.684V164.211M1505.48 125.684H1544M1505.48 164.211V202.737M1505.48 164.211H1544M1505.48 202.737V241.263M1505.48 202.737H1544M1505.48 241.263V279.789M1505.48 241.263H1544M1505.48 279.789V318.316M1505.48 279.789H1544M1505.48 318.316V356.842M1505.48 318.316H1544M1505.48 356.842V395.368M1505.48 356.842H1544M1505.48 395.368V433.895M1505.48 395.368H1544M1505.48 433.895V472.421M1505.48 433.895H1544M1505.48 472.421V510.947M1505.48 472.421H1544M1505.48 510.947V549.474M1505.48 510.947H1544M1505.48 549.474V588M1505.48 549.474H1544M1505.48 588H1544V549.474M1544 -105.474V-66.9474M1544 -66.9474V-28.4211M1544 -28.4211V10.1053M1544 10.1053V48.6316M1544 48.6316V87.1579M1544 87.1579V125.684M1544 125.684V164.211M1544 164.211V202.737M1544 202.737V241.263M1544 241.263V279.789M1544 279.789V318.316M1544 318.316V356.842M1544 356.842V395.368M1544 395.368V433.895M1544 433.895V472.421M1544 472.421V510.947M1544 510.947V549.474" stroke="url(#paint0_radial_7_61)"/>
</g>
</g>
<defs>
<radialGradient id="paint0_radial_7_61" cx="0" cy="0" r="1" gradientUnits="userSpaceOnUse" gradientTransform="translate(177 129.5) rotate(-0.600614) scale(1097.06 2051.36)">
<stop stop-color="white"/>
<stop offset="1" stop-color="white" stop-opacity="0.2"/>
</radialGradient>
<clipPath id="clip0_7_61">
<rect width="1392" height="443" rx="16" fill="white"/>
</clipPath>
</defs>
</svg>
