<svg width="1392" height="725" viewBox="0 0 1392 725" fill="none" xmlns="http://www.w3.org/2000/svg">
<g style="mix-blend-mode:soft-light" opacity="0.4">
<path d="M-189.202 -118.798H-231.354V-76.6454M-189.202 -118.798V-76.6454M-189.202 -118.798H-147.05M-189.202 -76.6454H-231.354M-189.202 -76.6454V-34.4929M-189.202 -76.6454H-147.05M-231.354 -76.6454V-34.4929M-189.202 -34.4929H-231.354M-189.202 -34.4929V7.65951M-189.202 -34.4929H-147.05M-231.354 -34.4929V7.65951M-189.202 7.65951H-231.354M-189.202 7.65951V49.812M-189.202 7.65951H-147.05M-231.354 7.65951V49.812M-189.202 49.812H-231.354M-189.202 49.812V91.9644M-189.202 49.812H-147.05M-231.354 49.812V91.9644M-189.202 91.9644H-231.354M-189.202 91.9644V134.117M-189.202 91.9644H-147.05M-231.354 91.9644V134.117M-189.202 134.117H-231.354M-189.202 134.117V176.269M-189.202 134.117H-147.05M-231.354 134.117V176.269M-189.202 176.269H-231.354M-189.202 176.269V218.422M-189.202 176.269H-147.05M-231.354 176.269V218.422M-189.202 218.422H-231.354M-189.202 218.422V260.574M-189.202 218.422H-147.05M-231.354 218.422V260.574M-189.202 260.574H-231.354M-189.202 260.574V302.727M-189.202 260.574H-147.05M-231.354 260.574V302.727M-189.202 302.727H-231.354M-189.202 302.727V344.879M-189.202 302.727H-147.05M-231.354 302.727V344.879M-189.202 344.879H-231.354M-189.202 344.879V387.032M-189.202 344.879H-147.05M-231.354 344.879V387.032M-189.202 387.032H-231.354M-189.202 387.032V429.184M-189.202 387.032H-147.05M-231.354 387.032V429.184M-189.202 429.184H-231.354M-189.202 429.184V471.336M-189.202 429.184H-147.05M-231.354 429.184V471.336M-189.202 471.336H-231.354M-189.202 471.336V513.489M-189.202 471.336H-147.05M-231.354 471.336V513.489M-189.202 513.489H-231.354M-189.202 513.489V555.641M-189.202 513.489H-147.05M-231.354 513.489V555.641M-189.202 555.641H-231.354M-189.202 555.641V597.794M-189.202 555.641H-147.05M-231.354 555.641V597.794M-189.202 597.794H-231.354M-189.202 597.794V639.946M-189.202 597.794H-147.05M-231.354 597.794V639.946M-189.202 639.946H-231.354M-189.202 639.946V682.099M-189.202 639.946H-147.05M-231.354 639.946V682.099M-189.202 682.099H-231.354M-189.202 682.099V724.251M-189.202 682.099H-147.05M-231.354 682.099V724.251H-189.202M-189.202 724.251H-147.05M-147.05 -118.798V-76.6454M-147.05 -118.798H-104.897M-147.05 -76.6454V-34.4929M-147.05 -76.6454H-104.897M-147.05 -34.4929V7.65951M-147.05 -34.4929H-104.897M-147.05 7.65951V49.812M-147.05 7.65951H-104.897M-147.05 49.812V91.9644M-147.05 49.812H-104.897M-147.05 91.9644V134.117M-147.05 91.9644H-104.897M-147.05 134.117V176.269M-147.05 134.117H-104.897M-147.05 176.269V218.422M-147.05 176.269H-104.897M-147.05 218.422V260.574M-147.05 218.422H-104.897M-147.05 260.574V302.727M-147.05 260.574H-104.897M-147.05 302.727V344.879M-147.05 302.727H-104.897M-147.05 344.879V387.032M-147.05 344.879H-104.897M-147.05 387.032V429.184M-147.05 387.032H-104.897M-147.05 429.184V471.336M-147.05 429.184H-104.897M-147.05 471.336V513.489M-147.05 471.336H-104.897M-147.05 513.489V555.641M-147.05 513.489H-104.897M-147.05 555.641V597.794M-147.05 555.641H-104.897M-147.05 597.794V639.946M-147.05 597.794H-104.897M-147.05 639.946V682.099M-147.05 639.946H-104.897M-147.05 682.099V724.251M-147.05 682.099H-104.897M-147.05 724.251H-104.897M-104.897 -118.798V-76.6454M-104.897 -118.798H-62.7447M-104.897 -76.6454V-34.4929M-104.897 -76.6454H-62.7447M-104.897 -34.4929V7.65951M-104.897 -34.4929H-62.7447M-104.897 7.65951V49.812M-104.897 7.65951H-62.7447M-104.897 49.812V91.9644M-104.897 49.812H-62.7447M-104.897 91.9644V134.117M-104.897 91.9644H-62.7447M-104.897 134.117V176.269M-104.897 134.117H-62.7447M-104.897 176.269V218.422M-104.897 176.269H-62.7447M-104.897 218.422V260.574M-104.897 218.422H-62.7447M-104.897 260.574V302.727M-104.897 260.574H-62.7447M-104.897 302.727V344.879M-104.897 302.727H-62.7447M-104.897 344.879V387.032M-104.897 344.879H-62.7447M-104.897 387.032V429.184M-104.897 387.032H-62.7447M-104.897 429.184V471.336M-104.897 429.184H-62.7447M-104.897 471.336V513.489M-104.897 471.336H-62.7447M-104.897 513.489V555.641M-104.897 513.489H-62.7447M-104.897 555.641V597.794M-104.897 555.641H-62.7447M-104.897 597.794V639.946M-104.897 597.794H-62.7447M-104.897 639.946V682.099M-104.897 639.946H-62.7447M-104.897 682.099V724.251M-104.897 682.099H-62.7447M-104.897 724.251H-62.7447M-62.7447 -118.798V-76.6454M-62.7447 -118.798H-20.5922M-62.7447 -76.6454V-34.4929M-62.7447 -76.6454H-20.5922M-62.7447 -34.4929V7.65951M-62.7447 -34.4929H-20.5922M-62.7447 7.65951V49.812M-62.7447 7.65951H-20.5922M-62.7447 49.812V91.9644M-62.7447 49.812H-20.5922M-62.7447 91.9644V134.117M-62.7447 91.9644H-20.5922M-62.7447 134.117V176.269M-62.7447 134.117H-20.5922M-62.7447 176.269V218.422M-62.7447 176.269H-20.5922M-62.7447 218.422V260.574M-62.7447 218.422H-20.5922M-62.7447 260.574V302.727M-62.7447 260.574H-20.5922M-62.7447 302.727V344.879M-62.7447 302.727H-20.5922M-62.7447 344.879V387.032M-62.7447 344.879H-20.5922M-62.7447 387.032V429.184M-62.7447 387.032H-20.5922M-62.7447 429.184V471.336M-62.7447 429.184H-20.5922M-62.7447 471.336V513.489M-62.7447 471.336H-20.5922M-62.7447 513.489V555.641M-62.7447 513.489H-20.5922M-62.7447 555.641V597.794M-62.7447 555.641H-20.5922M-62.7447 597.794V639.946M-62.7447 597.794H-20.5922M-62.7447 639.946V682.099M-62.7447 639.946H-20.5922M-62.7447 682.099V724.251M-62.7447 682.099H-20.5922M-62.7447 724.251H-20.5922M-20.5922 -118.798V-76.6454M-20.5922 -118.798H21.5602M-20.5922 -76.6454V-34.4929M-20.5922 -76.6454H21.5602M-20.5922 -34.4929V7.65951M-20.5922 -34.4929H21.5602M-20.5922 7.65951V49.812M-20.5922 7.65951H21.5602M-20.5922 49.812V91.9644M-20.5922 49.812H21.5602M-20.5922 91.9644V134.117M-20.5922 91.9644H21.5602M-20.5922 134.117V176.269M-20.5922 134.117H21.5602M-20.5922 176.269V218.422M-20.5922 176.269H21.5602M-20.5922 218.422V260.574M-20.5922 218.422H21.5602M-20.5922 260.574V302.727M-20.5922 260.574H21.5602M-20.5922 302.727V344.879M-20.5922 302.727H21.5602M-20.5922 344.879V387.032M-20.5922 344.879H21.5602M-20.5922 387.032V429.184M-20.5922 387.032H21.5602M-20.5922 429.184V471.336M-20.5922 429.184H21.5602M-20.5922 471.336V513.489M-20.5922 471.336H21.5602M-20.5922 513.489V555.641M-20.5922 513.489H21.5602M-20.5922 555.641V597.794M-20.5922 555.641H21.5602M-20.5922 597.794V639.946M-20.5922 597.794H21.5602M-20.5922 639.946V682.099M-20.5922 639.946H21.5602M-20.5922 682.099V724.251M-20.5922 682.099H21.5602M-20.5922 724.251H21.5602M21.5602 -118.798V-76.6454M21.5602 -118.798H63.7127M21.5602 -76.6454V-34.4929M21.5602 -76.6454H63.7127M21.5602 -34.4929V7.65951M21.5602 -34.4929H63.7127M21.5602 7.65951V49.812M21.5602 7.65951H63.7127M21.5602 49.812V91.9644M21.5602 49.812H63.7127M21.5602 91.9644V134.117M21.5602 91.9644H63.7127M21.5602 134.117V176.269M21.5602 134.117H63.7127M21.5602 176.269V218.422M21.5602 176.269H63.7127M21.5602 218.422V260.574M21.5602 218.422H63.7127M21.5602 260.574V302.727M21.5602 260.574H63.7127M21.5602 302.727V344.879M21.5602 302.727H63.7127M21.5602 344.879V387.032M21.5602 344.879H63.7127M21.5602 387.032V429.184M21.5602 387.032H63.7127M21.5602 429.184V471.336M21.5602 429.184H63.7127M21.5602 471.336V513.489M21.5602 471.336H63.7127M21.5602 513.489V555.641M21.5602 513.489H63.7127M21.5602 555.641V597.794M21.5602 555.641H63.7127M21.5602 597.794V639.946M21.5602 597.794H63.7127M21.5602 639.946V682.099M21.5602 639.946H63.7127M21.5602 682.099V724.251M21.5602 682.099H63.7127M21.5602 724.251H63.7127M63.7127 -118.798V-76.6454M63.7127 -118.798H105.865M63.7127 -76.6454V-34.4929M63.7127 -76.6454H105.865M63.7127 -34.4929V7.65951M63.7127 -34.4929H105.865M63.7127 7.65951V49.812M63.7127 7.65951H105.865M63.7127 49.812V91.9644M63.7127 49.812H105.865M63.7127 91.9644V134.117M63.7127 91.9644H105.865M63.7127 134.117V176.269M63.7127 134.117H105.865M63.7127 176.269V218.422M63.7127 176.269H105.865M63.7127 218.422V260.574M63.7127 218.422H105.865M63.7127 260.574V302.727M63.7127 260.574H105.865M63.7127 302.727V344.879M63.7127 302.727H105.865M63.7127 344.879V387.032M63.7127 344.879H105.865M63.7127 387.032V429.184M63.7127 387.032H105.865M63.7127 429.184V471.336M63.7127 429.184H105.865M63.7127 471.336V513.489M63.7127 471.336H105.865M63.7127 513.489V555.641M63.7127 513.489H105.865M63.7127 555.641V597.794M63.7127 555.641H105.865M63.7127 597.794V639.946M63.7127 597.794H105.865M63.7127 639.946V682.099M63.7127 639.946H105.865M63.7127 682.099V724.251M63.7127 682.099H105.865M63.7127 724.251H105.865M105.865 -118.798V-76.6454M105.865 -118.798H148.018M105.865 -76.6454V-34.4929M105.865 -76.6454H148.018M105.865 -34.4929V7.65951M105.865 -34.4929H148.018M105.865 7.65951V49.812M105.865 7.65951H148.018M105.865 49.812V91.9644M105.865 49.812H148.018M105.865 91.9644V134.117M105.865 91.9644H148.018M105.865 134.117V176.269M105.865 134.117H148.018M105.865 176.269V218.422M105.865 176.269H148.018M105.865 218.422V260.574M105.865 218.422H148.018M105.865 260.574V302.727M105.865 260.574H148.018M105.865 302.727V344.879M105.865 302.727H148.018M105.865 344.879V387.032M105.865 344.879H148.018M105.865 387.032V429.184M105.865 387.032H148.018M105.865 429.184V471.336M105.865 429.184H148.018M105.865 471.336V513.489M105.865 471.336H148.018M105.865 513.489V555.641M105.865 513.489H148.018M105.865 555.641V597.794M105.865 555.641H148.018M105.865 597.794V639.946M105.865 597.794H148.018M105.865 639.946V682.099M105.865 639.946H148.018M105.865 682.099V724.251M105.865 682.099H148.018M105.865 724.251H148.018M148.018 -118.798V-76.6454M148.018 -118.798H190.17M148.018 -76.6454V-34.4929M148.018 -76.6454H190.17M148.018 -34.4929V7.65951M148.018 -34.4929H190.17M148.018 7.65951V49.812M148.018 7.65951H190.17M148.018 49.812V91.9644M148.018 49.812H190.17M148.018 91.9644V134.117M148.018 91.9644H190.17M148.018 134.117V176.269M148.018 134.117H190.17M148.018 176.269V218.422M148.018 176.269H190.17M148.018 218.422V260.574M148.018 218.422H190.17M148.018 260.574V302.727M148.018 260.574H190.17M148.018 302.727V344.879M148.018 302.727H190.17M148.018 344.879V387.032M148.018 344.879H190.17M148.018 387.032V429.184M148.018 387.032H190.17M148.018 429.184V471.336M148.018 429.184H190.17M148.018 471.336V513.489M148.018 471.336H190.17M148.018 513.489V555.641M148.018 513.489H190.17M148.018 555.641V597.794M148.018 555.641H190.17M148.018 597.794V639.946M148.018 597.794H190.17M148.018 639.946V682.099M148.018 639.946H190.17M148.018 682.099V724.251M148.018 682.099H190.17M148.018 724.251H190.17M190.17 -118.798V-76.6454M190.17 -118.798H232.322M190.17 -76.6454V-34.4929M190.17 -76.6454H232.322M190.17 -34.4929V7.65951M190.17 -34.4929H232.322M190.17 7.65951V49.812M190.17 7.65951H232.322M190.17 49.812V91.9644M190.17 49.812H232.322M190.17 91.9644V134.117M190.17 91.9644H232.322M190.17 134.117V176.269M190.17 134.117H232.322M190.17 176.269V218.422M190.17 176.269H232.322M190.17 218.422V260.574M190.17 218.422H232.322M190.17 260.574V302.727M190.17 260.574H232.322M190.17 302.727V344.879M190.17 302.727H232.322M190.17 344.879V387.032M190.17 344.879H232.322M190.17 387.032V429.184M190.17 387.032H232.322M190.17 429.184V471.336M190.17 429.184H232.322M190.17 471.336V513.489M190.17 471.336H232.322M190.17 513.489V555.641M190.17 513.489H232.322M190.17 555.641V597.794M190.17 555.641H232.322M190.17 597.794V639.946M190.17 597.794H232.322M190.17 639.946V682.099M190.17 639.946H232.322M190.17 682.099V724.251M190.17 682.099H232.322M190.17 724.251H232.322M232.322 -118.798V-76.6454M232.322 -118.798H274.475M232.322 -76.6454V-34.4929M232.322 -76.6454H274.475M232.322 -34.4929V7.65951M232.322 -34.4929H274.475M232.322 7.65951V49.812M232.322 7.65951H274.475M232.322 49.812V91.9644M232.322 49.812H274.475M232.322 91.9644V134.117M232.322 91.9644H274.475M232.322 134.117V176.269M232.322 134.117H274.475M232.322 176.269V218.422M232.322 176.269H274.475M232.322 218.422V260.574M232.322 218.422H274.475M232.322 260.574V302.727M232.322 260.574H274.475M232.322 302.727V344.879M232.322 302.727H274.475M232.322 344.879V387.032M232.322 344.879H274.475M232.322 387.032V429.184M232.322 387.032H274.475M232.322 429.184V471.336M232.322 429.184H274.475M232.322 471.336V513.489M232.322 471.336H274.475M232.322 513.489V555.641M232.322 513.489H274.475M232.322 555.641V597.794M232.322 555.641H274.475M232.322 597.794V639.946M232.322 597.794H274.475M232.322 639.946V682.099M232.322 639.946H274.475M232.322 682.099V724.251M232.322 682.099H274.475M232.322 724.251H274.475M274.475 -118.798V-76.6454M274.475 -118.798H316.627M274.475 -76.6454V-34.4929M274.475 -76.6454H316.627M274.475 -34.4929V7.65951M274.475 -34.4929H316.627M274.475 7.65951V49.812M274.475 7.65951H316.627M274.475 49.812V91.9644M274.475 49.812H316.627M274.475 91.9644V134.117M274.475 91.9644H316.627M274.475 134.117V176.269M274.475 134.117H316.627M274.475 176.269V218.422M274.475 176.269H316.627M274.475 218.422V260.574M274.475 218.422H316.627M274.475 260.574V302.727M274.475 260.574H316.627M274.475 302.727V344.879M274.475 302.727H316.627M274.475 344.879V387.032M274.475 344.879H316.627M274.475 387.032V429.184M274.475 387.032H316.627M274.475 429.184V471.336M274.475 429.184H316.627M274.475 471.336V513.489M274.475 471.336H316.627M274.475 513.489V555.641M274.475 513.489H316.627M274.475 555.641V597.794M274.475 555.641H316.627M274.475 597.794V639.946M274.475 597.794H316.627M274.475 639.946V682.099M274.475 639.946H316.627M274.475 682.099V724.251M274.475 682.099H316.627M274.475 724.251H316.627M316.627 -118.798V-76.6454M316.627 -118.798H358.78M316.627 -76.6454V-34.4929M316.627 -76.6454H358.78M316.627 -34.4929V7.65951M316.627 -34.4929H358.78M316.627 7.65951V49.812M316.627 7.65951H358.78M316.627 49.812V91.9644M316.627 49.812H358.78M316.627 91.9644V134.117M316.627 91.9644H358.78M316.627 134.117V176.269M316.627 134.117H358.78M316.627 176.269V218.422M316.627 176.269H358.78M316.627 218.422V260.574M316.627 218.422H358.78M316.627 260.574V302.727M316.627 260.574H358.78M316.627 302.727V344.879M316.627 302.727H358.78M316.627 344.879V387.032M316.627 344.879H358.78M316.627 387.032V429.184M316.627 387.032H358.78M316.627 429.184V471.336M316.627 429.184H358.78M316.627 471.336V513.489M316.627 471.336H358.78M316.627 513.489V555.641M316.627 513.489H358.78M316.627 555.641V597.794M316.627 555.641H358.78M316.627 597.794V639.946M316.627 597.794H358.78M316.627 639.946V682.099M316.627 639.946H358.78M316.627 682.099V724.251M316.627 682.099H358.78M316.627 724.251H358.78M358.78 -118.798V-76.6454M358.78 -118.798H400.932M358.78 -76.6454V-34.4929M358.78 -76.6454H400.932M358.78 -34.4929V7.65951M358.78 -34.4929H400.932M358.78 7.65951V49.812M358.78 7.65951H400.932M358.78 49.812V91.9644M358.78 49.812H400.932M358.78 91.9644V134.117M358.78 91.9644H400.932M358.78 134.117V176.269M358.78 134.117H400.932M358.78 176.269V218.422M358.78 176.269H400.932M358.78 218.422V260.574M358.78 218.422H400.932M358.78 260.574V302.727M358.78 260.574H400.932M358.78 302.727V344.879M358.78 302.727H400.932M358.78 344.879V387.032M358.78 344.879H400.932M358.78 387.032V429.184M358.78 387.032H400.932M358.78 429.184V471.336M358.78 429.184H400.932M358.78 471.336V513.489M358.78 471.336H400.932M358.78 513.489V555.641M358.78 513.489H400.932M358.78 555.641V597.794M358.78 555.641H400.932M358.78 597.794V639.946M358.78 597.794H400.932M358.78 639.946V682.099M358.78 639.946H400.932M358.78 682.099V724.251M358.78 682.099H400.932M358.78 724.251H400.932M400.932 -118.798V-76.6454M400.932 -118.798H443.085M400.932 -76.6454V-34.4929M400.932 -76.6454H443.085M400.932 -34.4929V7.65951M400.932 -34.4929H443.085M400.932 7.65951V49.812M400.932 7.65951H443.085M400.932 49.812V91.9644M400.932 49.812H443.085M400.932 91.9644V134.117M400.932 91.9644H443.085M400.932 134.117V176.269M400.932 134.117H443.085M400.932 176.269V218.422M400.932 176.269H443.085M400.932 218.422V260.574M400.932 218.422H443.085M400.932 260.574V302.727M400.932 260.574H443.085M400.932 302.727V344.879M400.932 302.727H443.085M400.932 344.879V387.032M400.932 344.879H443.085M400.932 387.032V429.184M400.932 387.032H443.085M400.932 429.184V471.336M400.932 429.184H443.085M400.932 471.336V513.489M400.932 471.336H443.085M400.932 513.489V555.641M400.932 513.489H443.085M400.932 555.641V597.794M400.932 555.641H443.085M400.932 597.794V639.946M400.932 597.794H443.085M400.932 639.946V682.099M400.932 639.946H443.085M400.932 682.099V724.251M400.932 682.099H443.085M400.932 724.251H443.085M443.085 -118.798V-76.6454M443.085 -118.798H485.237M443.085 -76.6454V-34.4929M443.085 -76.6454H485.237M443.085 -34.4929V7.65951M443.085 -34.4929H485.237M443.085 7.65951V49.812M443.085 7.65951H485.237M443.085 49.812V91.9644M443.085 49.812H485.237M443.085 91.9644V134.117M443.085 91.9644H485.237M443.085 134.117V176.269M443.085 134.117H485.237M443.085 176.269V218.422M443.085 176.269H485.237M443.085 218.422V260.574M443.085 218.422H485.237M443.085 260.574V302.727M443.085 260.574H485.237M443.085 302.727V344.879M443.085 302.727H485.237M443.085 344.879V387.032M443.085 344.879H485.237M443.085 387.032V429.184M443.085 387.032H485.237M443.085 429.184V471.336M443.085 429.184H485.237M443.085 471.336V513.489M443.085 471.336H485.237M443.085 513.489V555.641M443.085 513.489H485.237M443.085 555.641V597.794M443.085 555.641H485.237M443.085 597.794V639.946M443.085 597.794H485.237M443.085 639.946V682.099M443.085 639.946H485.237M443.085 682.099V724.251M443.085 682.099H485.237M443.085 724.251H485.237M485.237 -118.798V-76.6454M485.237 -118.798H527.39M485.237 -76.6454V-34.4929M485.237 -76.6454H527.39M485.237 -34.4929V7.65951M485.237 -34.4929H527.39M485.237 7.65951V49.812M485.237 7.65951H527.39M485.237 49.812V91.9644M485.237 49.812H527.39M485.237 91.9644V134.117M485.237 91.9644H527.39M485.237 134.117V176.269M485.237 134.117H527.39M485.237 176.269V218.422M485.237 176.269H527.39M485.237 218.422V260.574M485.237 218.422H527.39M485.237 260.574V302.727M485.237 260.574H527.39M485.237 302.727V344.879M485.237 302.727H527.39M485.237 344.879V387.032M485.237 344.879H527.39M485.237 387.032V429.184M485.237 387.032H527.39M485.237 429.184V471.336M485.237 429.184H527.39M485.237 471.336V513.489M485.237 471.336H527.39M485.237 513.489V555.641M485.237 513.489H527.39M485.237 555.641V597.794M485.237 555.641H527.39M485.237 597.794V639.946M485.237 597.794H527.39M485.237 639.946V682.099M485.237 639.946H527.39M485.237 682.099V724.251M485.237 682.099H527.39M485.237 724.251H527.39M527.39 -118.798V-76.6454M527.39 -118.798H569.542M527.39 -76.6454V-34.4929M527.39 -76.6454H569.542M527.39 -34.4929V7.65951M527.39 -34.4929H569.542M527.39 7.65951V49.812M527.39 7.65951H569.542M527.39 49.812V91.9644M527.39 49.812H569.542M527.39 91.9644V134.117M527.39 91.9644H569.542M527.39 134.117V176.269M527.39 134.117H569.542M527.39 176.269V218.422M527.39 176.269H569.542M527.39 218.422V260.574M527.39 218.422H569.542M527.39 260.574V302.727M527.39 260.574H569.542M527.39 302.727V344.879M527.39 302.727H569.542M527.39 344.879V387.032M527.39 344.879H569.542M527.39 387.032V429.184M527.39 387.032H569.542M527.39 429.184V471.336M527.39 429.184H569.542M527.39 471.336V513.489M527.39 471.336H569.542M527.39 513.489V555.641M527.39 513.489H569.542M527.39 555.641V597.794M527.39 555.641H569.542M527.39 597.794V639.946M527.39 597.794H569.542M527.39 639.946V682.099M527.39 639.946H569.542M527.39 682.099V724.251M527.39 682.099H569.542M527.39 724.251H569.542M569.542 -118.798V-76.6454M569.542 -118.798H611.695M569.542 -76.6454V-34.4929M569.542 -76.6454H611.695M569.542 -34.4929V7.65951M569.542 -34.4929H611.695M569.542 7.65951V49.812M569.542 7.65951H611.695M569.542 49.812V91.9644M569.542 49.812H611.695M569.542 91.9644V134.117M569.542 91.9644H611.695M569.542 134.117V176.269M569.542 134.117H611.695M569.542 176.269V218.422M569.542 176.269H611.695M569.542 218.422V260.574M569.542 218.422H611.695M569.542 260.574V302.727M569.542 260.574H611.695M569.542 302.727V344.879M569.542 302.727H611.695M569.542 344.879V387.032M569.542 344.879H611.695M569.542 387.032V429.184M569.542 387.032H611.695M569.542 429.184V471.336M569.542 429.184H611.695M569.542 471.336V513.489M569.542 471.336H611.695M569.542 513.489V555.641M569.542 513.489H611.695M569.542 555.641V597.794M569.542 555.641H611.695M569.542 597.794V639.946M569.542 597.794H611.695M569.542 639.946V682.099M569.542 639.946H611.695M569.542 682.099V724.251M569.542 682.099H611.695M569.542 724.251H611.695M611.695 -118.798V-76.6454M611.695 -118.798H653.847M611.695 -76.6454V-34.4929M611.695 -76.6454H653.847M611.695 -34.4929V7.65951M611.695 -34.4929H653.847M611.695 7.65951V49.812M611.695 7.65951H653.847M611.695 49.812V91.9644M611.695 49.812H653.847M611.695 91.9644V134.117M611.695 91.9644H653.847M611.695 134.117V176.269M611.695 134.117H653.847M611.695 176.269V218.422M611.695 176.269H653.847M611.695 218.422V260.574M611.695 218.422H653.847M611.695 260.574V302.727M611.695 260.574H653.847M611.695 302.727V344.879M611.695 302.727H653.847M611.695 344.879V387.032M611.695 344.879H653.847M611.695 387.032V429.184M611.695 387.032H653.847M611.695 429.184V471.336M611.695 429.184H653.847M611.695 471.336V513.489M611.695 471.336H653.847M611.695 513.489V555.641M611.695 513.489H653.847M611.695 555.641V597.794M611.695 555.641H653.847M611.695 597.794V639.946M611.695 597.794H653.847M611.695 639.946V682.099M611.695 639.946H653.847M611.695 682.099V724.251M611.695 682.099H653.847M611.695 724.251H653.847M653.847 -118.798V-76.6454M653.847 -118.798H695.999M653.847 -76.6454V-34.4929M653.847 -76.6454H695.999M653.847 -34.4929V7.65951M653.847 -34.4929H695.999M653.847 7.65951V49.812M653.847 7.65951H695.999M653.847 49.812V91.9644M653.847 49.812H695.999M653.847 91.9644V134.117M653.847 91.9644H695.999M653.847 134.117V176.269M653.847 134.117H695.999M653.847 176.269V218.422M653.847 176.269H695.999M653.847 218.422V260.574M653.847 218.422H695.999M653.847 260.574V302.727M653.847 260.574H695.999M653.847 302.727V344.879M653.847 302.727H695.999M653.847 344.879V387.032M653.847 344.879H695.999M653.847 387.032V429.184M653.847 387.032H695.999M653.847 429.184V471.336M653.847 429.184H695.999M653.847 471.336V513.489M653.847 471.336H695.999M653.847 513.489V555.641M653.847 513.489H695.999M653.847 555.641V597.794M653.847 555.641H695.999M653.847 597.794V639.946M653.847 597.794H695.999M653.847 639.946V682.099M653.847 639.946H695.999M653.847 682.099V724.251M653.847 682.099H695.999M653.847 724.251H695.999M695.999 -118.798V-76.6454M695.999 -118.798H738.152M695.999 -76.6454V-34.4929M695.999 -76.6454H738.152M695.999 -34.4929V7.65951M695.999 -34.4929H738.152M695.999 7.65951V49.812M695.999 7.65951H738.152M695.999 49.812V91.9644M695.999 49.812H738.152M695.999 91.9644V134.117M695.999 91.9644H738.152M695.999 134.117V176.269M695.999 134.117H738.152M695.999 176.269V218.422M695.999 176.269H738.152M695.999 218.422V260.574M695.999 218.422H738.152M695.999 260.574V302.727M695.999 260.574H738.152M695.999 302.727V344.879M695.999 302.727H738.152M695.999 344.879V387.032M695.999 344.879H738.152M695.999 387.032V429.184M695.999 387.032H738.152M695.999 429.184V471.336M695.999 429.184H738.152M695.999 471.336V513.489M695.999 471.336H738.152M695.999 513.489V555.641M695.999 513.489H738.152M695.999 555.641V597.794M695.999 555.641H738.152M695.999 597.794V639.946M695.999 597.794H738.152M695.999 639.946V682.099M695.999 639.946H738.152M695.999 682.099V724.251M695.999 682.099H738.152M695.999 724.251H738.152M738.152 -118.798V-76.6454M738.152 -118.798H780.304M738.152 -76.6454V-34.4929M738.152 -76.6454H780.304M738.152 -34.4929V7.65951M738.152 -34.4929H780.304M738.152 7.65951V49.812M738.152 7.65951H780.304M738.152 49.812V91.9644M738.152 49.812H780.304M738.152 91.9644V134.117M738.152 91.9644H780.304M738.152 134.117V176.269M738.152 134.117H780.304M738.152 176.269V218.422M738.152 176.269H780.304M738.152 218.422V260.574M738.152 218.422H780.304M738.152 260.574V302.727M738.152 260.574H780.304M738.152 302.727V344.879M738.152 302.727H780.304M738.152 344.879V387.032M738.152 344.879H780.304M738.152 387.032V429.184M738.152 387.032H780.304M738.152 429.184V471.336M738.152 429.184H780.304M738.152 471.336V513.489M738.152 471.336H780.304M738.152 513.489V555.641M738.152 513.489H780.304M738.152 555.641V597.794M738.152 555.641H780.304M738.152 597.794V639.946M738.152 597.794H780.304M738.152 639.946V682.099M738.152 639.946H780.304M738.152 682.099V724.251M738.152 682.099H780.304M738.152 724.251H780.304M780.304 -118.798V-76.6454M780.304 -118.798H822.457M780.304 -76.6454V-34.4929M780.304 -76.6454H822.457M780.304 -34.4929V7.65951M780.304 -34.4929H822.457M780.304 7.65951V49.812M780.304 7.65951H822.457M780.304 49.812V91.9644M780.304 49.812H822.457M780.304 91.9644V134.117M780.304 91.9644H822.457M780.304 134.117V176.269M780.304 134.117H822.457M780.304 176.269V218.422M780.304 176.269H822.457M780.304 218.422V260.574M780.304 218.422H822.457M780.304 260.574V302.727M780.304 260.574H822.457M780.304 302.727V344.879M780.304 302.727H822.457M780.304 344.879V387.032M780.304 344.879H822.457M780.304 387.032V429.184M780.304 387.032H822.457M780.304 429.184V471.336M780.304 429.184H822.457M780.304 471.336V513.489M780.304 471.336H822.457M780.304 513.489V555.641M780.304 513.489H822.457M780.304 555.641V597.794M780.304 555.641H822.457M780.304 597.794V639.946M780.304 597.794H822.457M780.304 639.946V682.099M780.304 639.946H822.457M780.304 682.099V724.251M780.304 682.099H822.457M780.304 724.251H822.457M822.457 -118.798V-76.6454M822.457 -118.798H864.609M822.457 -76.6454V-34.4929M822.457 -76.6454H864.609M822.457 -34.4929V7.65951M822.457 -34.4929H864.609M822.457 7.65951V49.812M822.457 7.65951H864.609M822.457 49.812V91.9644M822.457 49.812H864.609M822.457 91.9644V134.117M822.457 91.9644H864.609M822.457 134.117V176.269M822.457 134.117H864.609M822.457 176.269V218.422M822.457 176.269H864.609M822.457 218.422V260.574M822.457 218.422H864.609M822.457 260.574V302.727M822.457 260.574H864.609M822.457 302.727V344.879M822.457 302.727H864.609M822.457 344.879V387.032M822.457 344.879H864.609M822.457 387.032V429.184M822.457 387.032H864.609M822.457 429.184V471.336M822.457 429.184H864.609M822.457 471.336V513.489M822.457 471.336H864.609M822.457 513.489V555.641M822.457 513.489H864.609M822.457 555.641V597.794M822.457 555.641H864.609M822.457 597.794V639.946M822.457 597.794H864.609M822.457 639.946V682.099M822.457 639.946H864.609M822.457 682.099V724.251M822.457 682.099H864.609M822.457 724.251H864.609M864.609 -118.798V-76.6454M864.609 -118.798H906.762M864.609 -76.6454V-34.4929M864.609 -76.6454H906.762M864.609 -34.4929V7.65951M864.609 -34.4929H906.762M864.609 7.65951V49.812M864.609 7.65951H906.762M864.609 49.812V91.9644M864.609 49.812H906.762M864.609 91.9644V134.117M864.609 91.9644H906.762M864.609 134.117V176.269M864.609 134.117H906.762M864.609 176.269V218.422M864.609 176.269H906.762M864.609 218.422V260.574M864.609 218.422H906.762M864.609 260.574V302.727M864.609 260.574H906.762M864.609 302.727V344.879M864.609 302.727H906.762M864.609 344.879V387.032M864.609 344.879H906.762M864.609 387.032V429.184M864.609 387.032H906.762M864.609 429.184V471.336M864.609 429.184H906.762M864.609 471.336V513.489M864.609 471.336H906.762M864.609 513.489V555.641M864.609 513.489H906.762M864.609 555.641V597.794M864.609 555.641H906.762M864.609 597.794V639.946M864.609 597.794H906.762M864.609 639.946V682.099M864.609 639.946H906.762M864.609 682.099V724.251M864.609 682.099H906.762M864.609 724.251H906.762M906.762 -118.798V-76.6454M906.762 -118.798H948.914M906.762 -76.6454V-34.4929M906.762 -76.6454H948.914M906.762 -34.4929V7.65951M906.762 -34.4929H948.914M906.762 7.65951V49.812M906.762 7.65951H948.914M906.762 49.812V91.9644M906.762 49.812H948.914M906.762 91.9644V134.117M906.762 91.9644H948.914M906.762 134.117V176.269M906.762 134.117H948.914M906.762 176.269V218.422M906.762 176.269H948.914M906.762 218.422V260.574M906.762 218.422H948.914M906.762 260.574V302.727M906.762 260.574H948.914M906.762 302.727V344.879M906.762 302.727H948.914M906.762 344.879V387.032M906.762 344.879H948.914M906.762 387.032V429.184M906.762 387.032H948.914M906.762 429.184V471.336M906.762 429.184H948.914M906.762 471.336V513.489M906.762 471.336H948.914M906.762 513.489V555.641M906.762 513.489H948.914M906.762 555.641V597.794M906.762 555.641H948.914M906.762 597.794V639.946M906.762 597.794H948.914M906.762 639.946V682.099M906.762 639.946H948.914M906.762 682.099V724.251M906.762 682.099H948.914M906.762 724.251H948.914M948.914 -118.798V-76.6454M948.914 -118.798H991.067M948.914 -76.6454V-34.4929M948.914 -76.6454H991.067M948.914 -34.4929V7.65951M948.914 -34.4929H991.067M948.914 7.65951V49.812M948.914 7.65951H991.067M948.914 49.812V91.9644M948.914 49.812H991.067M948.914 91.9644V134.117M948.914 91.9644H991.067M948.914 134.117V176.269M948.914 134.117H991.067M948.914 176.269V218.422M948.914 176.269H991.067M948.914 218.422V260.574M948.914 218.422H991.067M948.914 260.574V302.727M948.914 260.574H991.067M948.914 302.727V344.879M948.914 302.727H991.067M948.914 344.879V387.032M948.914 344.879H991.067M948.914 387.032V429.184M948.914 387.032H991.067M948.914 429.184V471.336M948.914 429.184H991.067M948.914 471.336V513.489M948.914 471.336H991.067M948.914 513.489V555.641M948.914 513.489H991.067M948.914 555.641V597.794M948.914 555.641H991.067M948.914 597.794V639.946M948.914 597.794H991.067M948.914 639.946V682.099M948.914 639.946H991.067M948.914 682.099V724.251M948.914 682.099H991.067M948.914 724.251H991.067M991.067 -118.798V-76.6454M991.067 -118.798H1033.22M991.067 -76.6454V-34.4929M991.067 -76.6454H1033.22M991.067 -34.4929V7.65951M991.067 -34.4929H1033.22M991.067 7.65951V49.812M991.067 7.65951H1033.22M991.067 49.812V91.9644M991.067 49.812H1033.22M991.067 91.9644V134.117M991.067 91.9644H1033.22M991.067 134.117V176.269M991.067 134.117H1033.22M991.067 176.269V218.422M991.067 176.269H1033.22M991.067 218.422V260.574M991.067 218.422H1033.22M991.067 260.574V302.727M991.067 260.574H1033.22M991.067 302.727V344.879M991.067 302.727H1033.22M991.067 344.879V387.032M991.067 344.879H1033.22M991.067 387.032V429.184M991.067 387.032H1033.22M991.067 429.184V471.336M991.067 429.184H1033.22M991.067 471.336V513.489M991.067 471.336H1033.22M991.067 513.489V555.641M991.067 513.489H1033.22M991.067 555.641V597.794M991.067 555.641H1033.22M991.067 597.794V639.946M991.067 597.794H1033.22M991.067 639.946V682.099M991.067 639.946H1033.22M991.067 682.099V724.251M991.067 682.099H1033.22M991.067 724.251H1033.22M1033.22 -118.798V-76.6454M1033.22 -118.798H1075.37M1033.22 -76.6454V-34.4929M1033.22 -76.6454H1075.37M1033.22 -34.4929V7.65951M1033.22 -34.4929H1075.37M1033.22 7.65951V49.812M1033.22 7.65951H1075.37M1033.22 49.812V91.9644M1033.22 49.812H1075.37M1033.22 91.9644V134.117M1033.22 91.9644H1075.37M1033.22 134.117V176.269M1033.22 134.117H1075.37M1033.22 176.269V218.422M1033.22 176.269H1075.37M1033.22 218.422V260.574M1033.22 218.422H1075.37M1033.22 260.574V302.727M1033.22 260.574H1075.37M1033.22 302.727V344.879M1033.22 302.727H1075.37M1033.22 344.879V387.032M1033.22 344.879H1075.37M1033.22 387.032V429.184M1033.22 387.032H1075.37M1033.22 429.184V471.336M1033.22 429.184H1075.37M1033.22 471.336V513.489M1033.22 471.336H1075.37M1033.22 513.489V555.641M1033.22 513.489H1075.37M1033.22 555.641V597.794M1033.22 555.641H1075.37M1033.22 597.794V639.946M1033.22 597.794H1075.37M1033.22 639.946V682.099M1033.22 639.946H1075.37M1033.22 682.099V724.251M1033.22 682.099H1075.37M1033.22 724.251H1075.37M1075.37 -118.798V-76.6454M1075.37 -118.798H1117.52M1075.37 -76.6454V-34.4929M1075.37 -76.6454H1117.52M1075.37 -34.4929V7.65951M1075.37 -34.4929H1117.52M1075.37 7.65951V49.812M1075.37 7.65951H1117.52M1075.37 49.812V91.9644M1075.37 49.812H1117.52M1075.37 91.9644V134.117M1075.37 91.9644H1117.52M1075.37 134.117V176.269M1075.37 134.117H1117.52M1075.37 176.269V218.422M1075.37 176.269H1117.52M1075.37 218.422V260.574M1075.37 218.422H1117.52M1075.37 260.574V302.727M1075.37 260.574H1117.52M1075.37 302.727V344.879M1075.37 302.727H1117.52M1075.37 344.879V387.032M1075.37 344.879H1117.52M1075.37 387.032V429.184M1075.37 387.032H1117.52M1075.37 429.184V471.336M1075.37 429.184H1117.52M1075.37 471.336V513.489M1075.37 471.336H1117.52M1075.37 513.489V555.641M1075.37 513.489H1117.52M1075.37 555.641V597.794M1075.37 555.641H1117.52M1075.37 597.794V639.946M1075.37 597.794H1117.52M1075.37 639.946V682.099M1075.37 639.946H1117.52M1075.37 682.099V724.251M1075.37 682.099H1117.52M1075.37 724.251H1117.52M1117.52 -118.798V-76.6454M1117.52 -118.798H1159.68M1117.52 -76.6454V-34.4929M1117.52 -76.6454H1159.68M1117.52 -34.4929V7.65951M1117.52 -34.4929H1159.68M1117.52 7.65951V49.812M1117.52 7.65951H1159.68M1117.52 49.812V91.9644M1117.52 49.812H1159.68M1117.52 91.9644V134.117M1117.52 91.9644H1159.68M1117.52 134.117V176.269M1117.52 134.117H1159.68M1117.52 176.269V218.422M1117.52 176.269H1159.68M1117.52 218.422V260.574M1117.52 218.422H1159.68M1117.52 260.574V302.727M1117.52 260.574H1159.68M1117.52 302.727V344.879M1117.52 302.727H1159.68M1117.52 344.879V387.032M1117.52 344.879H1159.68M1117.52 387.032V429.184M1117.52 387.032H1159.68M1117.52 429.184V471.336M1117.52 429.184H1159.68M1117.52 471.336V513.489M1117.52 471.336H1159.68M1117.52 513.489V555.641M1117.52 513.489H1159.68M1117.52 555.641V597.794M1117.52 555.641H1159.68M1117.52 597.794V639.946M1117.52 597.794H1159.68M1117.52 639.946V682.099M1117.52 639.946H1159.68M1117.52 682.099V724.251M1117.52 682.099H1159.68M1117.52 724.251H1159.68M1159.68 -118.798V-76.6454M1159.68 -118.798H1201.83M1159.68 -76.6454V-34.4929M1159.68 -76.6454H1201.83M1159.68 -34.4929V7.65951M1159.68 -34.4929H1201.83M1159.68 7.65951V49.812M1159.68 7.65951H1201.83M1159.68 49.812V91.9644M1159.68 49.812H1201.83M1159.68 91.9644V134.117M1159.68 91.9644H1201.83M1159.68 134.117V176.269M1159.68 134.117H1201.83M1159.68 176.269V218.422M1159.68 176.269H1201.83M1159.68 218.422V260.574M1159.68 218.422H1201.83M1159.68 260.574V302.727M1159.68 260.574H1201.83M1159.68 302.727V344.879M1159.68 302.727H1201.83M1159.68 344.879V387.032M1159.68 344.879H1201.83M1159.68 387.032V429.184M1159.68 387.032H1201.83M1159.68 429.184V471.336M1159.68 429.184H1201.83M1159.68 471.336V513.489M1159.68 471.336H1201.83M1159.68 513.489V555.641M1159.68 513.489H1201.83M1159.68 555.641V597.794M1159.68 555.641H1201.83M1159.68 597.794V639.946M1159.68 597.794H1201.83M1159.68 639.946V682.099M1159.68 639.946H1201.83M1159.68 682.099V724.251M1159.68 682.099H1201.83M1159.68 724.251H1201.83M1201.83 -118.798V-76.6454M1201.83 -118.798H1243.98M1201.83 -76.6454V-34.4929M1201.83 -76.6454H1243.98M1201.83 -34.4929V7.65951M1201.83 -34.4929H1243.98M1201.83 7.65951V49.812M1201.83 7.65951H1243.98M1201.83 49.812V91.9644M1201.83 49.812H1243.98M1201.83 91.9644V134.117M1201.83 91.9644H1243.98M1201.83 134.117V176.269M1201.83 134.117H1243.98M1201.83 176.269V218.422M1201.83 176.269H1243.98M1201.83 218.422V260.574M1201.83 218.422H1243.98M1201.83 260.574V302.727M1201.83 260.574H1243.98M1201.83 302.727V344.879M1201.83 302.727H1243.98M1201.83 344.879V387.032M1201.83 344.879H1243.98M1201.83 387.032V429.184M1201.83 387.032H1243.98M1201.83 429.184V471.336M1201.83 429.184H1243.98M1201.83 471.336V513.489M1201.83 471.336H1243.98M1201.83 513.489V555.641M1201.83 513.489H1243.98M1201.83 555.641V597.794M1201.83 555.641H1243.98M1201.83 597.794V639.946M1201.83 597.794H1243.98M1201.83 639.946V682.099M1201.83 639.946H1243.98M1201.83 682.099V724.251M1201.83 682.099H1243.98M1201.83 724.251H1243.98M1243.98 -118.798V-76.6454M1243.98 -118.798H1286.13M1243.98 -76.6454V-34.4929M1243.98 -76.6454H1286.13M1243.98 -34.4929V7.65951M1243.98 -34.4929H1286.13M1243.98 7.65951V49.812M1243.98 7.65951H1286.13M1243.98 49.812V91.9644M1243.98 49.812H1286.13M1243.98 91.9644V134.117M1243.98 91.9644H1286.13M1243.98 134.117V176.269M1243.98 134.117H1286.13M1243.98 176.269V218.422M1243.98 176.269H1286.13M1243.98 218.422V260.574M1243.98 218.422H1286.13M1243.98 260.574V302.727M1243.98 260.574H1286.13M1243.98 302.727V344.879M1243.98 302.727H1286.13M1243.98 344.879V387.032M1243.98 344.879H1286.13M1243.98 387.032V429.184M1243.98 387.032H1286.13M1243.98 429.184V471.336M1243.98 429.184H1286.13M1243.98 471.336V513.489M1243.98 471.336H1286.13M1243.98 513.489V555.641M1243.98 513.489H1286.13M1243.98 555.641V597.794M1243.98 555.641H1286.13M1243.98 597.794V639.946M1243.98 597.794H1286.13M1243.98 639.946V682.099M1243.98 639.946H1286.13M1243.98 682.099V724.251M1243.98 682.099H1286.13M1243.98 724.251H1286.13M1286.13 -118.798V-76.6454M1286.13 -118.798H1328.29M1286.13 -76.6454V-34.4929M1286.13 -76.6454H1328.29M1286.13 -34.4929V7.65951M1286.13 -34.4929H1328.29M1286.13 7.65951V49.812M1286.13 7.65951H1328.29M1286.13 49.812V91.9644M1286.13 49.812H1328.29M1286.13 91.9644V134.117M1286.13 91.9644H1328.29M1286.13 134.117V176.269M1286.13 134.117H1328.29M1286.13 176.269V218.422M1286.13 176.269H1328.29M1286.13 218.422V260.574M1286.13 218.422H1328.29M1286.13 260.574V302.727M1286.13 260.574H1328.29M1286.13 302.727V344.879M1286.13 302.727H1328.29M1286.13 344.879V387.032M1286.13 344.879H1328.29M1286.13 387.032V429.184M1286.13 387.032H1328.29M1286.13 429.184V471.336M1286.13 429.184H1328.29M1286.13 471.336V513.489M1286.13 471.336H1328.29M1286.13 513.489V555.641M1286.13 513.489H1328.29M1286.13 555.641V597.794M1286.13 555.641H1328.29M1286.13 597.794V639.946M1286.13 597.794H1328.29M1286.13 639.946V682.099M1286.13 639.946H1328.29M1286.13 682.099V724.251M1286.13 682.099H1328.29M1286.13 724.251H1328.29M1328.29 -118.798V-76.6454M1328.29 -118.798H1370.44M1328.29 -76.6454V-34.4929M1328.29 -76.6454H1370.44M1328.29 -34.4929V7.65951M1328.29 -34.4929H1370.44M1328.29 7.65951V49.812M1328.29 7.65951H1370.44M1328.29 49.812V91.9644M1328.29 49.812H1370.44M1328.29 91.9644V134.117M1328.29 91.9644H1370.44M1328.29 134.117V176.269M1328.29 134.117H1370.44M1328.29 176.269V218.422M1328.29 176.269H1370.44M1328.29 218.422V260.574M1328.29 218.422H1370.44M1328.29 260.574V302.727M1328.29 260.574H1370.44M1328.29 302.727V344.879M1328.29 302.727H1370.44M1328.29 344.879V387.032M1328.29 344.879H1370.44M1328.29 387.032V429.184M1328.29 387.032H1370.44M1328.29 429.184V471.336M1328.29 429.184H1370.44M1328.29 471.336V513.489M1328.29 471.336H1370.44M1328.29 513.489V555.641M1328.29 513.489H1370.44M1328.29 555.641V597.794M1328.29 555.641H1370.44M1328.29 597.794V639.946M1328.29 597.794H1370.44M1328.29 639.946V682.099M1328.29 639.946H1370.44M1328.29 682.099V724.251M1328.29 682.099H1370.44M1328.29 724.251H1370.44M1370.44 -118.798V-76.6454M1370.44 -118.798H1412.59M1370.44 -76.6454V-34.4929M1370.44 -76.6454H1412.59M1370.44 -34.4929V7.65951M1370.44 -34.4929H1412.59M1370.44 7.65951V49.812M1370.44 7.65951H1412.59M1370.44 49.812V91.9644M1370.44 49.812H1412.59M1370.44 91.9644V134.117M1370.44 91.9644H1412.59M1370.44 134.117V176.269M1370.44 134.117H1412.59M1370.44 176.269V218.422M1370.44 176.269H1412.59M1370.44 218.422V260.574M1370.44 218.422H1412.59M1370.44 260.574V302.727M1370.44 260.574H1412.59M1370.44 302.727V344.879M1370.44 302.727H1412.59M1370.44 344.879V387.032M1370.44 344.879H1412.59M1370.44 387.032V429.184M1370.44 387.032H1412.59M1370.44 429.184V471.336M1370.44 429.184H1412.59M1370.44 471.336V513.489M1370.44 471.336H1412.59M1370.44 513.489V555.641M1370.44 513.489H1412.59M1370.44 555.641V597.794M1370.44 555.641H1412.59M1370.44 597.794V639.946M1370.44 597.794H1412.59M1370.44 639.946V682.099M1370.44 639.946H1412.59M1370.44 682.099V724.251M1370.44 682.099H1412.59M1370.44 724.251H1412.59M1412.59 -118.798V-76.6454M1412.59 -118.798H1454.74M1412.59 -76.6454V-34.4929M1412.59 -76.6454H1454.74M1412.59 -34.4929V7.65951M1412.59 -34.4929H1454.74M1412.59 7.65951V49.812M1412.59 7.65951H1454.74M1412.59 49.812V91.9644M1412.59 49.812H1454.74M1412.59 91.9644V134.117M1412.59 91.9644H1454.74M1412.59 134.117V176.269M1412.59 134.117H1454.74M1412.59 176.269V218.422M1412.59 176.269H1454.74M1412.59 218.422V260.574M1412.59 218.422H1454.74M1412.59 260.574V302.727M1412.59 260.574H1454.74M1412.59 302.727V344.879M1412.59 302.727H1454.74M1412.59 344.879V387.032M1412.59 344.879H1454.74M1412.59 387.032V429.184M1412.59 387.032H1454.74M1412.59 429.184V471.336M1412.59 429.184H1454.74M1412.59 471.336V513.489M1412.59 471.336H1454.74M1412.59 513.489V555.641M1412.59 513.489H1454.74M1412.59 555.641V597.794M1412.59 555.641H1454.74M1412.59 597.794V639.946M1412.59 597.794H1454.74M1412.59 639.946V682.099M1412.59 639.946H1454.74M1412.59 682.099V724.251M1412.59 682.099H1454.74M1412.59 724.251H1454.74M1454.74 -118.798V-76.6454M1454.74 -118.798H1496.9M1454.74 -76.6454V-34.4929M1454.74 -76.6454H1496.9M1454.74 -34.4929V7.65951M1454.74 -34.4929H1496.9M1454.74 7.65951V49.812M1454.74 7.65951H1496.9M1454.74 49.812V91.9644M1454.74 49.812H1496.9M1454.74 91.9644V134.117M1454.74 91.9644H1496.9M1454.74 134.117V176.269M1454.74 134.117H1496.9M1454.74 176.269V218.422M1454.74 176.269H1496.9M1454.74 218.422V260.574M1454.74 218.422H1496.9M1454.74 260.574V302.727M1454.74 260.574H1496.9M1454.74 302.727V344.879M1454.74 302.727H1496.9M1454.74 344.879V387.032M1454.74 344.879H1496.9M1454.74 387.032V429.184M1454.74 387.032H1496.9M1454.74 429.184V471.336M1454.74 429.184H1496.9M1454.74 471.336V513.489M1454.74 471.336H1496.9M1454.74 513.489V555.641M1454.74 513.489H1496.9M1454.74 555.641V597.794M1454.74 555.641H1496.9M1454.74 597.794V639.946M1454.74 597.794H1496.9M1454.74 639.946V682.099M1454.74 639.946H1496.9M1454.74 682.099V724.251M1454.74 682.099H1496.9M1454.74 724.251H1496.9M1496.9 -118.798V-76.6454M1496.9 -118.798H1539.05M1496.9 -76.6454V-34.4929M1496.9 -76.6454H1539.05M1496.9 -34.4929V7.65951M1496.9 -34.4929H1539.05M1496.9 7.65951V49.812M1496.9 7.65951H1539.05M1496.9 49.812V91.9644M1496.9 49.812H1539.05M1496.9 91.9644V134.117M1496.9 91.9644H1539.05M1496.9 134.117V176.269M1496.9 134.117H1539.05M1496.9 176.269V218.422M1496.9 176.269H1539.05M1496.9 218.422V260.574M1496.9 218.422H1539.05M1496.9 260.574V302.727M1496.9 260.574H1539.05M1496.9 302.727V344.879M1496.9 302.727H1539.05M1496.9 344.879V387.032M1496.9 344.879H1539.05M1496.9 387.032V429.184M1496.9 387.032H1539.05M1496.9 429.184V471.336M1496.9 429.184H1539.05M1496.9 471.336V513.489M1496.9 471.336H1539.05M1496.9 513.489V555.641M1496.9 513.489H1539.05M1496.9 555.641V597.794M1496.9 555.641H1539.05M1496.9 597.794V639.946M1496.9 597.794H1539.05M1496.9 639.946V682.099M1496.9 639.946H1539.05M1496.9 682.099V724.251M1496.9 682.099H1539.05M1496.9 724.251H1539.05M1539.05 -118.798V-76.6454M1539.05 -118.798H1581.2M1539.05 -76.6454V-34.4929M1539.05 -76.6454H1581.2M1539.05 -34.4929V7.65951M1539.05 -34.4929H1581.2M1539.05 7.65951V49.812M1539.05 7.65951H1581.2M1539.05 49.812V91.9644M1539.05 49.812H1581.2M1539.05 91.9644V134.117M1539.05 91.9644H1581.2M1539.05 134.117V176.269M1539.05 134.117H1581.2M1539.05 176.269V218.422M1539.05 176.269H1581.2M1539.05 218.422V260.574M1539.05 218.422H1581.2M1539.05 260.574V302.727M1539.05 260.574H1581.2M1539.05 302.727V344.879M1539.05 302.727H1581.2M1539.05 344.879V387.032M1539.05 344.879H1581.2M1539.05 387.032V429.184M1539.05 387.032H1581.2M1539.05 429.184V471.336M1539.05 429.184H1581.2M1539.05 471.336V513.489M1539.05 471.336H1581.2M1539.05 513.489V555.641M1539.05 513.489H1581.2M1539.05 555.641V597.794M1539.05 555.641H1581.2M1539.05 597.794V639.946M1539.05 597.794H1581.2M1539.05 639.946V682.099M1539.05 639.946H1581.2M1539.05 682.099V724.251M1539.05 682.099H1581.2M1539.05 724.251H1581.2M1581.2 -118.798V-76.6454M1581.2 -118.798H1623.35V-76.6454M1581.2 -76.6454V-34.4929M1581.2 -76.6454H1623.35M1581.2 -34.4929V7.65951M1581.2 -34.4929H1623.35M1581.2 7.65951V49.812M1581.2 7.65951H1623.35M1581.2 49.812V91.9644M1581.2 49.812H1623.35M1581.2 91.9644V134.117M1581.2 91.9644H1623.35M1581.2 134.117V176.269M1581.2 134.117H1623.35M1581.2 176.269V218.422M1581.2 176.269H1623.35M1581.2 218.422V260.574M1581.2 218.422H1623.35M1581.2 260.574V302.727M1581.2 260.574H1623.35M1581.2 302.727V344.879M1581.2 302.727H1623.35M1581.2 344.879V387.032M1581.2 344.879H1623.35M1581.2 387.032V429.184M1581.2 387.032H1623.35M1581.2 429.184V471.336M1581.2 429.184H1623.35M1581.2 471.336V513.489M1581.2 471.336H1623.35M1581.2 513.489V555.641M1581.2 513.489H1623.35M1581.2 555.641V597.794M1581.2 555.641H1623.35M1581.2 597.794V639.946M1581.2 597.794H1623.35M1581.2 639.946V682.099M1581.2 639.946H1623.35M1581.2 682.099V724.251M1581.2 682.099H1623.35M1581.2 724.251H1623.35V682.099M1623.35 -76.6454V-34.4929M1623.35 -34.4929V7.65951M1623.35 7.65951V49.812M1623.35 49.812V91.9644M1623.35 91.9644V134.117M1623.35 134.117V176.269M1623.35 176.269V218.422M1623.35 218.422V260.574M1623.35 260.574V302.727M1623.35 302.727V344.879M1623.35 344.879V387.032M1623.35 387.032V429.184M1623.35 429.184V471.336M1623.35 471.336V513.489M1623.35 513.489V555.641M1623.35 555.641V597.794M1623.35 597.794V639.946M1623.35 639.946V682.099" stroke="url(#paint0_radial_49_270)" stroke-width="0.805493"/>
</g>
<defs>
<radialGradient id="paint0_radial_49_270" cx="0" cy="0" r="1" gradientUnits="userSpaceOnUse" gradientTransform="translate(695.999 248) rotate(90) scale(591 1300.2)">
<stop stop-color="#10487A"/>
<stop offset="1" stop-color="#2E85D1" stop-opacity="0.1"/>
</radialGradient>
</defs>
</svg>
