<svg width="68" height="68" viewBox="0 0 68 68" fill="none" xmlns="http://www.w3.org/2000/svg">
<rect width="68" height="68" rx="16" fill="#06A4FF"/>
<path d="M41.682 15.6667H26.3187C19.6453 15.6667 15.667 19.645 15.667 26.3184V41.6634C15.667 48.355 19.6453 52.3334 26.3187 52.3334H41.6637C48.337 52.3334 52.3153 48.355 52.3153 41.6817V26.3184C52.3337 19.645 48.3553 15.6667 41.682 15.6667ZM42.947 33.1384C42.947 33.8534 42.3787 34.4217 41.6637 34.4217C40.9487 34.4217 40.3803 33.8534 40.3803 33.1384V32.8084L35.3937 37.795C35.1187 38.07 34.752 38.1984 34.367 38.1617C33.982 38.125 33.6337 37.9234 33.432 37.5934L31.562 34.8067L27.1987 39.17C26.942 39.4267 26.6303 39.5367 26.3003 39.5367C25.9703 39.5367 25.6403 39.4084 25.402 39.17C24.907 38.675 24.907 37.8684 25.402 37.355L30.8653 31.8917C31.1403 31.6167 31.507 31.4884 31.892 31.525C32.277 31.5617 32.6253 31.7634 32.827 32.0934L34.697 34.88L38.5653 31.0117H38.2353C37.5203 31.0117 36.952 30.4434 36.952 29.7284C36.952 29.0134 37.5203 28.445 38.2353 28.445H41.6453C41.8103 28.445 41.9753 28.4817 42.1403 28.5367C42.452 28.665 42.7087 28.9217 42.837 29.2334C42.9103 29.3984 42.9287 29.5634 42.9287 29.7284V33.1384H42.947Z" fill="white"/>
</svg>
