<svg width="68" height="68" viewBox="0 0 68 68" fill="none" xmlns="http://www.w3.org/2000/svg">
<rect width="68" height="68" rx="16" fill="#FA9600"/>
<path d="M50.5 53.7083H17.5C16.7483 53.7083 16.125 53.085 16.125 52.3333C16.125 51.5816 16.7483 50.9583 17.5 50.9583H50.5C51.2517 50.9583 51.875 51.5816 51.875 52.3333C51.875 53.085 51.2517 53.7083 50.5 53.7083Z" fill="white"/>
<path d="M22.2667 27.3633H19.3333C18.325 27.3633 17.5 28.1883 17.5 29.1967V45C17.5 46.0083 18.325 46.8333 19.3333 46.8333H22.2667C23.275 46.8333 24.1 46.0083 24.1 45V29.1967C24.1 28.17 23.275 27.3633 22.2667 27.3633Z" fill="white"/>
<path d="M35.4669 21.515H32.5335C31.5252 21.515 30.7002 22.34 30.7002 23.3483V45C30.7002 46.0083 31.5252 46.8333 32.5335 46.8333H35.4669C36.4752 46.8333 37.3002 46.0083 37.3002 45V23.3483C37.3002 22.34 36.4752 21.515 35.4669 21.515Z" fill="white"/>
<path d="M48.6671 15.6667H45.7337C44.7254 15.6667 43.9004 16.4917 43.9004 17.5V45C43.9004 46.0084 44.7254 46.8334 45.7337 46.8334H48.6671C49.6754 46.8334 50.5004 46.0084 50.5004 45V17.5C50.5004 16.4917 49.6754 15.6667 48.6671 15.6667Z" fill="white"/>
</svg>
